<svg xmlns="http://www.w3.org/2000/svg" xmlns:xlink="http://www.w3.org/1999/xlink" width="361.974" height="324.838" viewBox="0 0 361.974 324.838">
  <defs>
    <linearGradient id="linear-gradient" x1="0.018" y1="0.487" x2="0.979" y2="0.432" gradientUnits="objectBoundingBox">
      <stop offset="0" stop-color="#fff"/>
      <stop offset="1" stop-color="#fff" stop-opacity="0"/>
    </linearGradient>
    <linearGradient id="linear-gradient-2" x1="0.5" x2="1.182" y2="-0.091" gradientUnits="objectBoundingBox">
      <stop offset="0" stop-color="#aeb7c4"/>
      <stop offset="1" stop-color="#fff" stop-opacity="0"/>
    </linearGradient>
  </defs>
  <g id="Group_57" data-name="Group 57" transform="translate(-818.093 -410.641)">
    <g id="symbols" transform="matrix(0.669, -0.743, 0.743, 0.669, 1122.897, 547.989)">
      <g id="Group_4" data-name="Group 4" transform="translate(22.338 0.327)">
        <g id="Group_3" data-name="Group 3" transform="translate(0 0)">
          <path id="Path_1" data-name="Path 1" d="M3.247,0,0,19.057H5.194L8.444,0Z" transform="translate(0 0)" fill="#1d3165"/>
        </g>
      </g>
      <g id="Group_6" data-name="Group 6" transform="translate(5.159 0.345)">
        <g id="Group_5" data-name="Group 5" transform="translate(0 0)">
          <path id="Path_2" data-name="Path 2" d="M12.824,0,7.737,13l-.542-1.962A20.39,20.39,0,0,0,0,3.138L4.651,19.031l5.5-.009L18.327,0Z" transform="translate(0)" fill="#1d3165"/>
        </g>
      </g>
      <g id="Group_8" data-name="Group 8" transform="translate(0 0.164)">
        <g id="Group_7" data-name="Group 7" transform="translate(0 0)">
          <path id="Path_3" data-name="Path 3" d="M10.382,1.548A2.09,2.09,0,0,0,8.119,0H.067L0,.379C6.267,1.9,10.413,5.563,12.134,9.967Z" transform="translate(0 0)" fill="#1d3165"/>
        </g>
      </g>
      <g id="Group_10" data-name="Group 10" transform="translate(30.782 0)">
        <g id="Group_9" data-name="Group 9" transform="translate(0 0)">
          <path id="Path_4" data-name="Path 4" d="M10.527,3.981a9.589,9.589,0,0,1,3.887.729l.469.22.7-4.13A13.407,13.407,0,0,0,10.933,0C5.8,0,2.183,2.585,2.155,6.289,2.121,9.026,4.732,10.555,6.7,11.467,8.727,12.4,9.406,13,9.4,13.831c-.016,1.276-1.614,1.861-3.106,1.861a10.9,10.9,0,0,1-4.891-1l-.669-.3L0,18.655a16.449,16.449,0,0,0,5.787,1.015c5.46,0,9.008-2.554,9.045-6.512.023-2.165-1.363-3.818-4.364-5.174C8.651,7.1,7.54,6.512,7.55,5.62,7.55,4.828,8.493,3.981,10.527,3.981Z" transform="translate(0)" fill="#1d3165"/>
        </g>
      </g>
      <g id="Group_12" data-name="Group 12" transform="translate(45.251 0.349)">
        <g id="Group_11" data-name="Group 11" transform="translate(0 0)">
          <path id="Path_5" data-name="Path 5" d="M14.446,0H10.433A2.584,2.584,0,0,0,7.712,1.582L0,19.047H5.454s.89-2.348,1.091-2.863l6.651.008c.155.665.633,2.855.633,2.855h4.818ZM8.041,12.283c.427-1.094,2.069-5.326,2.069-5.326-.028.052.423-1.1.692-1.819l.35,1.643,1.2,5.5Z" transform="translate(0)" fill="#1d3165"/>
        </g>
      </g>
    </g>
    <text id="_4000_1234_1234_1234" data-name="4000 1234 1234 1234" transform="translate(1001.207 615.787) rotate(-47)" fill="#a4acc0" font-size="21" font-family="Lato-Medium, Lato" font-weight="500"><tspan x="-105.394" y="0">4000 1234 1234 1234</tspan></text>
    <text id="John_Doe" data-name="John Doe" transform="translate(976 697) rotate(-47)" fill="#a4acc0" font-size="14" font-family="Lato-Medium, Lato" font-weight="500"><tspan x="-29.396" y="0">John Doe</tspan></text>
    <text id="VALID_THRU" data-name="VALID
THRU" transform="translate(1034 634) rotate(-47)" fill="#a4acc0" font-size="5" font-family="Lato-Medium, Lato" font-weight="500"><tspan x="0" y="0">VALID</tspan><tspan x="0" y="6">THRU</tspan></text>
    <text id="_09_22" data-name="09/22" transform="translate(1051 622) rotate(-47)" fill="#a4acc0" font-size="11" font-family="Lato-Medium, Lato" font-weight="500"><tspan x="0" y="0">09/22</tspan></text>
    <text id="DEBIT" transform="translate(1143 510) rotate(-47)" fill="#1d3165" font-size="14" font-family="Lato-Medium, Lato" font-weight="500"><tspan x="-20.048" y="0">DEBIT</tspan></text>
    <text id="_1234" data-name="1234" transform="translate(981 721) rotate(-47)" fill="#a4acc0" font-size="14" font-family="Lato-Medium, Lato" font-weight="500"><tspan x="-16.24" y="0">1234</tspan></text>
    <rect id="Rectangle_69" data-name="Rectangle 69" width="236" height="37" transform="translate(818.093 651.312) rotate(-47)" opacity="0.065" fill="url(#linear-gradient)"/>
    <g id="Layer_2" data-name="Layer 2" transform="translate(907.799 553.955) rotate(-47)">
      <g id="Layer_1" data-name="Layer 1" transform="translate(31.146 2.172)">
        <path id="Path_8" data-name="Path 8" d="M12.164,223.837c0,.6-.357.8-.827.8H.872c-.579,0-.883-.15-.883-.879V206.29a.684.684,0,0,1,.77-.77H3.544c.6,0,.827.192.827.827v14.6h7.023a.7.7,0,0,1,.751.8Z" transform="translate(38.482 -198.862)" fill="#2e74ff"/>
        <path id="Path_9" data-name="Path 9" d="M39.912,209.491a2.154,2.154,0,0,1-2.232-2.067,2.258,2.258,0,1,1,2.232,2.067ZM42,223.706c0,.549-.248.8-.8.8h-2.48c-.579,0-.853-.192-.853-.8v-11.9c0-.552.357-.718.853-.718h2.48c.522,0,.8.139.8.718Z" transform="translate(14.949 -198.731)" fill="#2e74ff"/>
        <path id="Path_10" data-name="Path 10" d="M69.252,238.67c0,.552-.218.827-.77.827H65.919a.71.71,0,0,1-.8-.751v-6.012a5.377,5.377,0,0,1-3.111,1.157,5.467,5.467,0,0,1-3.581-1.157c-1.627-1.3-2.341-3.555-2.341-5.978a7.59,7.59,0,0,1,2.01-5.482,5.576,5.576,0,0,1,3.968-1.525,5.247,5.247,0,0,1,3.472,1.379l.056-.579c.026-.278.218-.443.714-.443h2.176c.609,0,.77.278.77.77Zm-4.133-14.515a4.134,4.134,0,0,0-2.3-.992c-2.01,0-2.424,1.928-2.424,3.607a4.778,4.778,0,0,0,.688,2.811,2.025,2.025,0,0,0,1.736.782,4.2,4.2,0,0,0,2.315-.879Z" transform="translate(3.457 -207.746)" fill="#2e74ff"/>
        <path id="Path_11" data-name="Path 11" d="M110.988,233.212c0,.691-.192.909-.853.909H107.9c-.376,0-.714-.165-.751-.549l-.053-.579a7.071,7.071,0,0,1-4.407,1.5c-3.006,0-4.351-1.927-4.351-4.9v-8.176c0-.552.376-.718.853-.718h2.48c.522,0,.8.139.8.718v7.436c0,1.127.331,1.928,1.571,1.928a4.652,4.652,0,0,0,2.811-1.075v-8.289c0-.552.376-.718.853-.718h2.48c.522,0,.8.139.8.718Z" transform="translate(-22.918 -208.342)" fill="#2e74ff"/>
        <path id="Path_12" data-name="Path 12" d="M141.523,209.071A2.152,2.152,0,0,1,139.291,207a2.221,2.221,0,1,1,2.232,2.067Zm2.093,14.215c0,.549-.248.8-.8.8h-2.48c-.575,0-.853-.192-.853-.8v-11.9c0-.552.376-.718.853-.718h2.48c.522,0,.8.139.8.718Z" transform="translate(-48.478 -198.31)" fill="#2e74ff"/>
        <path id="Path_13" data-name="Path 13" d="M170.976,222.794a.688.688,0,0,1-.751.751H167.91c-.466,0-.688-.248-.714-.549l-.056-.579a5.336,5.336,0,0,1-3.5,1.5c-3.994,0-5.922-3.085-5.922-6.831,0-3.66,1.958-7.353,6.031-7.353a4.558,4.558,0,0,1,3.085,1.1v-5.813c0-.5.139-.751.661-.853l2.919-.376c.376,0,.552.222.552.6Zm-4.133-8.841a3.434,3.434,0,0,0-2.176-.883c-2.01,0-2.63,2.123-2.63,3.776s.466,3.716,2.559,3.716a3.63,3.63,0,0,0,2.254-.992Z" transform="translate(-59.986 -197.792)" fill="#2e74ff"/>
        <path id="Path_14" data-name="Path 14" d="M217.15,224.635h-3.468a1.638,1.638,0,0,1-1.544-.8L206.96,216.7h-.083v7.139c0,.579-.248.8-.8.8h-2.728c-.579,0-.853-.192-.853-.8v-17.6c0-.549.357-.714.853-.714h2.717c.522,0,.8.139.8.714v7.658h.083l4.885-7.793a1.266,1.266,0,0,1,1.184-.579h2.822c.376,0,.522.192.522.413a.872.872,0,0,1-.165.413l-5.73,8.428,6.94,8.841a1.064,1.064,0,0,1,.248.552.47.47,0,0,1-.5.466Z" transform="translate(-87.941 -198.863)" fill="#bfc1c7"/>
        <path id="Path_15" data-name="Path 15" d="M252.434,222.825a.673.673,0,0,1-.718.752h-2.672a.68.68,0,0,1-.751-.752V204.977c0-.552.248-.718.661-.751l2.893-.376c.376,0,.579.248.579.691Z" transform="translate(-116.525 -197.823)" fill="#bfc1c7"/>
        <path id="Path_16" data-name="Path 16" d="M278.992,227.007c0,.661-.3.8-.992.8h-7.71a3.433,3.433,0,0,0,3.551,2.7,9.321,9.321,0,0,0,3.472-.714.716.716,0,0,1,.331-.083.443.443,0,0,1,.44.376,16.927,16.927,0,0,1,.522,2.149c0,.357-.244.47-.522.6a12.812,12.812,0,0,1-4.975.943c-4.377,0-7.158-2.7-7.158-7.105a6.723,6.723,0,0,1,7.139-7.079,5.7,5.7,0,0,1,4.268,1.762,7.337,7.337,0,0,1,1.653,5.291Zm-4.047-1.819a2.186,2.186,0,0,0-2.123-2.394,2.549,2.549,0,0,0-2.48,2.394Z" transform="translate(-127.55 -207.653)" fill="#bfc1c7"/>
        <path id="Path_17" data-name="Path 17" d="M318.947,232.842a.6.6,0,0,1-.661.631h-1.462c-1.623,0-2.285-.466-2.63-1.266h-.056a5.912,5.912,0,0,1-3.855,1.623c-3.968,0-5.813-3.137-5.813-6.8,0-4.885,3.028-7.353,6.061-7.353a4.133,4.133,0,0,1,3.359,1.541l.083-.6a.609.609,0,0,1,.635-.552h2.476a.609.609,0,0,1,.661.661v9.5c0,.274.113.47.413.47h.222c.376,0,.579.135.579.549Zm-5.343-8.815a3.757,3.757,0,0,0-2.232-.936c-1.349,0-2.63,1.1-2.63,3.664,0,1.706.44,3.757,2.533,3.757a3.434,3.434,0,0,0,2.315-1.154Z" transform="translate(-151.596 -207.701)" fill="#bfc1c7"/>
        <path id="Path_18" data-name="Path 18" d="M353.089,224.471v8.236a.673.673,0,0,1-.751.752h-2.593a.684.684,0,0,1-.751-.752V220.864c0-.661.331-.8.8-.8H352c.526,0,.752.139.8.552l.053.827a3.969,3.969,0,0,1,3.446-1.762,3.915,3.915,0,0,1,.752.109c.376.083.376.357.3.661l-.413,2.589c-.056.3-.2.44-.443.44s-.413-.083-.879-.083A3.656,3.656,0,0,0,353.089,224.471Z" transform="translate(-179.388 -207.706)" fill="#bfc1c7"/>
        <path id="Path_19" data-name="Path 19" d="M130.309,40.234l-3.857-5.753a.284.284,0,0,0-.236-.124h-6.334V9.273a.281.281,0,0,0-.29-.273h-6.829a.281.281,0,0,0-.284.281v31.11a.283.283,0,0,0,.284.283h17.31a.286.286,0,0,0,.25-.149.29.29,0,0,0-.014-.292Z" transform="translate(-112.48 -8.999)" fill="#2e74ff"/>
        <path id="Path_20" data-name="Path 20" d="M170.107,40.228,156.913,21.594l12-12.122A.283.283,0,0,0,168.708,9h-8.55a.279.279,0,0,0-.207.089L148.28,21.463v9.02l3.6-3.638,9.175,13.7a.286.286,0,0,0,.236.126h8.586a.286.286,0,0,0,.234-.447Z" transform="translate(-140.872 -9)" fill="#bfc1c7"/>
      </g>
    </g>
    <path id="Path_43" data-name="Path 43" d="M1.121,0,32.506-.038a1.118,1.118,0,0,1,1.12,1.119L33.6,25.738a1.124,1.124,0,0,1-1.122,1.122L1.09,26.9A1.118,1.118,0,0,1-.03,25.776L0,1.121A1.124,1.124,0,0,1,1.121,0Z" transform="translate(885.898 651.569) rotate(-47)" fill="#c4c9d0"/>
    <path id="Path_42" data-name="Path 42" d="M32.866-.037,1.308,0A1.311,1.311,0,0,0,0,1.307L-.029,25.714A1.3,1.3,0,0,0,1.277,27.02l31.558-.035a1.311,1.311,0,0,0,1.309-1.309l.027-24.406A1.3,1.3,0,0,0,32.866-.037ZM13.057,17.418l.009-7.845,8.02-.009-.009,7.845ZM10.452,8.269l0,3.922L2.6,12.2l0-4.358,7.846-.009ZM2.6,14.815l7.846-.009,0,3.922v.436l-7.846.009ZM23.7,8.254V7.818l7.846-.009,0,4.358-7.846.009Zm-.012,10.46,0-3.922,7.846-.009,0,4.358-7.846.009ZM31.553,5.194,22.4,5.2A1.311,1.311,0,0,0,21.09,6.514v.436l-2.7,0,0-2.509,1.851-1.851L31.556,2.58ZM16.542,2.6l-.383.383a1.31,1.31,0,0,0-.384.925l0,3.051-2.7,0V6.523a1.3,1.3,0,0,0-1.306-1.306l-9.154.01,0-2.615ZM2.591,21.788l9.154-.01a1.311,1.311,0,0,0,1.309-1.309v-.436l2.7,0,0,2.509L13.9,24.39,2.588,24.4Zm15.01,2.6L17.985,24a1.31,1.31,0,0,0,.384-.925l0-3.051,2.7,0v.436a1.3,1.3,0,0,0,1.306,1.306l9.154-.01,0,2.615Z" transform="translate(885.358 651.939) rotate(-47)" fill="url(#linear-gradient-2)"/>
  </g>
</svg>
