<svg xmlns="http://www.w3.org/2000/svg" width="191.532" height="35.432" viewBox="0 0 191.532 35.432">
  <g id="Group_64" data-name="Group 64" transform="translate(-223.104 -437.218)">
    <path id="Path_75" data-name="Path 75" d="M-32.867-3.491V0H-48.9V-28h4.153V-3.491Zm7.254-16.322V0h-3.8V-19.812Zm.722-6.123a2.425,2.425,0,0,1-.215,1,2.791,2.791,0,0,1-.575.839,2.622,2.622,0,0,1-.848.565,2.593,2.593,0,0,1-1.014.2,2.454,2.454,0,0,1-.994-.2,2.682,2.682,0,0,1-.829-.565,2.65,2.65,0,0,1-.566-.839,2.523,2.523,0,0,1-.2-1,2.571,2.571,0,0,1,.2-1.024,2.65,2.65,0,0,1,.566-.838,2.682,2.682,0,0,1,.829-.565,2.454,2.454,0,0,1,.994-.2,2.593,2.593,0,0,1,1.014.2,2.622,2.622,0,0,1,.848.565,2.791,2.791,0,0,1,.575.838A2.471,2.471,0,0,1-24.892-25.935Zm17.569,10.92a5.141,5.141,0,0,0-2-1.7,5.87,5.87,0,0,0-2.447-.507,4.79,4.79,0,0,0-4.046,1.882,8.946,8.946,0,0,0-1.433,5.489,13.971,13.971,0,0,0,.322,3.227,6.153,6.153,0,0,0,.936,2.184,3.717,3.717,0,0,0,1.511,1.248,4.932,4.932,0,0,0,2.028.4A5.378,5.378,0,0,0-9.584-3.53,8.657,8.657,0,0,0-7.322-5.616Zm3.822-4.8V6.649H-7.322V-2.827A10.106,10.106,0,0,1-10.111-.575a7.433,7.433,0,0,1-3.608.848A6.979,6.979,0,0,1-16.789-.39a6.466,6.466,0,0,1-2.35-1.94,9.258,9.258,0,0,1-1.5-3.169,16.264,16.264,0,0,1-.526-4.348,13.8,13.8,0,0,1,.585-4.095,9.792,9.792,0,0,1,1.7-3.276,8,8,0,0,1,2.691-2.174,7.87,7.87,0,0,1,3.568-.79,8.191,8.191,0,0,1,1.755.175,6.635,6.635,0,0,1,1.482.507,6.451,6.451,0,0,1,1.258.8,8.022,8.022,0,0,1,1.082,1.073l.253-1.424a.928.928,0,0,1,.995-.76Zm21.782,0V0H16a.975.975,0,0,1-1.014-.761L14.713-2.75A13.426,13.426,0,0,1,13.367-1.5a8.315,8.315,0,0,1-1.5.965,8.26,8.26,0,0,1-1.7.624,7.942,7.942,0,0,1-1.93.224A7.074,7.074,0,0,1,5.363-.234,5.71,5.71,0,0,1,3.286-1.765,6.631,6.631,0,0,1,2.018-4.134,10.311,10.311,0,0,1,1.589-7.2V-19.812H5.411V-7.2A5.048,5.048,0,0,0,6.386-3.89,3.648,3.648,0,0,0,9.37-2.711,5.606,5.606,0,0,0,12.1-3.4a9.307,9.307,0,0,0,2.379-1.9V-19.812Zm9.3,0V0h-3.8V-19.812Zm.722-6.123a2.425,2.425,0,0,1-.215,1,2.791,2.791,0,0,1-.575.839,2.622,2.622,0,0,1-.848.565,2.593,2.593,0,0,1-1.014.2,2.454,2.454,0,0,1-.994-.2,2.682,2.682,0,0,1-.829-.565,2.65,2.65,0,0,1-.566-.839,2.523,2.523,0,0,1-.2-1,2.571,2.571,0,0,1,.2-1.024,2.65,2.65,0,0,1,.566-.838,2.682,2.682,0,0,1,.829-.565,2.454,2.454,0,0,1,.994-.2,2.593,2.593,0,0,1,1.014.2,2.622,2.622,0,0,1,.848.565,2.791,2.791,0,0,1,.575.838A2.471,2.471,0,0,1,28.3-25.935Zm17.569,10.92a5.38,5.38,0,0,0-2.018-1.716,5.847,5.847,0,0,0-2.428-.488,4.79,4.79,0,0,0-4.046,1.882,8.946,8.946,0,0,0-1.433,5.489A13.971,13.971,0,0,0,36.27-6.62a6.153,6.153,0,0,0,.936,2.184,3.717,3.717,0,0,0,1.511,1.248,4.932,4.932,0,0,0,2.028.4,5.378,5.378,0,0,0,2.867-.741,8.657,8.657,0,0,0,2.262-2.086ZM49.7-28.782V0h-2.3A.928.928,0,0,1,46.4-.761l-.332-2.282A10.5,10.5,0,0,1,43.192-.634a7.436,7.436,0,0,1-3.715.907A6.979,6.979,0,0,1,36.406-.39a6.466,6.466,0,0,1-2.35-1.94,9.258,9.258,0,0,1-1.5-3.169,16.264,16.264,0,0,1-.527-4.348,13.8,13.8,0,0,1,.585-4.095,9.792,9.792,0,0,1,1.7-3.276A8,8,0,0,1,37-19.393a7.87,7.87,0,0,1,3.569-.79,7.2,7.2,0,0,1,3.052.585,7.193,7.193,0,0,1,2.252,1.657V-28.782Z" transform="translate(272 466)" fill="#2e74ff"/>
    <path id="Path_74" data-name="Path 74" d="M-37.3-15.892h1.365a3.248,3.248,0,0,0,1.2-.185,2.1,2.1,0,0,0,.829-.634L-25-27.066a2.528,2.528,0,0,1,.877-.731A2.673,2.673,0,0,1-23.01-28h3.549L-29.835-16.068a4.991,4.991,0,0,1-.77.819,4.638,4.638,0,0,1-.79.527,3.853,3.853,0,0,1,1.872,1.5L-18.74,0h-3.608a3.364,3.364,0,0,1-.673-.058,1.863,1.863,0,0,1-.487-.166,1.665,1.665,0,0,1-.37-.263,1.923,1.923,0,0,1-.3-.37L-33.4-11.778a3.2,3.2,0,0,0-.39-.429,1.591,1.591,0,0,0-.448-.283,2.4,2.4,0,0,0-.585-.156,5.436,5.436,0,0,0-.78-.049h-1.7V0h-4.153V-28H-37.3Zm25.038-12.889V0h-3.822V-28.782ZM6.279-12.109A6.5,6.5,0,0,0,5.957-14.2a4.738,4.738,0,0,0-.946-1.658,4.3,4.3,0,0,0-1.521-1.092,5.143,5.143,0,0,0-2.067-.39A5.078,5.078,0,0,0-2.35-15.951a6.7,6.7,0,0,0-1.745,3.842ZM9.419-2.827A7.487,7.487,0,0,1,7.8-1.414a9.392,9.392,0,0,1-1.95.965A11.825,11.825,0,0,1,3.715.1,13.806,13.806,0,0,1,1.541.273,10.2,10.2,0,0,1-2.252-.419,8.43,8.43,0,0,1-5.275-2.447,9.25,9.25,0,0,1-7.264-5.762a13.421,13.421,0,0,1-.712-4.553,11.269,11.269,0,0,1,.643-3.851,9.268,9.268,0,0,1,1.843-3.11,8.5,8.5,0,0,1,2.935-2.086,9.62,9.62,0,0,1,3.9-.76,9.157,9.157,0,0,1,3.344.595A7.427,7.427,0,0,1,7.332-17.8a7.986,7.986,0,0,1,1.745,2.788,10.539,10.539,0,0,1,.634,3.783,2.412,2.412,0,0,1-.195,1.18.793.793,0,0,1-.721.3H-4.192a10.7,10.7,0,0,0,.507,3.091A6.24,6.24,0,0,0-2.447-4.465,4.92,4.92,0,0,0-.565-3.159a6.616,6.616,0,0,0,2.437.429,7.319,7.319,0,0,0,2.194-.293,10.638,10.638,0,0,0,1.6-.634Q6.338-4,6.8-4.29a1.561,1.561,0,0,1,.809-.293.837.837,0,0,1,.722.351ZM24.453-8.795a29.017,29.017,0,0,0-3.939.361,10.836,10.836,0,0,0-2.633.751,3.574,3.574,0,0,0-1.462,1.1,2.391,2.391,0,0,0-.448,1.414,3.067,3.067,0,0,0,.244,1.277,2.379,2.379,0,0,0,.663.878,2.659,2.659,0,0,0,.985.5,4.607,4.607,0,0,0,1.228.156A6.893,6.893,0,0,0,20.7-2.535a6.4,6.4,0,0,0,1.375-.5,6.914,6.914,0,0,0,1.229-.79,10.94,10.94,0,0,0,1.151-1.072ZM13.3-17.043A11.335,11.335,0,0,1,16.9-19.4a11.322,11.322,0,0,1,4.261-.78,7.614,7.614,0,0,1,3,.556,6.178,6.178,0,0,1,2.2,1.55A6.6,6.6,0,0,1,27.719-15.7a9.7,9.7,0,0,1,.458,3.062V0h-1.7a1.618,1.618,0,0,1-.858-.185,1.277,1.277,0,0,1-.468-.692l-.41-1.736a16.4,16.4,0,0,1-1.5,1.238,9.615,9.615,0,0,1-1.55.917,7.917,7.917,0,0,1-1.726.575,9.763,9.763,0,0,1-2.028.2A7.278,7.278,0,0,1,15.746-.01a4.927,4.927,0,0,1-1.784-.985,4.655,4.655,0,0,1-1.2-1.658,5.707,5.707,0,0,1-.439-2.32,4.4,4.4,0,0,1,.634-2.252,5.712,5.712,0,0,1,2.067-1.94,13.289,13.289,0,0,1,3.744-1.4,27.989,27.989,0,0,1,5.684-.624v-1.443A5.037,5.037,0,0,0,23.5-15.99,3.5,3.5,0,0,0,20.689-17.1a6.117,6.117,0,0,0-2.1.312,8.085,8.085,0,0,0-1.462.692q-.614.38-1.073.692a1.66,1.66,0,0,1-.946.312,1.081,1.081,0,0,1-.673-.215,1.787,1.787,0,0,1-.458-.507ZM36.874-16.01a9.066,9.066,0,0,1,2.3-3.061,4.918,4.918,0,0,1,3.237-1.111,4.93,4.93,0,0,1,1.219.146,3.139,3.139,0,0,1,1,.439l-.254,2.867a.618.618,0,0,1-.643.526,4.678,4.678,0,0,1-.819-.107,6.068,6.068,0,0,0-1.17-.107,4.593,4.593,0,0,0-1.618.263,3.781,3.781,0,0,0-1.258.78,5.311,5.311,0,0,0-.985,1.267,12.689,12.689,0,0,0-.8,1.706V0h-3.8V-19.812H35.47a1.207,1.207,0,0,1,.848.224,1.473,1.473,0,0,1,.322.79Z" transform="translate(370 466)" fill="#bfc1c7"/>
  </g>
</svg>
