<svg xmlns="http://www.w3.org/2000/svg" width="89.611" height="63.541" viewBox="0 0 89.611 63.541">
  <g id="Layer_2" data-name="Layer 2" transform="translate(0 -2.172)">
    <g id="Layer_1" data-name="Layer 1" transform="translate(0)">
      <path id="Path_8" data-name="Path 8" d="M7.805,217.281c0,.388-.229.512-.531.512H.554c-.372,0-.567-.1-.567-.565V206.012a.439.439,0,0,1,.495-.495H2.27c.388,0,.531.123.531.531v9.375h4.51a.451.451,0,0,1,.483.512Z" transform="translate(0.017 -155.922)" fill="#2e74ff"/>
      <path id="Path_9" data-name="Path 9" d="M39.113,207.993a1.384,1.384,0,0,1-1.433-1.327,1.45,1.45,0,1,1,1.433,1.327Zm1.344,9.128c0,.352-.159.512-.512.512H38.353c-.372,0-.548-.123-.548-.512v-7.642c0-.355.229-.461.548-.461h1.593c.335,0,.512.089.512.461Z" transform="translate(-28.584 -155.763)" fill="#2e74ff"/>
      <path id="Path_10" data-name="Path 10" d="M64.543,231.9c0,.355-.14.531-.495.531H62.4a.456.456,0,0,1-.512-.483v-3.861a3.453,3.453,0,0,1-2,.743,3.511,3.511,0,0,1-2.3-.743,4.8,4.8,0,0,1-1.5-3.839,4.874,4.874,0,0,1,1.291-3.521,3.581,3.581,0,0,1,2.548-.98,3.37,3.37,0,0,1,2.23.886l.036-.372c.017-.179.14-.285.458-.285h1.4c.391,0,.495.179.495.495Zm-2.654-9.322a2.654,2.654,0,0,0-1.477-.637c-1.291,0-1.556,1.238-1.556,2.316a3.068,3.068,0,0,0,.442,1.8,1.3,1.3,0,0,0,1.115.5A2.7,2.7,0,0,0,61.9,226Z" transform="translate(-42.551 -166.721)" fill="#2e74ff"/>
      <path id="Path_11" data-name="Path 11" d="M106.462,228.735c0,.444-.123.584-.548.584h-1.433c-.241,0-.458-.106-.483-.352l-.034-.372a4.541,4.541,0,0,1-2.83.965c-1.93,0-2.794-1.238-2.794-3.149v-5.251c0-.355.241-.461.548-.461h1.593c.335,0,.512.089.512.461v4.775c0,.724.212,1.238,1.009,1.238a2.987,2.987,0,0,0,1.8-.69v-5.323c0-.355.241-.461.548-.461h1.593c.335,0,.512.089.512.461Z" transform="translate(-74.606 -167.445)" fill="#2e74ff"/>
      <path id="Path_12" data-name="Path 12" d="M140.722,207.482a1.382,1.382,0,0,1-1.433-1.327,1.426,1.426,0,1,1,1.433,1.327Zm1.344,9.128c0,.352-.159.512-.514.512H139.96c-.369,0-.548-.123-.548-.512v-7.642c0-.355.241-.461.548-.461h1.593c.335,0,.514.089.514.461Z" transform="translate(-105.672 -155.252)" fill="#2e74ff"/>
      <path id="Path_13" data-name="Path 13" d="M166.233,216a.442.442,0,0,1-.483.483h-1.486c-.3,0-.442-.159-.458-.352l-.036-.372a3.426,3.426,0,0,1-2.247.965c-2.565,0-3.8-1.981-3.8-4.387,0-2.35,1.257-4.722,3.873-4.722a2.927,2.927,0,0,1,1.981.709v-3.733c0-.319.089-.483.425-.548l1.875-.241c.241,0,.355.142.355.388Zm-2.654-5.678a2.206,2.206,0,0,0-1.4-.567c-1.291,0-1.689,1.363-1.689,2.425s.3,2.386,1.643,2.386a2.331,2.331,0,0,0,1.448-.637Z" transform="translate(-119.658 -154.623)" fill="#2e74ff"/>
      <path id="Path_14" data-name="Path 14" d="M211.908,217.794h-2.227a1.052,1.052,0,0,1-.992-.512l-3.325-4.585h-.053v4.585c0,.372-.159.512-.512.512h-1.752c-.372,0-.548-.123-.548-.512v-11.3c0-.352.229-.458.548-.458h1.745c.335,0,.512.089.512.458V210.9h.053l3.137-5a.813.813,0,0,1,.76-.372h1.812c.241,0,.335.123.335.265a.56.56,0,0,1-.106.265l-3.68,5.412,4.457,5.678a.683.683,0,0,1,.159.355.3.3,0,0,1-.323.3Z" transform="translate(-153.632 -155.924)" fill="#bfc1c7"/>
      <path id="Path_15" data-name="Path 15" d="M250.951,216.036a.432.432,0,0,1-.461.483h-1.716a.437.437,0,0,1-.483-.483V204.574c0-.355.159-.461.425-.483l1.858-.241c.241,0,.372.159.372.444Z" transform="translate(-188.372 -154.661)" fill="#bfc1c7"/>
      <path id="Path_16" data-name="Path 16" d="M274.326,224.355c0,.425-.2.514-.637.514h-4.952a2.2,2.2,0,0,0,2.28,1.733,5.986,5.986,0,0,0,2.23-.458.461.461,0,0,1,.212-.053.285.285,0,0,1,.282.241,10.881,10.881,0,0,1,.335,1.38c0,.229-.157.3-.335.388a8.228,8.228,0,0,1-3.195.606,4.253,4.253,0,0,1-4.6-4.563,4.318,4.318,0,0,1,4.585-4.546,3.658,3.658,0,0,1,2.741,1.132,4.711,4.711,0,0,1,1.062,3.4Zm-2.6-1.168a1.4,1.4,0,0,0-1.363-1.537,1.637,1.637,0,0,0-1.593,1.537Z" transform="translate(-201.772 -166.606)" fill="#bfc1c7"/>
      <path id="Path_17" data-name="Path 17" d="M313.767,228.131a.386.386,0,0,1-.425.405H312.4c-1.042,0-1.467-.3-1.689-.813h-.036a3.8,3.8,0,0,1-2.476,1.042c-2.548,0-3.733-2.015-3.733-4.368,0-3.137,1.945-4.722,3.892-4.722a2.654,2.654,0,0,1,2.157.989l.053-.389a.391.391,0,0,1,.408-.355h1.59a.391.391,0,0,1,.425.425v6.1c0,.176.072.3.265.3h.142c.241,0,.372.087.372.352Zm-3.431-5.661a2.413,2.413,0,0,0-1.433-.6c-.866,0-1.689.707-1.689,2.353,0,1.1.282,2.413,1.626,2.413a2.205,2.205,0,0,0,1.486-.741Z" transform="translate(-230.997 -166.666)" fill="#bfc1c7"/>
      <path id="Path_18" data-name="Path 18" d="M351.623,222.757v5.289a.432.432,0,0,1-.483.483h-1.665a.439.439,0,0,1-.483-.483V220.44c0-.425.212-.514.512-.514h1.419c.338,0,.483.089.514.355l.034.531a2.549,2.549,0,0,1,2.213-1.132,2.515,2.515,0,0,1,.483.07c.241.053.241.229.2.425l-.265,1.663c-.036.2-.125.282-.285.282s-.265-.053-.565-.053A2.348,2.348,0,0,0,351.623,222.757Z" transform="translate(-264.774 -166.671)" fill="#bfc1c7"/>
      <path id="Path_19" data-name="Path 19" d="M133.271,45.422l-4.5-6.708a.331.331,0,0,0-.275-.145h-7.386V9.318A.328.328,0,0,0,120.774,9h-7.963a.328.328,0,0,0-.331.328V45.605a.331.331,0,0,0,.331.331H133a.333.333,0,0,0,.292-.174.338.338,0,0,0-.017-.34Z" transform="translate(-85.334 -6.828)" fill="#2e74ff"/>
      <path id="Path_20" data-name="Path 20" d="M173.733,45.415,158.347,23.686l14-14.135A.331.331,0,0,0,172.1,9h-9.971a.326.326,0,0,0-.241.1L148.28,23.534V34.052l4.194-4.242,10.7,15.979a.333.333,0,0,0,.275.147H173.46a.334.334,0,0,0,.273-.521Z" transform="translate(-112.496 -6.828)" fill="#bfc1c7"/>
    </g>
  </g>
</svg>
