<svg xmlns="http://www.w3.org/2000/svg" width="48.651" height="39.108" viewBox="0 0 48.651 39.108">
  <g id="Layer_2" data-name="Layer 2" transform="translate(-27.146)">
    <g id="Layer_1" data-name="Layer 1" transform="translate(0)">
      <path id="Path_19" data-name="Path 19" d="M133.271,45.422l-4.5-6.708a.331.331,0,0,0-.275-.145h-7.386V9.318A.328.328,0,0,0,120.774,9h-7.963a.328.328,0,0,0-.331.328V45.605a.331.331,0,0,0,.331.331H133a.333.333,0,0,0,.292-.174.338.338,0,0,0-.017-.34Z" transform="translate(-85.334 -6.828)" fill="#2e74ff"/>
      <path id="Path_20" data-name="Path 20" d="M173.733,45.415,158.347,23.686l14-14.135A.331.331,0,0,0,172.1,9h-9.971a.326.326,0,0,0-.241.1L148.28,23.534V34.052l4.194-4.242,10.7,15.979a.333.333,0,0,0,.275.147H173.46a.334.334,0,0,0,.273-.521Z" transform="translate(-112.496 -6.828)" fill="#bfc1c7"/>
      <path id="Path_21" data-name="Path 21" d="M267.239,0V.965h-1.882V6.274h-1.168V.965h-1.9V0Z" transform="translate(-198.995)" fill="#bfc1c7"/>
      <path id="Path_22" data-name="Path 22" d="M289.139,3.962c.041.1.084.2.123.3.041-.106.084-.208.128-.309s.089-.2.138-.292l1.86-3.48a.456.456,0,0,1,.07-.1.224.224,0,0,1,.082-.056.345.345,0,0,1,.1-.022h1.016V6.274h-1.03V1.984c0-.082.012-.181.019-.273l-1.9,3.562a.517.517,0,0,1-.171.188.422.422,0,0,1-.241.068h-.162a.437.437,0,0,1-.241-.068.511.511,0,0,1-.169-.188l-1.923-3.583c0,.1.019.188.024.28s0,.176,0,.256V6.274H285.84V0h1.016a.345.345,0,0,1,.1.022.241.241,0,0,1,.084.055.46.46,0,0,1,.075.1l1.875,3.489a2.859,2.859,0,0,1,.147.292Z" transform="translate(-216.862)" fill="#bfc1c7"/>
    </g>
  </g>
</svg>
