<svg xmlns="http://www.w3.org/2000/svg" width="512" height="487.434" viewBox="0 0 512 487.434">
  <g id="investment" transform="translate(0 -12.283)">
    <path id="Path_191" data-name="Path 191" d="M297.955,277.864a7.564,7.564,0,0,0-10.694,0L262.72,302.405V176.566a7.561,7.561,0,0,0-15.122,0v81.661l-33.152-33.153a7.562,7.562,0,0,0-10.694,10.694L247.6,279.615v79.7a7.561,7.561,0,1,0,15.122,0V323.793l35.235-35.235a7.562,7.562,0,0,0,0-10.694Z" fill="#93c6a4"/>
    <g id="Group_195" data-name="Group 195">
      <path id="Path_192" data-name="Path 192" d="M93.882,103.2l-8.561-4.509a6.807,6.807,0,0,0-9.194,9.194l4.509,8.561c10.9,20.7,18.177,43.022,22.661,65.981,3.013,15.427,11.492,31.478,24.958,44.944,26.484,26.483,62.973,33.691,85.039,17.935,1.806-1.29,1.56-7.258,3.16-8.857,2.031-2.031,5.766.285,7.3-2.073,14.419-22.189,6.955-57.659-18.944-83.558-13.465-13.465-29.517-21.945-44.944-24.958-22.96-4.483-45.284-11.759-65.982-22.66Z" fill="#c8ea73"/>
    </g>
    <g id="Group_196" data-name="Group 196">
      <path id="Path_193" data-name="Path 193" d="M76.127,107.889l4.509,8.561a223.881,223.881,0,0,1,15.308,37.068,264.712,264.712,0,0,0,28.913,7.352c15.427,3.013,31.478,11.492,44.944,24.958,20.1,20.1,29.078,45.958,25.358,66.9a42.967,42.967,0,0,0,23.25-11.756c21.139-21.14,15.05-61.5-13.6-90.155-13.465-13.465-29.517-21.945-44.944-24.958C136.9,121.38,114.58,114.1,93.882,103.2l-8.561-4.509a6.807,6.807,0,0,0-9.194,9.195Z" fill="#aad880"/>
    </g>
    <g id="Group_197" data-name="Group 197">
      <path id="Path_194" data-name="Path 194" d="M343.3,99.848a87.571,87.571,0,0,1-80.582,87.29c-2.3.182-5.526-3.513-7.876-3.513-2.737,0-4.55,3.662-7.223,3.417A87.568,87.568,0,1,1,343.3,99.848Z" fill="#ffe07d"/>
    </g>
    <g id="Group_198" data-name="Group 198">
      <path id="Path_195" data-name="Path 195" d="M302.809,26A87.578,87.578,0,0,1,181.89,146.919,87.572,87.572,0,1,0,302.809,26Z" fill="#ffd064"/>
    </g>
    <path id="Path_196" data-name="Path 196" d="M267.711,92.192c-1.642-.58-3.317-1.184-4.992-1.811V61.962a16.98,16.98,0,0,1,5.835,2.881l1.12.807c7.565,4.716,15.607-5.3,9.37-11.666a34.542,34.542,0,0,0-16.324-7.546V41.42a7.77,7.77,0,0,0-7.329-7.874A7.561,7.561,0,0,0,247.6,41.1v5.877c-.711.173-1.428.362-2.157.581a27.445,27.445,0,0,0-18.811,21.52c-1.788,9.487,1.276,18.655,7.994,23.925a62.122,62.122,0,0,0,12.973,7.517v36.9c-4.31-.465-7.365-1.71-12.214-4.859a7.773,7.773,0,0,0-10.553,1.808,7.561,7.561,0,0,0,2.035,10.691c8.1,5.3,13.739,7.035,20.731,7.544v5.663a7.77,7.77,0,0,0,7.329,7.874,7.561,7.561,0,0,0,7.793-7.558v-6.672c13.956-3.25,22.912-15.04,24.867-26.668,2.512-14.925-5.29-27.9-19.874-33.057ZM243.958,81.109c-2.226-1.746-3.194-5.367-2.467-9.226a12.962,12.962,0,0,1,6.107-8.9V83.557a33.857,33.857,0,0,1-3.64-2.448Zm28.715,41.636a18.064,18.064,0,0,1-9.953,13.261V106.468c11.108,3.955,10.428,13.456,9.953,16.277Z" fill="#ebb044"/>
    <g id="Group_201" data-name="Group 201">
      <g id="Group_200" data-name="Group 200">
        <g id="Group_199" data-name="Group 199">
          <path id="Path_197" data-name="Path 197" d="M220.807,495.228l88.316-41.865c7.409-3.512,15.506-5.334,55.681-5.334H406.27l-.542-66.124-180.614,1.031-55.078,39.022L58.64,363.582,36.77,352.121a25.11,25.11,0,0,0-24.416,43.867L31.372,407.21l145.82,86.044a46.567,46.567,0,0,0,43.615,1.974Z" fill="#ffcbbe"/>
        </g>
      </g>
    </g>
    <g id="Group_205" data-name="Group 205">
      <g id="Group_204" data-name="Group 204">
        <g id="Group_203" data-name="Group 203">
          <g id="Group_202" data-name="Group 202">
            <path id="Path_198" data-name="Path 198" d="M3.782,361.115a25.111,25.111,0,0,1,32.987-8.995l21.87,11.461A28.117,28.117,0,0,0,31.37,407.21L12.352,395.988a25.111,25.111,0,0,1-8.57-34.873Z" fill="#eaac9d"/>
          </g>
        </g>
      </g>
    </g>
    <g id="Group_206" data-name="Group 206">
      <path id="Path_199" data-name="Path 199" d="M405.728,381.9l-51.981.3v19.389a23.6,23.6,0,0,1-23.6,23.6H312.281c-40.176,0-48.272,1.822-55.681,5.334l-88.316,41.865a46.519,46.519,0,0,1-18.886,4.467l27.793,16.4a46.572,46.572,0,0,0,43.616,1.973l88.316-41.865c7.409-3.512,15.506-5.334,55.681-5.334H406.27Z" fill="#eaac9d"/>
    </g>
    <g id="Group_209" data-name="Group 209">
      <g id="Group_208" data-name="Group 208">
        <g id="Group_207" data-name="Group 207">
          <path id="Path_200" data-name="Path 200" d="M172.186,445.793l32.474-30.165a57.121,57.121,0,0,1,40.5-16.836H406.27v-70.02l-163.47.416a84.424,84.424,0,0,0-60.48,25.784L132.391,406a28.139,28.139,0,1,0,39.795,39.794Z" fill="#ffddce"/>
        </g>
      </g>
    </g>
    <g id="Group_210" data-name="Group 210">
      <path id="Path_201" data-name="Path 201" d="M353.747,328.906v69.886H406.27v-70.02Z" fill="#ffcbbe"/>
    </g>
    <g id="Group_213" data-name="Group 213">
      <g id="Group_212" data-name="Group 212">
        <g id="Group_211" data-name="Group 211">
          <path id="Path_202" data-name="Path 202" d="M393.3,461.937h56.931V314.552H393.3a10,10,0,0,0-10,10V451.937A10,10,0,0,0,393.3,461.937Z" fill="#f9f6f9"/>
        </g>
      </g>
    </g>
    <g id="Group_214" data-name="Group 214">
      <path id="Path_203" data-name="Path 203" d="M383.3,451.855a10.082,10.082,0,0,0,10.082,10.082h56.849V425.055H383.3Z" fill="#dddaec"/>
    </g>
    <g id="Group_215" data-name="Group 215">
      <path id="Path_204" data-name="Path 204" d="M502,475.263H438.953a10,10,0,0,1-10-10V311.226a10,10,0,0,1,10-10H502a10,10,0,0,1,10,10V465.263A10,10,0,0,1,502,475.263Z" fill="#407093"/>
    </g>
    <g id="Group_216" data-name="Group 216">
      <path id="Path_205" data-name="Path 205" d="M501.918,301.227H483.156V436.339a10.082,10.082,0,0,1-10.082,10.082H428.952v18.762a10.082,10.082,0,0,0,10.082,10.082h62.884A10.082,10.082,0,0,0,512,465.183V311.308A10.081,10.081,0,0,0,501.918,301.227Z" fill="#365e7d"/>
    </g>
    <g id="Group_217" data-name="Group 217">
      <circle id="Ellipse_43" data-name="Ellipse 43" cx="42.257" cy="42.257" r="42.257" transform="translate(305.989 116.335)" fill="#ffe07d"/>
    </g>
    <g id="Group_218" data-name="Group 218">
      <path id="Path_206" data-name="Path 206" d="M367.209,120.831a42.253,42.253,0,0,1-56.724,56.724,42.256,42.256,0,1,0,56.724-56.724Z" fill="#ffd064"/>
    </g>
    <g id="Group_219" data-name="Group 219">
      <path id="Path_207" data-name="Path 207" d="M424.862,164.089l4.509-8.561a6.807,6.807,0,0,0-9.194-9.194l-8.561,4.509c-20.7,10.9-43.022,18.177-65.981,22.661-15.427,3.013-31.478,11.492-44.944,24.958-26.219,26.219-33.545,62.245-18.4,84.373,1.4,2.053,7.04.34,8.835,2.135,1.914,1.914-.052,7.251,2.154,8.722,22.161,14.777,57.906,7.381,83.964-18.677,13.465-13.465,21.945-29.517,24.958-44.944,4.484-22.96,11.76-45.284,22.661-65.982Z" fill="#c8ea73"/>
    </g>
    <g id="Group_220" data-name="Group 220">
      <path id="Path_208" data-name="Path 208" d="M420.177,146.334l-8.561,4.509a223.88,223.88,0,0,1-37.068,15.308,264.71,264.71,0,0,0-7.352,28.913c-3.013,15.427-11.492,31.478-24.958,44.944-20.1,20.1-45.958,29.078-66.9,25.358a42.967,42.967,0,0,0,11.756,23.25c21.14,21.139,61.5,15.05,90.155-13.6,13.465-13.465,21.945-29.517,24.958-44.944,4.484-22.959,11.76-45.283,22.661-65.981l4.509-8.561a6.807,6.807,0,0,0-9.2-9.194Z" fill="#aad880"/>
    </g>
  </g>
</svg>
