<svg xmlns="http://www.w3.org/2000/svg" width="504.245" height="512" viewBox="0 0 504.245 512">
  <g id="deposit" transform="translate(-3.878)">
    <g id="Group_148" data-name="Group 148">
      <path id="Path_149" data-name="Path 149" d="M63.793,268.746,253.836,186.33a9.992,9.992,0,0,1,7.948,0l190.043,82.416Z" fill="#f9f6f9"/>
    </g>
    <g id="Group_149" data-name="Group 149">
      <path id="Path_150" data-name="Path 150" d="M160.8,268.746l95.021-41.208a4.992,4.992,0,0,1,3.974,0l95.022,41.208Z" fill="#d0cee7"/>
    </g>
    <g id="Group_150" data-name="Group 150">
      <path id="Path_151" data-name="Path 151" d="M259.8,227.538a4.992,4.992,0,0,0-3.974,0l-18.38,7.971,76.642,33.237h40.733Z" fill="#beb9dd"/>
    </g>
    <g id="Group_151" data-name="Group 151">
      <path id="Path_152" data-name="Path 152" d="M261.784,186.33a9.992,9.992,0,0,0-7.948,0l-16.865,7.314,173.178,75.1h41.678Z" fill="#dddaec"/>
    </g>
    <g id="Group_154" data-name="Group 154">
      <g id="Group_152" data-name="Group 152">
        <circle id="Ellipse_41" data-name="Ellipse 41" cx="59.949" cy="59.949" r="59.949" transform="translate(275.792 163.915)" fill="#ffe07d"/>
      </g>
      <g id="Group_153" data-name="Group 153">
        <path id="Path_153" data-name="Path 153" d="M367.967,173.306a59.958,59.958,0,0,1-82.784,82.784,59.954,59.954,0,1,0,82.784-82.784Z" fill="#ffd064"/>
      </g>
      <path id="Path_154" data-name="Path 154" d="M343.741,216.21c-4.806-1.7-10.1-3.738-12.947-5.968a4.227,4.227,0,0,1,2.385-5.705c4.806-1.449,7.352.611,8.091,1.025.837.469,1.679.992,1.679.992,7.6,3.9,14.655-6.064,8.453-11.937a21.892,21.892,0,0,0-8.506-4.557v-.354a7.7,7.7,0,0,0-7.26-7.8,7.491,7.491,0,0,0-7.721,7.487v1.121A19.1,19.1,0,0,0,315.767,205.1c-1.255,6.66.96,13.147,5.783,16.93,4.536,3.558,10.947,6.094,17.2,8.3,3.761,1.329,4.144,4.027,3.8,6.056a7.2,7.2,0,0,1-7.2,6.114c-4.909.04-6.164-.144-9.646-2.393a7.717,7.717,0,0,0-10.478,1.779,7.49,7.49,0,0,0,2.018,10.59,27.256,27.256,0,0,0,10.666,4.528v.443a7.7,7.7,0,0,0,7.26,7.8,7.491,7.491,0,0,0,7.722-7.487v-1.61a22.262,22.262,0,0,0,14.429-17.28c1.692-10.088-3.767-19.2-13.586-22.667Z" fill="#ebb044"/>
    </g>
    <g id="Group_157" data-name="Group 157">
      <g id="Group_155" data-name="Group 155">
        <circle id="Ellipse_42" data-name="Ellipse 42" cx="59.949" cy="59.949" r="59.949" transform="translate(137.4 59.889)" fill="#ffe07d"/>
      </g>
      <g id="Group_156" data-name="Group 156">
        <path id="Path_155" data-name="Path 155" d="M229.575,69.279a59.958,59.958,0,0,1-82.784,82.784,59.954,59.954,0,1,0,82.784-82.784Z" fill="#ffd064"/>
      </g>
      <path id="Path_156" data-name="Path 156" d="M205.348,112.469c-4.806-1.7-10.1-3.738-12.947-5.968a4.227,4.227,0,0,1,2.385-5.705c4.806-1.449,7.352.611,8.091,1.025.837.469,1.679.992,1.679.992,7.6,3.9,14.655-6.064,8.453-11.937a21.892,21.892,0,0,0-8.506-4.557v-.354a7.7,7.7,0,0,0-7.26-7.8,7.491,7.491,0,0,0-7.721,7.487v1.121a19.1,19.1,0,0,0-12.148,14.588c-1.255,6.66.96,13.147,5.783,16.93,4.536,3.558,10.947,6.094,17.2,8.305,3.761,1.329,4.144,4.027,3.8,6.056a7.2,7.2,0,0,1-7.2,6.114c-4.909.04-6.164-.144-9.646-2.393a7.717,7.717,0,0,0-10.478,1.779,7.49,7.49,0,0,0,2.018,10.59,27.255,27.255,0,0,0,10.666,4.528v.443a7.7,7.7,0,0,0,7.26,7.8,7.491,7.491,0,0,0,7.722-7.487v-1.61a22.262,22.262,0,0,0,14.429-17.28c1.693-10.088-3.766-19.2-13.586-22.667Z" fill="#ebb044"/>
    </g>
    <g id="Group_158" data-name="Group 158">
      <path id="Path_157" data-name="Path 157" d="M81.515,278.793H430.486V462.508H81.515Z" fill="#407093"/>
    </g>
    <g id="Group_159" data-name="Group 159">
      <path id="Path_158" data-name="Path 158" d="M383.378,278.793v75.064A64.546,64.546,0,0,1,318.832,418.4H81.515v44.105H430.486V278.793Z" fill="#365e7d"/>
    </g>
    <g id="Group_160" data-name="Group 160">
      <path id="Path_159" data-name="Path 159" d="M38.235,302.791h63.616V454.642H38.235Z" fill="#f9f6f9"/>
    </g>
    <g id="Group_161" data-name="Group 161">
      <path id="Path_160" data-name="Path 160" d="M80,302.791v90.7a28.376,28.376,0,0,1-28.376,28.376H38.235v32.77h63.616V302.791Z" fill="#d0cee7"/>
    </g>
    <g id="Group_162" data-name="Group 162">
      <path id="Path_161" data-name="Path 161" d="M69.451,407.13a7.491,7.491,0,0,1-7.491-7.491V367.256a7.491,7.491,0,0,1,14.982,0v32.383A7.491,7.491,0,0,1,69.451,407.13Z" fill="#dddaec"/>
    </g>
    <g id="Group_163" data-name="Group 163">
      <path id="Path_162" data-name="Path 162" d="M289.618,454.642H226l3.717-20.173L226,421.872V302.791h63.616Z" fill="#f9f6f9"/>
    </g>
    <g id="Group_164" data-name="Group 164">
      <path id="Path_163" data-name="Path 163" d="M267.769,302.791v90.7a28.376,28.376,0,0,1-28.376,28.376H226v32.77h63.616V302.791Z" fill="#d0cee7"/>
    </g>
    <g id="Group_165" data-name="Group 165">
      <path id="Path_164" data-name="Path 164" d="M257.218,407.13a7.491,7.491,0,0,1-7.491-7.491V367.256a7.491,7.491,0,1,1,14.982,0v32.383A7.491,7.491,0,0,1,257.218,407.13Z" fill="#dddaec"/>
    </g>
    <g id="Group_166" data-name="Group 166">
      <path id="Path_165" data-name="Path 165" d="M473.765,454.642H410.149l4.726-18.392-4.726-14.378V302.791h63.616Z" fill="#f9f6f9"/>
    </g>
    <g id="Group_167" data-name="Group 167">
      <path id="Path_166" data-name="Path 166" d="M451.915,302.791v90.7a28.376,28.376,0,0,1-28.376,28.376H410.148v32.77h63.616V302.791Z" fill="#d0cee7"/>
    </g>
    <g id="Group_168" data-name="Group 168">
      <path id="Path_167" data-name="Path 167" d="M441.364,407.13a7.491,7.491,0,0,1-7.491-7.491V367.256a7.491,7.491,0,0,1,14.982,0v32.383A7.49,7.49,0,0,1,441.364,407.13Z" fill="#dddaec"/>
    </g>
    <g id="Group_169" data-name="Group 169">
      <path id="Path_168" data-name="Path 168" d="M106.51,291.87H34.194c-16.182,0-29.861,12.688-30.305,28.864a29.7,29.7,0,0,0,57.3,11.774,4.022,4.022,0,0,1,3.72-2.59H75.183a4.008,4.008,0,0,1,3.711,2.577A29.7,29.7,0,1,0,106.51,291.87Z" fill="#d0cee7"/>
    </g>
    <g id="Group_171" data-name="Group 171">
      <g id="Group_170" data-name="Group 170">
        <path id="Path_169" data-name="Path 169" d="M108.659,291.956A29.689,29.689,0,0,1,85.44,337.78a30.3,30.3,0,0,1-3.818-.053,29.687,29.687,0,1,0,27.037-45.771Z" fill="#beb9dd"/>
      </g>
    </g>
    <g id="Group_172" data-name="Group 172">
      <path id="Path_170" data-name="Path 170" d="M294.277,291.87H221.961c-16.182,0-29.861,12.688-30.3,28.864a29.7,29.7,0,0,0,57.3,11.774,4.022,4.022,0,0,1,3.72-2.59H262.95a4.008,4.008,0,0,1,3.711,2.577,29.7,29.7,0,1,0,27.616-40.625Z" fill="#d0cee7"/>
    </g>
    <g id="Group_174" data-name="Group 174">
      <g id="Group_173" data-name="Group 173">
        <path id="Path_171" data-name="Path 171" d="M296.426,291.956a29.689,29.689,0,0,1-23.219,45.824,30.3,30.3,0,0,1-3.818-.053,29.687,29.687,0,1,0,27.037-45.771Z" fill="#beb9dd"/>
      </g>
    </g>
    <g id="Group_175" data-name="Group 175">
      <path id="Path_172" data-name="Path 172" d="M478.424,291.87H406.108c-16.182,0-29.861,12.688-30.3,28.864a29.7,29.7,0,0,0,57.3,11.774,4.022,4.022,0,0,1,3.72-2.59H447.1a4.008,4.008,0,0,1,3.711,2.577,29.7,29.7,0,1,0,27.616-40.625Z" fill="#d0cee7"/>
    </g>
    <g id="Group_177" data-name="Group 177">
      <g id="Group_176" data-name="Group 176">
        <path id="Path_173" data-name="Path 173" d="M480.572,291.956a29.689,29.689,0,0,1-23.219,45.824,30.3,30.3,0,0,1-3.818-.053,29.687,29.687,0,1,0,27.037-45.771Z" fill="#beb9dd"/>
      </g>
    </g>
    <g id="Group_178" data-name="Group 178">
      <path id="Path_174" data-name="Path 174" d="M186.547,452.548H137.4V413.036a26.533,26.533,0,0,1,15.135-23.964c3.452-1.644,34.012,9.313,34.012,23.964Z" fill="#c6865c"/>
    </g>
    <g id="Group_179" data-name="Group 179">
      <path id="Path_175" data-name="Path 175" d="M374.141,452.548H323.357V413.036a26.533,26.533,0,0,1,15.135-23.964c3.452-1.644,35.579,9.313,35.579,23.964Z" fill="#c6865c"/>
    </g>
    <path id="Path_176" data-name="Path 176" d="M163.927,386.508a26.418,26.418,0,0,0-11.391,2.566,26.527,26.527,0,0,1,15.137,23.961v39.512h22.781V413.035A26.528,26.528,0,0,0,163.927,386.508Z" fill="#b16e3d"/>
    <path id="Path_177" data-name="Path 177" d="M349.883,386.508a26.418,26.418,0,0,0-11.391,2.566,26.527,26.527,0,0,1,15.137,23.961v39.512H376.41V413.035A26.526,26.526,0,0,0,349.883,386.508Z" fill="#b16e3d"/>
    <g id="Group_180" data-name="Group 180">
      <path id="Path_178" data-name="Path 178" d="M487.467,486.1H24.533V450.035a4,4,0,0,1,4-4H483.467a4,4,0,0,1,4,4Z" fill="#f9f6f9"/>
    </g>
    <g id="Group_181" data-name="Group 181">
      <path id="Path_179" data-name="Path 179" d="M487.467,486.1H24.533V450.035a4,4,0,0,1,4-4H483.467a4,4,0,0,1,4,4Z" fill="#f9f6f9"/>
    </g>
    <g id="Group_182" data-name="Group 182">
      <path id="Path_180" data-name="Path 180" d="M483.472,446.034H470.613v12.478a4,4,0,0,1-3.995,3.995H24.533v23.6H487.466V450.029a3.994,3.994,0,0,0-3.994-3.995Z" fill="#dddaec"/>
    </g>
    <g id="Group_183" data-name="Group 183">
      <path id="Path_181" data-name="Path 181" d="M504.122,512H7.878a4,4,0,0,1-4-4V483.054a4,4,0,0,1,4-4H504.122a4,4,0,0,1,4,4V508A4,4,0,0,1,504.122,512Z" fill="#d0cee7"/>
    </g>
    <g id="Group_184" data-name="Group 184">
      <path id="Path_182" data-name="Path 182" d="M504.127,479.054H492.16v12.989a4,4,0,0,1-3.995,3.995H3.878V508A4,4,0,0,0,7.873,512H504.127A4,4,0,0,0,508.122,508V483.048a4,4,0,0,0-3.995-3.994Z" fill="#beb9dd"/>
    </g>
    <g id="Group_185" data-name="Group 185">
      <path id="Path_183" data-name="Path 183" d="M482.467,257.131H29.533a5,5,0,0,0-5,5v26.306a5,5,0,0,0,5,5H482.467a5,5,0,0,0,5-5V262.131A5,5,0,0,0,482.467,257.131Z" fill="#f9f6f9"/>
    </g>
    <g id="Group_186" data-name="Group 186">
      <path id="Path_184" data-name="Path 184" d="M482.473,257.131H464.436V273.4a4.994,4.994,0,0,1-4.994,4.994H24.533v10.047a4.994,4.994,0,0,0,4.994,4.994H482.473a4.994,4.994,0,0,0,4.994-4.994V262.126a4.994,4.994,0,0,0-4.994-4.995Z" fill="#dddaec"/>
    </g>
    <g id="Group_190" data-name="Group 190">
      <g id="Group_187" data-name="Group 187">
        <path id="Path_185" data-name="Path 185" d="M162.92,46.631a7.491,7.491,0,0,1-7.491-7.491V17.519a7.491,7.491,0,1,1,14.982,0V39.14A7.491,7.491,0,0,1,162.92,46.631Z" fill="#dde9f7"/>
      </g>
      <g id="Group_188" data-name="Group 188">
        <path id="Path_186" data-name="Path 186" d="M231.777,46.631a7.491,7.491,0,0,1-7.491-7.491V17.519a7.491,7.491,0,1,1,14.982,0V39.14A7.491,7.491,0,0,1,231.777,46.631Z" fill="#dde9f7"/>
      </g>
      <g id="Group_189" data-name="Group 189">
        <path id="Path_187" data-name="Path 187" d="M197.349,36.6a7.491,7.491,0,0,1-7.491-7.491V7.491a7.491,7.491,0,1,1,14.982,0V29.112A7.491,7.491,0,0,1,197.349,36.6Z" fill="#dde9f7"/>
      </g>
    </g>
    <g id="Group_194" data-name="Group 194">
      <g id="Group_191" data-name="Group 191">
        <path id="Path_188" data-name="Path 188" d="M301.313,150.133a7.491,7.491,0,0,1-7.491-7.491V121.021a7.491,7.491,0,0,1,14.982,0v21.621A7.491,7.491,0,0,1,301.313,150.133Z" fill="#dde9f7"/>
      </g>
      <g id="Group_192" data-name="Group 192">
        <path id="Path_189" data-name="Path 189" d="M370.169,150.133a7.491,7.491,0,0,1-7.491-7.491V121.021a7.491,7.491,0,0,1,14.982,0v21.621A7.491,7.491,0,0,1,370.169,150.133Z" fill="#dde9f7"/>
      </g>
      <g id="Group_193" data-name="Group 193">
        <path id="Path_190" data-name="Path 190" d="M335.741,140.1a7.491,7.491,0,0,1-7.491-7.491V110.993a7.491,7.491,0,1,1,14.982,0v21.621A7.491,7.491,0,0,1,335.741,140.1Z" fill="#dde9f7"/>
      </g>
    </g>
  </g>
</svg>
