<svg xmlns="http://www.w3.org/2000/svg" width="512.001" height="486.912" viewBox="0 0 512.001 486.912">
  <g id="analytics_1_" data-name="analytics (1)" transform="translate(0 -12.544)">
    <g id="Group_221" data-name="Group 221">
      <path id="Path_209" data-name="Path 209" d="M405.353,122.915a7.444,7.444,0,0,1-3.73-1L256,37.838,110.377,121.913a7.473,7.473,0,0,1-7.474-12.944l149.36-86.233a7.475,7.475,0,0,1,7.474,0L409.1,108.969a7.474,7.474,0,0,1-3.744,13.946Z" fill="#407093"/>
    </g>
    <g id="Group_222" data-name="Group 222">
      <path id="Path_210" data-name="Path 210" d="M20.55,104.671h470.9V385.729H20.55Z" fill="#f9f6f9"/>
    </g>
    <path id="Path_211" data-name="Path 211" d="M166.154,144.442c-1.466,0-4.373,4.829-4.373,4.829v44.578s2.894,4.089,4.373,4.089a39.152,39.152,0,1,1-32.877,60.388c-.559-.863-5.386-.915-5.386-.915L88.923,282.982s-1.178,3.418-.567,4.36a92.635,92.635,0,1,0,77.8-142.9Z" fill="#407093"/>
    <path id="Path_212" data-name="Path 212" d="M302.7,184.568c-.171,1.592-3.264,3.206-3.264,4.843a44.841,44.841,0,1,0,89.682,0c0-1.637-3.093-3.251-3.264-4.843Z" fill="#407093"/>
    <g id="Group_223" data-name="Group 223">
      <circle id="Ellipse_44" data-name="Ellipse 44" cx="18.497" cy="18.497" r="18.497" transform="translate(237.503 12.544)" fill="#d0cee7"/>
    </g>
    <g id="Group_224" data-name="Group 224">
      <path id="Path_213" data-name="Path 213" d="M259.639,12.906a18.487,18.487,0,0,1-20.834,24.919,18.491,18.491,0,1,0,20.834-24.919Z" fill="#beb9dd"/>
    </g>
    <g id="Group_225" data-name="Group 225">
      <path id="Path_214" data-name="Path 214" d="M455.717,104.671V317.366a16.412,16.412,0,0,1-16.412,16.412H20.55V385.73h470.9V104.671Z" fill="#dddaec"/>
    </g>
    <path id="Path_215" data-name="Path 215" d="M263.474,452.348V398.937H248.527v53.411a24.15,24.15,0,1,0,14.947,0ZM256,484.509a9.2,9.2,0,1,1,9.2-9.2A9.212,9.212,0,0,1,256,484.509Z" fill="#ce9875"/>
    <g id="Group_226" data-name="Group 226">
      <path id="Path_216" data-name="Path 216" d="M506.1,411.793H5.9a5,5,0,0,1-5-5V374.51a5,5,0,0,1,5-5H506.1a5,5,0,0,1,5,5v32.283A5,5,0,0,1,506.1,411.793Z" fill="#ce9875"/>
    </g>
    <g id="Group_227" data-name="Group 227">
      <path id="Path_217" data-name="Path 217" d="M506.115,369.51H490.562v16.765a4.982,4.982,0,0,1-4.982,4.982H.9V406.81a4.982,4.982,0,0,0,4.982,4.982H506.114a4.982,4.982,0,0,0,4.982-4.982V374.492a4.981,4.981,0,0,0-4.981-4.982Z" fill="#c6865c"/>
    </g>
    <g id="Group_228" data-name="Group 228">
      <path id="Path_218" data-name="Path 218" d="M504.526,112.145H7.474a7.474,7.474,0,1,1,0-14.948H504.527a7.474,7.474,0,1,1,0,14.948Z" fill="#ce9875"/>
    </g>
    <g id="Group_230" data-name="Group 230">
      <g id="Group_229" data-name="Group 229">
        <path id="Path_219" data-name="Path 219" d="M222.528,163.621A92.6,92.6,0,0,1,92.684,293.465,92.613,92.613,0,1,0,222.528,163.621Z" fill="#365e7d"/>
      </g>
    </g>
    <g id="Group_231" data-name="Group 231">
      <path id="Path_220" data-name="Path 220" d="M429.48,288.983H348.766a7.474,7.474,0,0,1,0-14.948H429.48a7.474,7.474,0,0,1,0,14.948Z" fill="#beb9dd"/>
    </g>
    <g id="Group_232" data-name="Group 232">
      <circle id="Ellipse_45" data-name="Ellipse 45" cx="12.355" cy="12.355" r="12.355" transform="translate(299.44 269.154)" fill="#beb9dd"/>
    </g>
    <g id="Group_233" data-name="Group 233">
      <path id="Path_221" data-name="Path 221" d="M429.48,327.1H348.766a7.474,7.474,0,0,1,0-14.948H429.48a7.474,7.474,0,0,1,0,14.948Z" fill="#beb9dd"/>
    </g>
    <g id="Group_234" data-name="Group 234">
      <circle id="Ellipse_46" data-name="Ellipse 46" cx="12.355" cy="12.355" r="12.355" transform="translate(299.44 307.269)" fill="#beb9dd"/>
    </g>
    <g id="Group_235" data-name="Group 235">
      <path id="Path_222" data-name="Path 222" d="M344.281,144.57a44.841,44.841,0,0,0-44.841,44.841h89.683c0-8.169-11.957-11.756-15.774-18.352-4.773-8.249-2.326-18.908-11.123-22.754A44.692,44.692,0,0,0,344.281,144.57Z" fill="#80b4fb"/>
    </g>
    <path id="Path_223" data-name="Path 223" d="M372.1,184.568a44.841,44.841,0,0,1-66.384,27.716,44.84,44.84,0,0,0,83.408-22.872c0-1.639-3.112-3.25-3.283-4.843H372.1Z" fill="#365e7d"/>
    <g id="Group_236" data-name="Group 236">
      <path id="Path_224" data-name="Path 224" d="M362.222,148.314l-17.941,41.1h44.841A44.843,44.843,0,0,0,362.222,148.314Z" fill="#c8ea73"/>
    </g>
    <g id="Group_237" data-name="Group 237">
      <path id="Path_225" data-name="Path 225" d="M373.428,173.717a44.73,44.73,0,0,1-2.83,15.694h18.524a44.8,44.8,0,0,0-21.96-38.553A44.62,44.62,0,0,1,373.428,173.717Z" fill="#aad880"/>
    </g>
    <path id="Path_226" data-name="Path 226" d="M123.812,230.74H79.656s-6.151,4.216-6.151,6.351a92.105,92.105,0,0,0,14.849,50.254l44.93-29.022A38.907,38.907,0,0,1,127,237.091C127,234.928,123.812,230.74,123.812,230.74Z" fill="#ffd064"/>
    <g id="Group_238" data-name="Group 238">
      <path id="Path_227" data-name="Path 227" d="M166.154,197.938v-53.5a92.754,92.754,0,0,0-92.649,92.649H127A39.2,39.2,0,0,1,166.154,197.938Z" fill="#dd636e"/>
    </g>
  </g>
</svg>
