<svg xmlns="http://www.w3.org/2000/svg" width="75" height="75.258" viewBox="0 0 75 75.258">
  <g id="apple_1_" data-name="apple (1)" transform="translate(-0.379 0.104)">
    <circle id="Ellipse_67" data-name="Ellipse 67" cx="37.5" cy="37.5" r="37.5" transform="translate(0.379 -0.104)" fill="#316cff"/>
    <path id="Path_285" data-name="Path 285" d="M174.254,68.213l9.846,9.811-22.718,28.86,16.8,15.912a37.617,37.617,0,0,0,34.722-37.5c0-.485-.012-.968-.03-1.449L184.914,55.888Z" transform="translate(-137.636 -47.642)" fill="#2457d8"/>
    <path id="Path_286" data-name="Path 286" d="M114.092,184.524c-1.509-.059-3.762-1.7-4.739-2.811a33.645,33.645,0,0,1-5.972-9.469,31.529,31.529,0,0,1-2.566-12.444,17.814,17.814,0,0,1,2.2-8.829,13,13,0,0,1,8.586-6.472,8.826,8.826,0,0,1,4.574-.051c1.514.448,3.005.977,4.491,1.514a5.03,5.03,0,0,0,3.9.217c.888-.385,1.811-.688,2.72-1.022a14.619,14.619,0,0,1,4.6-1.1,13.231,13.231,0,0,1,8.484,2.524,10.96,10.96,0,0,1,2.641,2.785c-.1.075-.176.138-.257.193a13.688,13.688,0,0,0-2.882,2.653,11.35,11.35,0,0,0-2.455,9.256,11.157,11.157,0,0,0,3.085,6.217,16.067,16.067,0,0,0,4.094,2.83c-.232.55-.687,1.439-.908,1.994a30.593,30.593,0,0,1-3.708,6.624,18.948,18.948,0,0,1-3.584,4.051,6.371,6.371,0,0,1-4.493,1.429,10.343,10.343,0,0,1-3.642-1.028,10.488,10.488,0,0,0-7.785-.569c-.665.208-1.292.535-1.955.75A17.416,17.416,0,0,1,114.092,184.524Z" transform="translate(-85.966 -122.848)" fill="#fff"/>
    <g id="Group_270" data-name="Group 270" transform="translate(36.535 8.246)">
      <path id="Path_287" data-name="Path 287" d="M267.245,167.683a11.156,11.156,0,0,1-3.085-6.217,11.35,11.35,0,0,1,2.455-9.256,13.688,13.688,0,0,1,2.882-2.653c.081-.056.157-.118.257-.193a10.96,10.96,0,0,0-2.641-2.785,13.233,13.233,0,0,0-8.484-2.524,14.624,14.624,0,0,0-4.6,1.1c-.909.335-1.833.638-2.72,1.022a3.8,3.8,0,0,1-1.928.289v36.1A10.675,10.675,0,0,1,255,183.583a10.342,10.342,0,0,0,3.642,1.028,6.371,6.371,0,0,0,4.493-1.429,18.948,18.948,0,0,0,3.584-4.051,30.592,30.592,0,0,0,3.708-6.624c.221-.555.676-1.444.908-1.994A16.068,16.068,0,0,1,267.245,167.683Z" transform="translate(-249.241 -131.094)" fill="#ccc"/>
      <path id="Path_288" data-name="Path 288" d="M259.161,55.888a17.715,17.715,0,0,1-.038,2.548,11.777,11.777,0,0,1-4.359,7.61,8.869,8.869,0,0,1-6.263,2.167,7.563,7.563,0,0,1,.094-2.758,11.971,11.971,0,0,1,5.2-7.644,11.408,11.408,0,0,1,4.7-1.845C258.575,55.953,259.019,55.888,259.161,55.888Z" transform="translate(-248.417 -55.888)" fill="#ccc"/>
    </g>
  </g>
</svg>
