<svg xmlns="http://www.w3.org/2000/svg" width="453.083" height="512" viewBox="0 0 453.083 512">
  <g id="wallet" transform="translate(-29.458)">
    <g id="Group_72" data-name="Group 72">
      <path id="Path_68" data-name="Path 68" d="M438.437,186.26,301.045,386.979a14,14,0,0,1-19.461,3.645L125.511,283.791a14,14,0,0,1-3.645-19.461L259.259,63.612a14,14,0,0,1,19.461-3.645L434.793,166.8a14,14,0,0,1,3.644,19.461Z" fill="#c8ea73"/>
    </g>
    <path id="Path_69" data-name="Path 69" d="M434.792,166.8,278.719,59.967a14,14,0,0,0-19.461,3.645l-5.49,8.021L400.914,172.355a14,14,0,0,1,3.645,19.461l-131.9,192.7,8.927,6.11a14,14,0,0,0,19.46-3.645L438.437,186.26A14,14,0,0,0,434.792,166.8Z" fill="#aad880"/>
    <path id="Path_70" data-name="Path 70" d="M478.441,192.285,344.7,58.547a14,14,0,0,0-19.8,0L305.293,78.158l-.814,15.224L288.422,95.03,124.732,258.72H431.806l46.635-46.635A14,14,0,0,0,478.441,192.285Z" fill="#c8ea73"/>
    <g id="Group_73" data-name="Group 73">
      <path id="Path_71" data-name="Path 71" d="M478.441,192.285,344.7,58.547a14,14,0,0,0-19.8,0l-7.228,7.228,126.51,126.51a14,14,0,0,1,0,19.8l-46.635,46.635h34.256l46.635-46.635A14,14,0,0,0,478.441,192.285Z" fill="#aad880"/>
      <path id="Path_72" data-name="Path 72" d="M357.86,258.718a33.176,33.176,0,0,0-.658-11.2c-2.094-7.842-8.616-14.06-12.773-21.251-4.018-6.95-6.084-15.734-12.031-21.68s-14.73-8.012-21.68-12.03c-7.191-4.158-13.408-10.68-21.25-12.773-7.955-2.124-16.613.46-24.792.46-4.553,0-9.254-.8-13.9-1.141a2.029,2.029,0,0,1-1.308-3.456L303.9,121.213a5.051,5.051,0,0,1,5.272-1.195,75.822,75.822,0,0,0,79.236-17.761L344.7,58.548a14,14,0,0,0-19.8,0L124.732,258.718Z" fill="#aad880"/>
      <path id="Path_73" data-name="Path 73" d="M478.441,192.285l-43.71-43.71a75.82,75.82,0,0,0-17.824,79.054,5.07,5.07,0,0,1-1.19,5.285l-25.8,25.805h41.894l46.635-46.635a14,14,0,0,0,0-19.8Z" fill="#aad880"/>
    </g>
    <path id="Path_74" data-name="Path 74" d="M478.441,192.285l-43.71-43.71A75.715,75.715,0,0,0,420.4,168.5l23.786,23.786a14,14,0,0,1,0,19.8L397.55,258.719h34.256l46.635-46.635a14,14,0,0,0,0-19.8Z" fill="#93c8a5"/>
    <g id="Group_74" data-name="Group 74">
      <path id="Path_75" data-name="Path 75" d="M368.488,116.588a75.734,75.734,0,0,0,19.924-14.331L344.7,58.548a14,14,0,0,0-19.8,0l-7.228,7.228Z" fill="#93c8a5"/>
    </g>
    <g id="Group_75" data-name="Group 75">
      <circle id="Ellipse_32" data-name="Ellipse 32" cx="54.329" cy="54.329" r="54.329" transform="translate(114.218 174.32)" fill="#ffe07d"/>
    </g>
    <g id="Group_76" data-name="Group 76">
      <circle id="Ellipse_33" data-name="Ellipse 33" cx="54.329" cy="54.329" r="54.329" transform="translate(42.732 57.69)" fill="#ffe07d"/>
    </g>
    <g id="Group_77" data-name="Group 77">
      <path id="Path_76" data-name="Path 76" d="M191.733,179.511a54.338,54.338,0,0,1-72.324,72.324,54.332,54.332,0,1,0,72.324-72.324Z" fill="#ffd064"/>
    </g>
    <g id="Group_78" data-name="Group 78">
      <path id="Path_77" data-name="Path 77" d="M120.247,62.882a54.338,54.338,0,0,1-72.324,72.324,54.332,54.332,0,1,0,72.324-72.324Z" fill="#ffd064"/>
    </g>
    <g id="Group_79" data-name="Group 79">
      <circle id="Ellipse_34" data-name="Ellipse 34" cx="33.229" cy="33.229" r="33.229" transform="translate(166.589 0)" fill="#ffe07d"/>
    </g>
    <g id="Group_80" data-name="Group 80">
      <path id="Path_78" data-name="Path 78" d="M210.7,1.833a33.227,33.227,0,0,1-42.278,42.278A33.229,33.229,0,1,0,210.7,1.833Z" fill="#ffd064"/>
    </g>
    <g id="Group_81" data-name="Group 81">
      <path id="Path_79" data-name="Path 79" d="M97.061,142.088a30.069,30.069,0,1,1,30.069-30.069A30.1,30.1,0,0,1,97.061,142.088Zm0-44.892a14.823,14.823,0,1,0,14.823,14.823A14.841,14.841,0,0,0,97.061,97.2Z" fill="#ffd064"/>
    </g>
    <path id="Path_80" data-name="Path 80" d="M83.656,138.924a30.051,30.051,0,0,0,40.309-40.31A54.388,54.388,0,0,1,83.656,138.924Z" fill="#ebb044"/>
    <g id="Group_82" data-name="Group 82">
      <path id="Path_81" data-name="Path 81" d="M168.546,258.718a30.07,30.07,0,1,1,30.07-30.069,30.1,30.1,0,0,1-30.07,30.069Zm0-44.893a14.824,14.824,0,1,0,14.824,14.824A14.84,14.84,0,0,0,168.546,213.825Z" fill="#ffd064"/>
    </g>
    <path id="Path_82" data-name="Path 82" d="M155.142,255.554a30.05,30.05,0,0,0,40.31-40.309,54.392,54.392,0,0,1-40.31,40.309Z" fill="#ebb044"/>
    <g id="Group_83" data-name="Group 83">
      <path id="Path_83" data-name="Path 83" d="M415.912,512H59.1a29.638,29.638,0,0,1-29.638-29.638V264.489A29.638,29.638,0,0,1,59.1,234.851H415.912a29.638,29.638,0,0,1,29.638,29.638V482.361A29.638,29.638,0,0,1,415.912,512Z" fill="#316cff"/>
    </g>
    <path id="Path_84" data-name="Path 84" d="M415.912,234.851H386.5V423.315a29.638,29.638,0,0,1-29.638,29.638H29.458v29.408A29.638,29.638,0,0,0,59.1,512H415.911a29.638,29.638,0,0,0,29.638-29.638V264.489a29.637,29.637,0,0,0-29.637-29.638Z" fill="#1755ef"/>
    <g id="Group_84" data-name="Group 84">
      <path id="Path_85" data-name="Path 85" d="M404.895,301.933a7.623,7.623,0,0,1-7.623-7.623V293.8A10.684,10.684,0,0,0,386.6,283.13h-.508a7.623,7.623,0,0,1,0-15.246h.508A25.948,25.948,0,0,1,412.518,293.8v.508a7.624,7.624,0,0,1-7.623,7.623Z" fill="#fff"/>
    </g>
    <g id="Group_85" data-name="Group 85">
      <path id="Path_86" data-name="Path 86" d="M404.895,431.663a7.623,7.623,0,0,1-7.623-7.623V387.676a7.623,7.623,0,1,1,15.246,0V424.04a7.624,7.624,0,0,1-7.623,7.623Zm0-64.865a7.623,7.623,0,0,1-7.623-7.623V322.811a7.623,7.623,0,1,1,15.246,0v36.364a7.624,7.624,0,0,1-7.623,7.623Z" fill="#fff"/>
    </g>
    <g id="Group_86" data-name="Group 86">
      <path id="Path_87" data-name="Path 87" d="M386.6,478.968h-.508a7.623,7.623,0,0,1,0-15.246h.508a10.684,10.684,0,0,0,10.672-10.672v-.508a7.623,7.623,0,0,1,15.246,0v.508A25.948,25.948,0,0,1,386.6,478.968Z" fill="#fff"/>
    </g>
    <g id="Group_87" data-name="Group 87">
      <path id="Path_88" data-name="Path 88" d="M356.679,478.968H319.152a7.623,7.623,0,1,1,0-15.246h37.527a7.623,7.623,0,0,1,0,15.246Zm-66.941,0H252.211a7.623,7.623,0,1,1,0-15.246h37.527a7.623,7.623,0,0,1,0,15.246Zm-66.94,0H185.271a7.623,7.623,0,1,1,0-15.246H222.8a7.623,7.623,0,1,1,0,15.246Zm-66.94,0H118.331a7.623,7.623,0,1,1,0-15.246h37.527a7.623,7.623,0,1,1,0,15.246Z" fill="#fff"/>
    </g>
    <g id="Group_88" data-name="Group 88">
      <path id="Path_89" data-name="Path 89" d="M88.917,478.968h-.508A25.948,25.948,0,0,1,62.491,453.05v-.508a7.623,7.623,0,0,1,15.246,0v.508a10.684,10.684,0,0,0,10.672,10.672h.508a7.623,7.623,0,1,1,0,15.246Z" fill="#fff"/>
    </g>
    <path id="Path_90" data-name="Path 90" d="M386.6,267.884h-.1V283.13h.1A10.684,10.684,0,0,1,397.271,293.8v.508a7.623,7.623,0,1,0,15.246,0V293.8A25.947,25.947,0,0,0,386.6,267.884Z" fill="#fff"/>
    <g id="Group_89" data-name="Group 89">
      <path id="Path_91" data-name="Path 91" d="M70.114,431.663a7.623,7.623,0,0,1-7.623-7.623V387.676a7.623,7.623,0,0,1,15.246,0V424.04a7.623,7.623,0,0,1-7.623,7.623Zm0-64.865a7.623,7.623,0,0,1-7.623-7.623V322.811a7.623,7.623,0,0,1,15.246,0v36.364a7.623,7.623,0,0,1-7.623,7.623Z" fill="#fff"/>
    </g>
    <g id="Group_90" data-name="Group 90">
      <path id="Path_92" data-name="Path 92" d="M70.114,301.933a7.623,7.623,0,0,1-7.623-7.623V293.8a25.948,25.948,0,0,1,25.918-25.918h.508a7.623,7.623,0,1,1,0,15.246h-.508A10.684,10.684,0,0,0,77.737,293.8v.508a7.623,7.623,0,0,1-7.623,7.623Z" fill="#fff"/>
    </g>
    <g id="Group_91" data-name="Group 91">
      <path id="Path_93" data-name="Path 93" d="M356.678,283.129H319.151a7.623,7.623,0,1,1,0-15.246h37.527a7.623,7.623,0,0,1,0,15.246Zm-66.941,0H252.21a7.623,7.623,0,1,1,0-15.246h37.527a7.623,7.623,0,0,1,0,15.246Zm-66.94,0H185.27a7.623,7.623,0,1,1,0-15.246H222.8a7.623,7.623,0,1,1,0,15.246Zm-66.94,0H118.33a7.623,7.623,0,1,1,0-15.246h37.527a7.623,7.623,0,1,1,0,15.246Z" fill="#fff"/>
    </g>
    <g id="Group_92" data-name="Group 92">
      <path id="Path_94" data-name="Path 94" d="M453.432,411.249H346.752a13,13,0,0,1-13-13V346.774a13,13,0,0,1,13-13h106.68a13,13,0,0,1,13,13v51.475A13,13,0,0,1,453.432,411.249Z" fill="#2965f8"/>
    </g>
    <path id="Path_95" data-name="Path 95" d="M453.432,333.774H427.938v25.981a13,13,0,0,1-13,13H333.752v25.494a13,13,0,0,0,13,13h106.68a13,13,0,0,0,13-13V346.774a13,13,0,0,0-13-13Z" fill="#1852e0"/>
    <g id="Group_93" data-name="Group 93">
      <circle id="Ellipse_35" data-name="Ellipse 35" cx="10.23" cy="10.23" r="10.23" transform="translate(358.04 362.281)" fill="#f9f6f9"/>
    </g>
    <path id="Path_96" data-name="Path 96" d="M88.409,478.968h.508a7.623,7.623,0,1,0,0-15.246h-.508A10.684,10.684,0,0,1,77.737,453.05v-.1H62.491v.1a25.948,25.948,0,0,0,25.918,25.918Z" fill="#fff"/>
  </g>
</svg>
