<svg xmlns="http://www.w3.org/2000/svg" xmlns:xlink="http://www.w3.org/1999/xlink" width="347.669" height="171.736" viewBox="0 0 347.669 171.736">
  <defs>
    <linearGradient id="linear-gradient" x1="0.5" x2="0.5" y2="1" gradientUnits="objectBoundingBox">
      <stop offset="0" stop-color="#212d6e"/>
      <stop offset="1" stop-color="#111737"/>
    </linearGradient>
    <linearGradient id="linear-gradient-6" x1="0.5" x2="-0.303" y2="-0.232" gradientUnits="objectBoundingBox">
      <stop offset="0" stop-color="#fff" stop-opacity="0.576"/>
      <stop offset="1" stop-color="#fff"/>
    </linearGradient>
    <linearGradient id="linear-gradient-10" x1="0.342" y1="-0.26" x2="0.5" y2="1" gradientUnits="objectBoundingBox">
      <stop offset="0" stop-color="#1d275f"/>
      <stop offset="1" stop-color="#060813"/>
    </linearGradient>
    <linearGradient id="linear-gradient-12" x1="0.018" y1="0.487" x2="0.979" y2="0.432" gradientUnits="objectBoundingBox">
      <stop offset="0" stop-color="#fff"/>
      <stop offset="1" stop-color="#fff" stop-opacity="0"/>
    </linearGradient>
    <linearGradient id="linear-gradient-13" x1="0.5" x2="1.182" y2="-0.091" gradientUnits="objectBoundingBox">
      <stop offset="0" stop-color="#aeb7c4"/>
      <stop offset="1" stop-color="#fff" stop-opacity="0"/>
    </linearGradient>
  </defs>
  <g id="Group_63" data-name="Group 63" transform="translate(-488.607 -781.095)">
    <g id="symbols" transform="translate(772.048 933.549) rotate(-1)">
      <g id="Group_4" data-name="Group 4" transform="translate(22.338 0.327)">
        <g id="Group_3" data-name="Group 3" transform="translate(0 0)">
          <path id="Path_1" data-name="Path 1" d="M3.247,0,0,19.057H5.194L8.444,0Z" transform="translate(0 0)" fill="url(#linear-gradient)"/>
        </g>
      </g>
      <g id="Group_6" data-name="Group 6" transform="translate(5.159 0.345)">
        <g id="Group_5" data-name="Group 5" transform="translate(0 0)">
          <path id="Path_2" data-name="Path 2" d="M12.824,0,7.737,13l-.542-1.962A20.39,20.39,0,0,0,0,3.138L4.651,19.031l5.5-.009L18.327,0Z" transform="translate(0)" fill="url(#linear-gradient)"/>
        </g>
      </g>
      <g id="Group_8" data-name="Group 8" transform="translate(0 0.164)">
        <g id="Group_7" data-name="Group 7" transform="translate(0 0)">
          <path id="Path_3" data-name="Path 3" d="M10.382,1.548A2.09,2.09,0,0,0,8.119,0H.067L0,.379C6.267,1.9,10.413,5.563,12.134,9.967Z" transform="translate(0 0)" fill="url(#linear-gradient)"/>
        </g>
      </g>
      <g id="Group_10" data-name="Group 10" transform="translate(30.782 0)">
        <g id="Group_9" data-name="Group 9" transform="translate(0 0)">
          <path id="Path_4" data-name="Path 4" d="M10.527,3.981a9.589,9.589,0,0,1,3.887.729l.469.22.7-4.13A13.407,13.407,0,0,0,10.933,0C5.8,0,2.183,2.585,2.155,6.289,2.121,9.026,4.732,10.555,6.7,11.467,8.727,12.4,9.406,13,9.4,13.831c-.016,1.276-1.614,1.861-3.106,1.861a10.9,10.9,0,0,1-4.891-1l-.669-.3L0,18.655a16.449,16.449,0,0,0,5.787,1.015c5.46,0,9.008-2.554,9.045-6.512.023-2.165-1.363-3.818-4.364-5.174C8.651,7.1,7.54,6.512,7.55,5.62,7.55,4.828,8.493,3.981,10.527,3.981Z" transform="translate(0)" fill="url(#linear-gradient)"/>
        </g>
      </g>
      <g id="Group_12" data-name="Group 12" transform="translate(45.251 0.349)">
        <g id="Group_11" data-name="Group 11" transform="translate(0 0)">
          <path id="Path_5" data-name="Path 5" d="M14.446,0H10.433A2.584,2.584,0,0,0,7.712,1.582L0,19.047H5.454s.89-2.348,1.091-2.863l6.651.008c.155.665.633,2.855.633,2.855h4.818ZM8.041,12.283c.427-1.094,2.069-5.326,2.069-5.326-.028.052.423-1.1.692-1.819l.35,1.643,1.2,5.5Z" transform="translate(0)" fill="url(#linear-gradient)"/>
        </g>
      </g>
    </g>
    <path id="Path_68" data-name="Path 68" d="M-98.883-6.962v-5q0-.259.013-.549t.058-.6l-4.49,6.15Zm3.383,0v1.009a.369.369,0,0,1-.1.259.356.356,0,0,1-.277.107h-1.482v3.3h-1.526v-3.3h-5.624a.5.5,0,0,1-.33-.112.534.534,0,0,1-.179-.281l-.179-.893L-99-15.112h1.642v8.15Zm10.328-1.732a10.394,10.394,0,0,1-.362,2.91,6.066,6.066,0,0,1-.991,2.04,3.984,3.984,0,0,1-1.482,1.2,4.33,4.33,0,0,1-1.834.393,4.33,4.33,0,0,1-1.834-.393,3.947,3.947,0,0,1-1.477-1.2,6.058,6.058,0,0,1-.982-2.04,10.517,10.517,0,0,1-.357-2.91,10.566,10.566,0,0,1,.357-2.914,6.055,6.055,0,0,1,.982-2.044,3.947,3.947,0,0,1,1.477-1.2,4.33,4.33,0,0,1,1.834-.393,4.33,4.33,0,0,1,1.834.393,3.984,3.984,0,0,1,1.482,1.2,6.063,6.063,0,0,1,.991,2.044A10.442,10.442,0,0,1-85.173-8.694Zm-1.8,0a10.441,10.441,0,0,0-.237-2.419,4.9,4.9,0,0,0-.634-1.567,2.35,2.35,0,0,0-.915-.844,2.455,2.455,0,0,0-1.08-.25,2.455,2.455,0,0,0-1.08.25,2.35,2.35,0,0,0-.915.844,4.838,4.838,0,0,0-.629,1.567A10.635,10.635,0,0,0-92.7-8.694a10.635,10.635,0,0,0,.232,2.419,4.782,4.782,0,0,0,.629,1.562,2.359,2.359,0,0,0,.915.839,2.455,2.455,0,0,0,1.08.25,2.455,2.455,0,0,0,1.08-.25,2.359,2.359,0,0,0,.915-.839,4.846,4.846,0,0,0,.634-1.562A10.441,10.441,0,0,0-86.976-8.694Zm12.158,0a10.4,10.4,0,0,1-.362,2.91,6.066,6.066,0,0,1-.991,2.04,3.984,3.984,0,0,1-1.482,1.2,4.33,4.33,0,0,1-1.834.393,4.33,4.33,0,0,1-1.834-.393,3.947,3.947,0,0,1-1.477-1.2,6.058,6.058,0,0,1-.982-2.04,10.517,10.517,0,0,1-.357-2.91,10.566,10.566,0,0,1,.357-2.914,6.055,6.055,0,0,1,.982-2.044,3.947,3.947,0,0,1,1.477-1.2,4.33,4.33,0,0,1,1.834-.393,4.33,4.33,0,0,1,1.834.393,3.984,3.984,0,0,1,1.482,1.2,6.063,6.063,0,0,1,.991,2.044A10.443,10.443,0,0,1-74.818-8.694Zm-1.8,0a10.441,10.441,0,0,0-.237-2.419,4.9,4.9,0,0,0-.634-1.567,2.35,2.35,0,0,0-.915-.844,2.455,2.455,0,0,0-1.08-.25,2.455,2.455,0,0,0-1.08.25,2.35,2.35,0,0,0-.915.844,4.838,4.838,0,0,0-.629,1.567,10.635,10.635,0,0,0-.232,2.419,10.635,10.635,0,0,0,.232,2.419,4.782,4.782,0,0,0,.629,1.562,2.359,2.359,0,0,0,.915.839,2.455,2.455,0,0,0,1.08.25,2.455,2.455,0,0,0,1.08-.25,2.359,2.359,0,0,0,.915-.839,4.846,4.846,0,0,0,.634-1.562A10.441,10.441,0,0,0-76.621-8.694Zm12.158,0a10.394,10.394,0,0,1-.362,2.91,6.066,6.066,0,0,1-.991,2.04,3.984,3.984,0,0,1-1.482,1.2,4.33,4.33,0,0,1-1.834.393,4.33,4.33,0,0,1-1.834-.393,3.947,3.947,0,0,1-1.477-1.2,6.059,6.059,0,0,1-.982-2.04,10.517,10.517,0,0,1-.357-2.91,10.566,10.566,0,0,1,.357-2.914,6.055,6.055,0,0,1,.982-2.044,3.947,3.947,0,0,1,1.477-1.2,4.33,4.33,0,0,1,1.834-.393,4.33,4.33,0,0,1,1.834.393,3.984,3.984,0,0,1,1.482,1.2,6.063,6.063,0,0,1,.991,2.044A10.442,10.442,0,0,1-64.464-8.694Zm-1.8,0a10.441,10.441,0,0,0-.237-2.419,4.9,4.9,0,0,0-.634-1.567,2.35,2.35,0,0,0-.915-.844,2.455,2.455,0,0,0-1.08-.25,2.455,2.455,0,0,0-1.08.25,2.35,2.35,0,0,0-.915.844,4.838,4.838,0,0,0-.629,1.567,10.634,10.634,0,0,0-.232,2.419,10.634,10.634,0,0,0,.232,2.419,4.782,4.782,0,0,0,.629,1.562,2.359,2.359,0,0,0,.915.839,2.455,2.455,0,0,0,1.08.25,2.455,2.455,0,0,0,1.08-.25,2.359,2.359,0,0,0,.915-.839A4.846,4.846,0,0,0-66.5-6.275,10.441,10.441,0,0,0-66.267-8.694Zm15.951,5.079v1.33h-6.927v-1.33h2.714v-8.4q0-.4.027-.83L-56.68-11a.617.617,0,0,1-.25.125.64.64,0,0,1-.237.009.476.476,0,0,1-.2-.076.705.705,0,0,1-.138-.121l-.544-.759,3.838-3.312h1.419V-3.615Zm10.033-.321a.594.594,0,0,1,.446.165.594.594,0,0,1,.161.433v1.053h-8.6v-.6a1.134,1.134,0,0,1,.071-.379.92.92,0,0,1,.241-.362l4.053-4.061q.509-.509.919-.982a7.014,7.014,0,0,0,.7-.942,4.412,4.412,0,0,0,.442-.96A3.4,3.4,0,0,0-41.7-11.6a2.429,2.429,0,0,0-.17-.942,1.867,1.867,0,0,0-.464-.674,1.927,1.927,0,0,0-.7-.4,2.722,2.722,0,0,0-.866-.134,2.6,2.6,0,0,0-.852.134,2.317,2.317,0,0,0-.692.375,2.222,2.222,0,0,0-.509.571,2.352,2.352,0,0,0-.295.714.852.852,0,0,1-.317.455.818.818,0,0,1-.558.054l-.91-.161a4.638,4.638,0,0,1,.491-1.571,3.813,3.813,0,0,1,.919-1.138,3.793,3.793,0,0,1,1.272-.692,5.011,5.011,0,0,1,1.549-.232A4.709,4.709,0,0,1-42.251-15a3.556,3.556,0,0,1,1.227.71,3.279,3.279,0,0,1,.812,1.129,3.677,3.677,0,0,1,.295,1.5,4.059,4.059,0,0,1-.21,1.326A5.222,5.222,0,0,1-40.7-9.167a8.416,8.416,0,0,1-.839,1.076q-.478.522-1.013,1.058L-45.8-3.713q.375-.1.754-.161a4.429,4.429,0,0,1,.719-.062Zm2.66-7.677a4.778,4.778,0,0,1,.5-1.571,3.813,3.813,0,0,1,.919-1.138,3.793,3.793,0,0,1,1.272-.692,5.011,5.011,0,0,1,1.549-.232,4.719,4.719,0,0,1,1.526.237,3.5,3.5,0,0,1,1.192.669,3.038,3.038,0,0,1,.772,1.04,3.19,3.19,0,0,1,.277,1.339,3.566,3.566,0,0,1-.152,1.089,2.622,2.622,0,0,1-.433.83,2.558,2.558,0,0,1-.683.6,4.167,4.167,0,0,1-.9.406,3.469,3.469,0,0,1,1.839,1.1A2.979,2.979,0,0,1-29.33-6a3.75,3.75,0,0,1-.339,1.62A3.537,3.537,0,0,1-30.6-3.164a4.179,4.179,0,0,1-1.37.759,5.177,5.177,0,0,1-1.665.263,5.411,5.411,0,0,1-1.732-.245A3.637,3.637,0,0,1-36.6-3.075a3.75,3.75,0,0,1-.844-1.062A7.719,7.719,0,0,1-38.006-5.5l.759-.321a.968.968,0,0,1,.571-.071.539.539,0,0,1,.4.312q.134.268.308.6a2.642,2.642,0,0,0,.469.634,2.5,2.5,0,0,0,.736.5,2.638,2.638,0,0,0,1.111.205,2.8,2.8,0,0,0,1.125-.21,2.454,2.454,0,0,0,.8-.545,2.258,2.258,0,0,0,.482-.745,2.217,2.217,0,0,0,.161-.812,3.21,3.21,0,0,0-.125-.919,1.484,1.484,0,0,0-.478-.719,2.517,2.517,0,0,0-.977-.469,6.376,6.376,0,0,0-1.625-.17V-9.489a5.373,5.373,0,0,0,1.388-.17,2.5,2.5,0,0,0,.915-.446,1.666,1.666,0,0,0,.5-.678,2.348,2.348,0,0,0,.156-.875,2.417,2.417,0,0,0-.161-.919,1.782,1.782,0,0,0-.451-.656,1.87,1.87,0,0,0-.687-.393,2.765,2.765,0,0,0-.861-.129,2.64,2.64,0,0,0-.857.134,2.3,2.3,0,0,0-.7.375,2.222,2.222,0,0,0-.509.571,2.352,2.352,0,0,0-.295.714.852.852,0,0,1-.317.455.8.8,0,0,1-.549.054Zm15.728,4.651v-5q0-.259.013-.549t.058-.6l-4.49,6.15Zm3.383,0v1.009a.369.369,0,0,1-.1.259.356.356,0,0,1-.277.107h-1.482v3.3h-1.526v-3.3h-5.624a.5.5,0,0,1-.33-.112.534.534,0,0,1-.179-.281l-.179-.893,6.195-8.239h1.642v8.15ZM-4.39-3.615v1.33h-6.927v-1.33H-8.6v-8.4q0-.4.027-.83L-10.755-11a.617.617,0,0,1-.25.125.64.64,0,0,1-.237.009.476.476,0,0,1-.2-.076.705.705,0,0,1-.138-.121l-.545-.759,3.838-3.312h1.419V-3.615ZM5.643-3.936a.594.594,0,0,1,.446.165.594.594,0,0,1,.161.433v1.053h-8.6v-.6a1.134,1.134,0,0,1,.071-.379.92.92,0,0,1,.241-.362L2.01-7.685q.509-.509.919-.982a7.014,7.014,0,0,0,.7-.942,4.412,4.412,0,0,0,.442-.96A3.4,3.4,0,0,0,4.224-11.6a2.429,2.429,0,0,0-.17-.942,1.867,1.867,0,0,0-.464-.674,1.927,1.927,0,0,0-.7-.4,2.722,2.722,0,0,0-.866-.134,2.6,2.6,0,0,0-.852.134,2.317,2.317,0,0,0-.692.375,2.222,2.222,0,0,0-.509.571,2.352,2.352,0,0,0-.295.714.852.852,0,0,1-.317.455.818.818,0,0,1-.558.054l-.91-.161a4.638,4.638,0,0,1,.491-1.571,3.813,3.813,0,0,1,.919-1.138,3.793,3.793,0,0,1,1.272-.692,5.011,5.011,0,0,1,1.549-.232A4.709,4.709,0,0,1,3.675-15a3.556,3.556,0,0,1,1.227.71,3.278,3.278,0,0,1,.812,1.129,3.677,3.677,0,0,1,.295,1.5,4.059,4.059,0,0,1-.21,1.326,5.222,5.222,0,0,1-.571,1.165,8.416,8.416,0,0,1-.839,1.076q-.478.522-1.013,1.058L.126-3.713q.375-.1.754-.161A4.429,4.429,0,0,1,1.6-3.936ZM8.3-11.613a4.778,4.778,0,0,1,.5-1.571,3.813,3.813,0,0,1,.919-1.138,3.793,3.793,0,0,1,1.272-.692,5.011,5.011,0,0,1,1.549-.232,4.719,4.719,0,0,1,1.526.237,3.5,3.5,0,0,1,1.192.669,3.038,3.038,0,0,1,.772,1.04,3.19,3.19,0,0,1,.277,1.339,3.566,3.566,0,0,1-.152,1.089,2.622,2.622,0,0,1-.433.83,2.558,2.558,0,0,1-.683.6,4.167,4.167,0,0,1-.9.406,3.469,3.469,0,0,1,1.839,1.1A2.979,2.979,0,0,1,16.6-6a3.75,3.75,0,0,1-.339,1.62,3.537,3.537,0,0,1-.928,1.214,4.179,4.179,0,0,1-1.37.759,5.177,5.177,0,0,1-1.665.263,5.411,5.411,0,0,1-1.732-.245,3.637,3.637,0,0,1-1.232-.687,3.75,3.75,0,0,1-.844-1.062A7.719,7.719,0,0,1,7.919-5.5l.759-.321a.968.968,0,0,1,.571-.071.539.539,0,0,1,.4.312q.134.268.308.6a2.643,2.643,0,0,0,.469.634,2.5,2.5,0,0,0,.736.5,2.638,2.638,0,0,0,1.111.205,2.8,2.8,0,0,0,1.125-.21,2.454,2.454,0,0,0,.8-.545,2.258,2.258,0,0,0,.482-.745,2.217,2.217,0,0,0,.161-.812,3.21,3.21,0,0,0-.125-.919,1.484,1.484,0,0,0-.478-.719,2.517,2.517,0,0,0-.977-.469,6.376,6.376,0,0,0-1.625-.17V-9.489a5.373,5.373,0,0,0,1.388-.17,2.5,2.5,0,0,0,.915-.446,1.666,1.666,0,0,0,.5-.678,2.348,2.348,0,0,0,.156-.875,2.417,2.417,0,0,0-.161-.919,1.782,1.782,0,0,0-.451-.656,1.87,1.87,0,0,0-.687-.393,2.765,2.765,0,0,0-.861-.129,2.64,2.64,0,0,0-.857.134,2.3,2.3,0,0,0-.7.375,2.222,2.222,0,0,0-.509.571,2.352,2.352,0,0,0-.295.714.852.852,0,0,1-.317.455.8.8,0,0,1-.549.054ZM24.031-6.962v-5q0-.259.013-.549t.058-.6l-4.49,6.15Zm3.383,0v1.009a.369.369,0,0,1-.1.259.356.356,0,0,1-.277.107H25.557v3.3H24.031v-3.3H18.407a.5.5,0,0,1-.33-.112.534.534,0,0,1-.179-.281l-.179-.893,6.195-8.239h1.642v8.15ZM41.535-3.615v1.33H34.608v-1.33h2.714v-8.4q0-.4.027-.83L35.171-11a.617.617,0,0,1-.25.125.64.64,0,0,1-.237.009.476.476,0,0,1-.2-.076.705.705,0,0,1-.138-.121l-.545-.759,3.838-3.312h1.419V-3.615Zm10.033-.321a.594.594,0,0,1,.446.165.594.594,0,0,1,.161.433v1.053h-8.6v-.6a1.134,1.134,0,0,1,.071-.379.92.92,0,0,1,.241-.362l4.053-4.061q.509-.509.919-.982a7.015,7.015,0,0,0,.7-.942,4.412,4.412,0,0,0,.442-.96,3.4,3.4,0,0,0,.156-1.035,2.429,2.429,0,0,0-.17-.942,1.867,1.867,0,0,0-.464-.674,1.927,1.927,0,0,0-.7-.4,2.722,2.722,0,0,0-.866-.134,2.6,2.6,0,0,0-.852.134,2.317,2.317,0,0,0-.692.375,2.222,2.222,0,0,0-.509.571,2.352,2.352,0,0,0-.295.714.852.852,0,0,1-.317.455.818.818,0,0,1-.558.054l-.91-.161a4.638,4.638,0,0,1,.491-1.571,3.813,3.813,0,0,1,.919-1.138,3.793,3.793,0,0,1,1.272-.692,5.011,5.011,0,0,1,1.549-.232A4.709,4.709,0,0,1,49.6-15a3.556,3.556,0,0,1,1.227.71,3.279,3.279,0,0,1,.812,1.129,3.677,3.677,0,0,1,.295,1.5,4.06,4.06,0,0,1-.21,1.326,5.222,5.222,0,0,1-.571,1.165,8.417,8.417,0,0,1-.839,1.076q-.478.522-1.013,1.058L46.052-3.713q.375-.1.754-.161a4.429,4.429,0,0,1,.719-.062Zm2.66-7.677a4.778,4.778,0,0,1,.5-1.571,3.813,3.813,0,0,1,.919-1.138,3.793,3.793,0,0,1,1.272-.692,5.011,5.011,0,0,1,1.549-.232,4.719,4.719,0,0,1,1.526.237,3.5,3.5,0,0,1,1.192.669,3.038,3.038,0,0,1,.772,1.04,3.19,3.19,0,0,1,.277,1.339,3.567,3.567,0,0,1-.152,1.089,2.622,2.622,0,0,1-.433.83,2.558,2.558,0,0,1-.683.6,4.167,4.167,0,0,1-.9.406,3.469,3.469,0,0,1,1.839,1.1A2.979,2.979,0,0,1,62.521-6a3.75,3.75,0,0,1-.339,1.62,3.537,3.537,0,0,1-.928,1.214,4.179,4.179,0,0,1-1.37.759,5.177,5.177,0,0,1-1.665.263,5.411,5.411,0,0,1-1.732-.245,3.637,3.637,0,0,1-1.232-.687,3.75,3.75,0,0,1-.844-1.062A7.719,7.719,0,0,1,53.844-5.5L54.6-5.82a.968.968,0,0,1,.571-.071.539.539,0,0,1,.4.312q.134.268.308.6a2.642,2.642,0,0,0,.469.634,2.5,2.5,0,0,0,.736.5,2.638,2.638,0,0,0,1.111.205,2.8,2.8,0,0,0,1.125-.21,2.454,2.454,0,0,0,.8-.545,2.258,2.258,0,0,0,.482-.745,2.217,2.217,0,0,0,.161-.812,3.21,3.21,0,0,0-.125-.919,1.484,1.484,0,0,0-.478-.719,2.517,2.517,0,0,0-.977-.469,6.376,6.376,0,0,0-1.625-.17V-9.489a5.373,5.373,0,0,0,1.388-.17,2.5,2.5,0,0,0,.915-.446,1.666,1.666,0,0,0,.5-.678,2.348,2.348,0,0,0,.156-.875,2.417,2.417,0,0,0-.161-.919,1.782,1.782,0,0,0-.451-.656,1.87,1.87,0,0,0-.687-.393,2.765,2.765,0,0,0-.861-.129,2.64,2.64,0,0,0-.857.134,2.3,2.3,0,0,0-.7.375,2.222,2.222,0,0,0-.509.571,2.352,2.352,0,0,0-.295.714.852.852,0,0,1-.317.455.8.8,0,0,1-.549.054ZM69.956-6.962v-5q0-.259.013-.549t.058-.6l-4.49,6.15Zm3.383,0v1.009a.369.369,0,0,1-.1.259.356.356,0,0,1-.277.107H71.483v3.3H69.956v-3.3H64.333A.5.5,0,0,1,64-5.7a.534.534,0,0,1-.179-.281l-.179-.893,6.195-8.239h1.642v8.15Z" transform="translate(639.47 890.788)" fill="url(#linear-gradient-6)"/>
    <path id="Path_69" data-name="Path 69" d="M-24.594-3.5a5.06,5.06,0,0,1-.21,1.512A3.151,3.151,0,0,1-25.417-.85a2.638,2.638,0,0,1-1,.714,3.563,3.563,0,0,1-1.375.249,5.636,5.636,0,0,1-1.442-.2l.084-.882a.334.334,0,0,1,.094-.207.328.328,0,0,1,.241-.081,1.257,1.257,0,0,1,.326.06,2.017,2.017,0,0,0,.542.059,2.207,2.207,0,0,0,.795-.133,1.411,1.411,0,0,0,.584-.417,1.9,1.9,0,0,0,.361-.724,3.987,3.987,0,0,0,.123-1.057v-6.587h1.491Zm4.886-3.724a3.759,3.759,0,0,1,1.417.255,2.956,2.956,0,0,1,1.078.735,3.276,3.276,0,0,1,.683,1.155,4.54,4.54,0,0,1,.238,1.515,4.571,4.571,0,0,1-.238,1.519,3.235,3.235,0,0,1-.683,1.155,2.976,2.976,0,0,1-1.078.732A3.759,3.759,0,0,1-19.708.1a3.779,3.779,0,0,1-1.424-.256,3.01,3.01,0,0,1-1.082-.732A3.249,3.249,0,0,1-22.9-2.044a4.51,4.51,0,0,1-.242-1.519A4.48,4.48,0,0,1-22.9-5.078a3.29,3.29,0,0,1,.689-1.155,2.989,2.989,0,0,1,1.082-.735A3.779,3.779,0,0,1-19.708-7.224Zm0,6.258A1.743,1.743,0,0,0-18.2-1.645a3.189,3.189,0,0,0,.5-1.911,3.205,3.205,0,0,0-.5-1.914,1.74,1.74,0,0,0-1.505-.682,1.764,1.764,0,0,0-1.522.682,3.188,3.188,0,0,0-.5,1.914,3.172,3.172,0,0,0,.5,1.911A1.768,1.768,0,0,0-19.708-.966Zm6.3-5.243a3.888,3.888,0,0,1,.991-.735,2.686,2.686,0,0,1,1.25-.28,2.539,2.539,0,0,1,1.033.2,2.05,2.05,0,0,1,.745.549,2.38,2.38,0,0,1,.455.85,3.7,3.7,0,0,1,.154,1.1V0h-1.372V-4.529a1.812,1.812,0,0,0-.35-1.186,1.309,1.309,0,0,0-1.071-.424,2.032,2.032,0,0,0-.984.248,3.277,3.277,0,0,0-.851.675V0h-1.365V-10.332h1.365Zm7.749.084a4.819,4.819,0,0,1,.483-.448,3.041,3.041,0,0,1,.536-.346,2.868,2.868,0,0,1,.609-.224,2.894,2.894,0,0,1,.7-.081,2.539,2.539,0,0,1,1.032.2,2.05,2.05,0,0,1,.746.549,2.38,2.38,0,0,1,.455.85,3.7,3.7,0,0,1,.154,1.1V0H-2.32V-4.529a1.812,1.812,0,0,0-.35-1.186,1.309,1.309,0,0,0-1.071-.424,2.032,2.032,0,0,0-.984.248,3.277,3.277,0,0,0-.851.675V0H-6.94V-7.112h.819a.333.333,0,0,1,.357.273Zm19.138,1.1a5.6,5.6,0,0,1-.36,2.051A4.575,4.575,0,0,1,12.1-1.39,4.569,4.569,0,0,1,10.525-.364,5.477,5.477,0,0,1,8.488,0H4.708V-10.052h3.78a5.477,5.477,0,0,1,2.037.364A4.569,4.569,0,0,1,12.1-8.662a4.569,4.569,0,0,1,1.018,1.589A5.607,5.607,0,0,1,13.479-5.026Zm-1.526,0a4.911,4.911,0,0,0-.245-1.606,3.4,3.4,0,0,0-.7-1.2,2.965,2.965,0,0,0-1.092-.752,3.787,3.787,0,0,0-1.432-.259H6.206V-1.2H8.488a3.788,3.788,0,0,0,1.432-.259,2.965,2.965,0,0,0,1.092-.753,3.4,3.4,0,0,0,.7-1.2A4.9,4.9,0,0,0,11.953-5.026Zm6.055-2.2a3.759,3.759,0,0,1,1.417.255,2.956,2.956,0,0,1,1.078.735,3.276,3.276,0,0,1,.682,1.155,4.54,4.54,0,0,1,.238,1.515,4.571,4.571,0,0,1-.238,1.519A3.235,3.235,0,0,1,20.5-.889a2.976,2.976,0,0,1-1.078.732A3.759,3.759,0,0,1,18.008.1a3.779,3.779,0,0,1-1.424-.256A3.01,3.01,0,0,1,15.5-.889a3.249,3.249,0,0,1-.689-1.155,4.51,4.51,0,0,1-.241-1.519,4.48,4.48,0,0,1,.241-1.515A3.29,3.29,0,0,1,15.5-6.234a2.989,2.989,0,0,1,1.082-.735A3.779,3.779,0,0,1,18.008-7.224Zm0,6.258a1.743,1.743,0,0,0,1.505-.679,3.189,3.189,0,0,0,.5-1.911,3.205,3.205,0,0,0-.5-1.914,1.74,1.74,0,0,0-1.505-.682,1.764,1.764,0,0,0-1.522.682,3.188,3.188,0,0,0-.5,1.914,3.172,3.172,0,0,0,.5,1.911A1.768,1.768,0,0,0,18.008-.966Zm9.646-3.381a2.334,2.334,0,0,0-.115-.749,1.7,1.7,0,0,0-.34-.6,1.543,1.543,0,0,0-.546-.392,1.846,1.846,0,0,0-.742-.14,1.823,1.823,0,0,0-1.354.5,2.4,2.4,0,0,0-.627,1.379Zm1.127,3.332a2.688,2.688,0,0,1-.581.507,3.371,3.371,0,0,1-.7.346,4.245,4.245,0,0,1-.766.2A4.956,4.956,0,0,1,25.953.1,3.66,3.66,0,0,1,24.591-.15a3.026,3.026,0,0,1-1.085-.728,3.32,3.32,0,0,1-.714-1.19A4.818,4.818,0,0,1,22.537-3.7a4.045,4.045,0,0,1,.231-1.382A3.327,3.327,0,0,1,23.429-6.2a3.05,3.05,0,0,1,1.054-.749,3.453,3.453,0,0,1,1.4-.273,3.287,3.287,0,0,1,1.2.213,2.666,2.666,0,0,1,.948.62,2.867,2.867,0,0,1,.626,1,3.783,3.783,0,0,1,.228,1.358.866.866,0,0,1-.07.423.285.285,0,0,1-.259.109H23.895a3.842,3.842,0,0,0,.182,1.109,2.24,2.24,0,0,0,.444.788,1.766,1.766,0,0,0,.675.469,2.375,2.375,0,0,0,.875.154,2.627,2.627,0,0,0,.788-.105,3.819,3.819,0,0,0,.574-.227q.241-.122.406-.227a.56.56,0,0,1,.291-.105.3.3,0,0,1,.259.126Z" transform="translate(562.884 927.74)" fill="url(#linear-gradient-6)"/>
    <path id="Path_72" data-name="Path 72" d="M3.4-3.59,1.942,0H1.465L.005-3.59H.43a.177.177,0,0,1,.114.035.219.219,0,0,1,.066.09l.97,2.44q.035.09.069.2T1.71-.6q.025-.117.055-.225t.065-.2L2.8-3.465a.2.2,0,0,1,.064-.087.175.175,0,0,1,.114-.037Zm2.08,2.252L4.95-2.73a3.1,3.1,0,0,1-.115-.36q-.028.108-.056.2t-.056.165l-.53,1.388ZM6.535,0h-.41A.182.182,0,0,1,6.01-.035a.2.2,0,0,1-.065-.09L5.628-.957H4.045l-.318.832a.2.2,0,0,1-.065.086A.176.176,0,0,1,3.547,0h-.41l1.43-3.59h.537Zm2.5-.448V0H6.983V-3.59h.532V-.448ZM10.092,0H9.557V-3.59h.535ZM14.11-1.795a2,2,0,0,1-.129.732,1.634,1.634,0,0,1-.364.566,1.632,1.632,0,0,1-.562.366,1.956,1.956,0,0,1-.728.13h-1.35V-3.59h1.35a1.956,1.956,0,0,1,.728.13,1.632,1.632,0,0,1,.563.366,1.632,1.632,0,0,1,.364.568A2,2,0,0,1,14.11-1.795Zm-.545,0a1.754,1.754,0,0,0-.087-.574,1.214,1.214,0,0,0-.249-.43,1.059,1.059,0,0,0-.39-.269,1.353,1.353,0,0,0-.511-.092h-.815V-.43h.815a1.353,1.353,0,0,0,.511-.093,1.059,1.059,0,0,0,.39-.269,1.216,1.216,0,0,0,.249-.429A1.751,1.751,0,0,0,13.565-1.795ZM2.89,2.855H1.75V6H1.22V2.855H.075V2.41H2.89ZM6.347,2.41V6H5.815V4.382H3.942V6H3.407V2.41h.535V4H5.815V2.41ZM8.253,4.14a1.186,1.186,0,0,0,.361-.05.733.733,0,0,0,.261-.141.58.58,0,0,0,.158-.218.719.719,0,0,0,.052-.279.554.554,0,0,0-.2-.467.99.99,0,0,0-.611-.158h-.5V4.14ZM9.927,6H9.453a.222.222,0,0,1-.208-.113L8.358,4.642a.264.264,0,0,0-.092-.089.334.334,0,0,0-.15-.026H7.767V6H7.235V2.41H8.27a2.212,2.212,0,0,1,.6.071,1.163,1.163,0,0,1,.415.2A.805.805,0,0,1,9.526,3a1.05,1.05,0,0,1,.079.415,1.064,1.064,0,0,1-.057.352.925.925,0,0,1-.169.3,1.063,1.063,0,0,1-.271.226,1.33,1.33,0,0,1-.363.145.549.549,0,0,1,.172.168Zm1.837-.427A.973.973,0,0,0,12.15,5.5a.8.8,0,0,0,.288-.2.9.9,0,0,0,.18-.312,1.225,1.225,0,0,0,.063-.4V2.41h.53V4.582a1.651,1.651,0,0,1-.1.582,1.331,1.331,0,0,1-.288.463,1.317,1.317,0,0,1-.455.3,1.705,1.705,0,0,1-1.2,0,1.317,1.317,0,0,1-.455-.3,1.331,1.331,0,0,1-.287-.463,1.651,1.651,0,0,1-.1-.582V2.41h.533V4.58a1.259,1.259,0,0,0,.061.4.887.887,0,0,0,.179.314.8.8,0,0,0,.287.2A.973.973,0,0,0,11.765,5.573Z" transform="translate(648.515 927.193)" fill="url(#linear-gradient-6)"/>
    <path id="Path_71" data-name="Path 71" d="M6.061-3.949a6.4,6.4,0,0,1-.223,1.793A3.738,3.738,0,0,1,5.228-.9a2.455,2.455,0,0,1-.913.74,2.668,2.668,0,0,1-1.13.242A2.668,2.668,0,0,1,2.054-.16a2.432,2.432,0,0,1-.91-.74A3.733,3.733,0,0,1,.539-2.156a6.48,6.48,0,0,1-.22-1.793,6.51,6.51,0,0,1,.22-1.8A3.731,3.731,0,0,1,1.144-7a2.432,2.432,0,0,1,.91-.74,2.668,2.668,0,0,1,1.13-.242,2.668,2.668,0,0,1,1.13.242A2.455,2.455,0,0,1,5.228-7a3.736,3.736,0,0,1,.61,1.259A6.434,6.434,0,0,1,6.061-3.949Zm-1.111,0A6.433,6.433,0,0,0,4.8-5.44a3.021,3.021,0,0,0-.39-.965,1.448,1.448,0,0,0-.564-.52,1.513,1.513,0,0,0-.665-.154,1.513,1.513,0,0,0-.665.154,1.448,1.448,0,0,0-.564.52,2.981,2.981,0,0,0-.388.965,6.553,6.553,0,0,0-.143,1.491,6.553,6.553,0,0,0,.143,1.49,2.947,2.947,0,0,0,.388.962,1.454,1.454,0,0,0,.564.517,1.513,1.513,0,0,0,.665.154A1.513,1.513,0,0,0,3.85-.979,1.454,1.454,0,0,0,4.414-1.5a2.986,2.986,0,0,0,.39-.962A6.433,6.433,0,0,0,4.95-3.949ZM8-5.566a1.525,1.525,0,0,0,.4,1.128,1.487,1.487,0,0,0,1.1.4,1.7,1.7,0,0,0,.671-.124,1.489,1.489,0,0,0,.492-.33,1.4,1.4,0,0,0,.305-.478,1.575,1.575,0,0,0,.1-.569,1.764,1.764,0,0,0-.113-.646,1.385,1.385,0,0,0-.316-.489,1.389,1.389,0,0,0-.481-.308,1.689,1.689,0,0,0-.613-.107,1.711,1.711,0,0,0-.632.113,1.418,1.418,0,0,0-.49.316,1.4,1.4,0,0,0-.314.484A1.673,1.673,0,0,0,8-5.566ZM10.17-3.124q.214-.281.4-.55a2.165,2.165,0,0,1-.663.341,2.57,2.57,0,0,1-.778.115A2.368,2.368,0,0,1,8.3-3.366a2.059,2.059,0,0,1-.7-.437,2.109,2.109,0,0,1-.487-.712,2.452,2.452,0,0,1-.181-.974,2.48,2.48,0,0,1,.193-.973,2.383,2.383,0,0,1,.542-.795,2.551,2.551,0,0,1,.836-.534,2.848,2.848,0,0,1,1.07-.2,2.813,2.813,0,0,1,1.048.187,2.277,2.277,0,0,1,.8.525,2.353,2.353,0,0,1,.511.811,2.879,2.879,0,0,1,.182,1.039,3.332,3.332,0,0,1-.063.66,3.539,3.539,0,0,1-.181.61,4.422,4.422,0,0,1-.286.586q-.168.289-.382.591L9.3-.253a.571.571,0,0,1-.223.181A.746.746,0,0,1,8.74,0H7.755ZM14.152.088A.589.589,0,0,1,13.91.4a.641.641,0,0,1-.341.1h-.451L16.4-7.727a.637.637,0,0,1,.223-.289.576.576,0,0,1,.338-.1h.456Zm9.042-1.106a.366.366,0,0,1,.275.1.366.366,0,0,1,.1.267V0h-5.3V-.368A.7.7,0,0,1,18.309-.6a.567.567,0,0,1,.149-.223l2.5-2.5q.313-.313.566-.6a4.322,4.322,0,0,0,.429-.58,2.719,2.719,0,0,0,.272-.591,2.092,2.092,0,0,0,.1-.638,1.5,1.5,0,0,0-.1-.58,1.15,1.15,0,0,0-.286-.415,1.187,1.187,0,0,0-.429-.247,1.677,1.677,0,0,0-.534-.082,1.6,1.6,0,0,0-.525.082,1.427,1.427,0,0,0-.426.231A1.369,1.369,0,0,0,19.7-6.4a1.449,1.449,0,0,0-.181.44.525.525,0,0,1-.2.28.5.5,0,0,1-.344.033l-.561-.1a2.858,2.858,0,0,1,.3-.968,2.349,2.349,0,0,1,.566-.7,2.337,2.337,0,0,1,.784-.426,3.088,3.088,0,0,1,.954-.143,2.9,2.9,0,0,1,.954.151,2.191,2.191,0,0,1,.756.437,2.02,2.02,0,0,1,.5.7,2.266,2.266,0,0,1,.181.927,2.5,2.5,0,0,1-.129.817,3.218,3.218,0,0,1-.352.718,5.186,5.186,0,0,1-.517.663q-.294.322-.624.652l-2,2.046q.231-.06.465-.1a2.729,2.729,0,0,1,.443-.039Zm6.38,0a.366.366,0,0,1,.275.1.366.366,0,0,1,.1.267V0h-5.3V-.368A.7.7,0,0,1,24.689-.6a.567.567,0,0,1,.149-.223l2.5-2.5q.313-.313.566-.6a4.322,4.322,0,0,0,.429-.58A2.718,2.718,0,0,0,28.6-5.1a2.092,2.092,0,0,0,.1-.638,1.5,1.5,0,0,0-.1-.58,1.15,1.15,0,0,0-.286-.415,1.187,1.187,0,0,0-.429-.247,1.677,1.677,0,0,0-.534-.082,1.6,1.6,0,0,0-.525.082,1.427,1.427,0,0,0-.426.231,1.369,1.369,0,0,0-.313.352,1.449,1.449,0,0,0-.181.44.525.525,0,0,1-.2.28.5.5,0,0,1-.344.033l-.561-.1a2.858,2.858,0,0,1,.3-.968,2.349,2.349,0,0,1,.566-.7,2.337,2.337,0,0,1,.784-.426,3.088,3.088,0,0,1,.954-.143,2.9,2.9,0,0,1,.954.151,2.191,2.191,0,0,1,.756.437,2.02,2.02,0,0,1,.5.7,2.266,2.266,0,0,1,.181.927,2.5,2.5,0,0,1-.129.817,3.218,3.218,0,0,1-.352.718,5.186,5.186,0,0,1-.517.663q-.294.322-.624.652l-2,2.046q.231-.06.465-.1a2.729,2.729,0,0,1,.443-.039Z" transform="translate(668.886 931.442)" fill="url(#linear-gradient-6)"/>
    <path id="Path_73" data-name="Path 73" d="M-10.038-5.026a5.6,5.6,0,0,1-.36,2.051A4.575,4.575,0,0,1-11.417-1.39,4.569,4.569,0,0,1-12.992-.364,5.477,5.477,0,0,1-15.029,0h-3.78V-10.052h3.78a5.477,5.477,0,0,1,2.037.364,4.569,4.569,0,0,1,1.575,1.026A4.569,4.569,0,0,1-10.4-7.073,5.607,5.607,0,0,1-10.038-5.026Zm-1.526,0a4.911,4.911,0,0,0-.245-1.606,3.4,3.4,0,0,0-.7-1.2A2.965,2.965,0,0,0-13.6-8.589a3.787,3.787,0,0,0-1.432-.259h-2.282V-1.2h2.282A3.788,3.788,0,0,0-13.6-1.463a2.965,2.965,0,0,0,1.092-.753,3.4,3.4,0,0,0,.7-1.2A4.9,4.9,0,0,0-11.564-5.026Zm9.639,3.815L-1.932,0h-6.23V-10.052h6.23v1.211H-6.664v3.185h3.808v1.169H-6.664v3.276Zm5.432.028a3.109,3.109,0,0,0,.97-.133,1.816,1.816,0,0,0,.658-.364,1.384,1.384,0,0,0,.375-.55,1.975,1.975,0,0,0,.119-.7A1.452,1.452,0,0,0,5.11-4.105a2.478,2.478,0,0,0-1.6-.431h-2.1v3.353Zm-2.1-7.7v3.29H3.122a2.522,2.522,0,0,0,1.635-.444,1.479,1.479,0,0,0,.535-1.2,1.479,1.479,0,0,0-.511-1.253,2.61,2.61,0,0,0-1.589-.392Zm1.785-1.169a6.293,6.293,0,0,1,1.621.182,3.048,3.048,0,0,1,1.109.525,2.084,2.084,0,0,1,.641.83,2.8,2.8,0,0,1,.207,1.1,2.2,2.2,0,0,1-.112.7,2.036,2.036,0,0,1-.343.627,2.475,2.475,0,0,1-.581.521,3.384,3.384,0,0,1-.826.385Q7.1-4.746,7.1-2.891A2.823,2.823,0,0,1,6.86-1.719a2.564,2.564,0,0,1-.693.914,3.2,3.2,0,0,1-1.12.6A5.017,5.017,0,0,1,3.535,0H-.084V-10.052ZM10.507,0h-1.5V-10.052h1.5Zm9.331-8.806H16.646V0H15.162V-8.806H11.956v-1.246h7.882Z" transform="translate(813.541 922.343)" fill="url(#linear-gradient-10)"/>
    <path id="Path_70" data-name="Path 70" d="M-9.086-1.043V0h-5.432V-1.043h2.128V-7.63q0-.315.021-.651l-1.708,1.449a.484.484,0,0,1-.2.1.5.5,0,0,1-.186.007.373.373,0,0,1-.154-.059.553.553,0,0,1-.109-.095l-.427-.595,3.01-2.6h1.113v9.03ZM-1.218-1.3a.466.466,0,0,1,.35.13.466.466,0,0,1,.126.34V0H-7.49V-.469a.889.889,0,0,1,.056-.3.722.722,0,0,1,.189-.284l3.178-3.185q.4-.4.721-.77A5.5,5.5,0,0,0-2.8-5.744,3.46,3.46,0,0,0-2.453-6.5a2.662,2.662,0,0,0,.122-.812,1.9,1.9,0,0,0-.133-.739,1.464,1.464,0,0,0-.364-.528,1.511,1.511,0,0,0-.546-.315,2.134,2.134,0,0,0-.679-.105,2.039,2.039,0,0,0-.668.105,1.817,1.817,0,0,0-.543.294,1.742,1.742,0,0,0-.4.448,1.845,1.845,0,0,0-.231.56.668.668,0,0,1-.248.357.641.641,0,0,1-.437.042l-.714-.126a3.637,3.637,0,0,1,.385-1.232,2.99,2.99,0,0,1,.721-.892,2.975,2.975,0,0,1,1-.543,3.93,3.93,0,0,1,1.214-.182,3.693,3.693,0,0,1,1.214.193,2.789,2.789,0,0,1,.963.557,2.571,2.571,0,0,1,.637.885A2.883,2.883,0,0,1-.931-7.35,3.183,3.183,0,0,1-1.1-6.311a4.1,4.1,0,0,1-.448.913,6.6,6.6,0,0,1-.658.844q-.374.41-.794.83l-2.548,2.6q.294-.077.591-.126A3.473,3.473,0,0,1-4.389-1.3ZM.868-7.315A3.747,3.747,0,0,1,1.26-8.547a2.99,2.99,0,0,1,.721-.892,2.975,2.975,0,0,1,1-.543,3.93,3.93,0,0,1,1.214-.182,3.7,3.7,0,0,1,1.2.186,2.742,2.742,0,0,1,.935.525,2.382,2.382,0,0,1,.606.816,2.5,2.5,0,0,1,.217,1.05,2.8,2.8,0,0,1-.119.854,2.056,2.056,0,0,1-.339.651,2.006,2.006,0,0,1-.536.472,3.268,3.268,0,0,1-.707.319,2.721,2.721,0,0,1,1.442.865,2.336,2.336,0,0,1,.483,1.515,2.941,2.941,0,0,1-.266,1.271,2.774,2.774,0,0,1-.728.952A3.277,3.277,0,0,1,5.3-.095,4.06,4.06,0,0,1,4,.112,4.243,4.243,0,0,1,2.639-.08a2.852,2.852,0,0,1-.966-.539,2.941,2.941,0,0,1-.661-.833A6.053,6.053,0,0,1,.567-2.52l.595-.252a.759.759,0,0,1,.448-.056.423.423,0,0,1,.315.245q.1.21.242.473a2.072,2.072,0,0,0,.367.5,1.959,1.959,0,0,0,.578.4,2.069,2.069,0,0,0,.872.161,2.2,2.2,0,0,0,.882-.165,1.925,1.925,0,0,0,.63-.427,1.771,1.771,0,0,0,.378-.585A1.739,1.739,0,0,0,6-2.87a2.517,2.517,0,0,0-.1-.721,1.164,1.164,0,0,0-.375-.563,1.974,1.974,0,0,0-.766-.368,5,5,0,0,0-1.274-.133v-.994a4.213,4.213,0,0,0,1.089-.133,1.963,1.963,0,0,0,.717-.35,1.307,1.307,0,0,0,.4-.532A1.842,1.842,0,0,0,5.81-7.35a1.9,1.9,0,0,0-.126-.721,1.4,1.4,0,0,0-.353-.515,1.467,1.467,0,0,0-.539-.308,2.169,2.169,0,0,0-.675-.1,2.07,2.07,0,0,0-.672.105A1.807,1.807,0,0,0,2.9-8.6a1.742,1.742,0,0,0-.4.448,1.845,1.845,0,0,0-.231.56.668.668,0,0,1-.249.357.625.625,0,0,1-.431.042ZM13.2-3.668v-3.92q0-.2.01-.43t.045-.473L9.737-3.668Zm2.653,0v.791a.29.29,0,0,1-.077.2.28.28,0,0,1-.217.084H14.4V0H13.2V-2.59H8.792a.391.391,0,0,1-.259-.087.419.419,0,0,1-.14-.22l-.14-.7,4.858-6.461H14.4v6.391Z" transform="translate(548.742 947.765)" fill="url(#linear-gradient-6)"/>
    <rect id="Rectangle_69" data-name="Rectangle 69" width="236" height="37" transform="translate(488.607 781.095)" opacity="0.065" fill="url(#linear-gradient-12)"/>
    <g id="Layer_2" data-name="Layer 2" transform="translate(620.988 785.304)">
      <g id="Layer_1" data-name="Layer 1" transform="translate(31.146 2.172)">
        <path id="Path_8" data-name="Path 8" d="M9.247,219.449c0,.46-.271.606-.629.606H.66c-.44,0-.672-.114-.672-.669V206.1a.52.52,0,0,1,.586-.586H2.691c.46,0,.629.146.629.629v11.1H8.661a.534.534,0,0,1,.572.606Z" transform="translate(29.27 -200.455)" fill="#2e74ff"/>
        <path id="Path_9" data-name="Path 9" d="M39.377,208.488a1.638,1.638,0,0,1-1.7-1.572,1.717,1.717,0,1,1,1.7,1.572Zm1.592,10.81c0,.417-.189.606-.606.606H38.477c-.44,0-.649-.146-.649-.606v-9.05c0-.42.271-.546.649-.546h1.886c.4,0,.606.106.606.546Z" transform="translate(2.345 -200.305)" fill="#2e74ff"/>
        <path id="Path_10" data-name="Path 10" d="M66.1,234.138c0,.42-.166.629-.586.629H63.565a.54.54,0,0,1-.606-.572v-4.572a4.089,4.089,0,0,1-2.366.88,4.158,4.158,0,0,1-2.723-.88,5.686,5.686,0,0,1-1.78-4.546,5.772,5.772,0,0,1,1.529-4.169,4.241,4.241,0,0,1,3.018-1.16,3.99,3.99,0,0,1,2.64,1.049l.043-.44c.02-.211.166-.337.543-.337h1.655c.463,0,.586.211.586.586ZM62.957,223.1a3.144,3.144,0,0,0-1.749-.754c-1.529,0-1.843,1.466-1.843,2.743a3.634,3.634,0,0,0,.523,2.137,1.54,1.54,0,0,0,1.32.594,3.192,3.192,0,0,0,1.76-.669Z" transform="translate(-10.804 -210.62)" fill="#2e74ff"/>
        <path id="Path_11" data-name="Path 11" d="M107.959,230.216c0,.526-.146.692-.649.692h-1.7c-.286,0-.543-.126-.572-.417l-.04-.44a5.378,5.378,0,0,1-3.352,1.143c-2.286,0-3.309-1.466-3.309-3.729v-6.218c0-.42.286-.546.649-.546h1.886c.4,0,.606.106.606.546V226.9c0,.857.251,1.466,1.194,1.466a3.538,3.538,0,0,0,2.137-.817v-6.3c0-.42.286-.546.649-.546h1.886c.4,0,.606.106.606.546Z" transform="translate(-40.98 -211.302)" fill="#2e74ff"/>
        <path id="Path_12" data-name="Path 12" d="M140.987,208.008a1.637,1.637,0,0,1-1.7-1.572,1.689,1.689,0,1,1,1.7,1.572Zm1.592,10.81c0,.417-.189.606-.609.606h-1.886c-.437,0-.649-.146-.649-.606v-9.05c0-.42.286-.546.649-.546h1.886c.4,0,.609.106.609.546Z" transform="translate(-70.226 -199.824)" fill="#2e74ff"/>
        <path id="Path_13" data-name="Path 13" d="M167.8,218.245a.523.523,0,0,1-.572.571h-1.76c-.354,0-.523-.189-.543-.417l-.043-.44a4.058,4.058,0,0,1-2.66,1.143c-3.038,0-4.5-2.346-4.5-5.2,0-2.783,1.489-5.592,4.586-5.592a3.466,3.466,0,0,1,2.346.84v-4.421c0-.377.106-.572.5-.649l2.22-.286c.286,0,.42.169.42.46Zm-3.143-6.724A2.612,2.612,0,0,0,163,210.85c-1.529,0-2,1.615-2,2.872s.354,2.826,1.946,2.826a2.76,2.76,0,0,0,1.715-.754Z" transform="translate(-83.392 -199.231)" fill="#2e74ff"/>
        <path id="Path_14" data-name="Path 14" d="M213.642,220.056H211a1.246,1.246,0,0,1-1.174-.606l-3.938-5.429h-.063v5.429c0,.44-.189.606-.606.606h-2.075c-.44,0-.649-.146-.649-.606V206.063c0-.417.271-.543.649-.543h2.066c.4,0,.606.106.606.543v5.824h.063l3.715-5.927a.963.963,0,0,1,.9-.44h2.146c.286,0,.4.146.4.314a.663.663,0,0,1-.126.314l-4.358,6.41,5.278,6.724a.809.809,0,0,1,.189.42.357.357,0,0,1-.383.354Z" transform="translate(-115.376 -200.456)" fill="#bfc1c7"/>
        <path id="Path_15" data-name="Path 15" d="M251.441,218.281a.512.512,0,0,1-.546.572h-2.032a.517.517,0,0,1-.572-.572V204.707c0-.42.189-.546.5-.572l2.2-.286c.286,0,.44.189.44.526Z" transform="translate(-148.08 -199.267)" fill="#bfc1c7"/>
        <path id="Path_16" data-name="Path 16" d="M275.869,225.232c0,.5-.231.609-.754.609H269.25a2.611,2.611,0,0,0,2.7,2.052,7.089,7.089,0,0,0,2.64-.543.545.545,0,0,1,.252-.063.337.337,0,0,1,.334.286,12.872,12.872,0,0,1,.4,1.635c0,.271-.186.357-.4.46a9.744,9.744,0,0,1-3.783.717c-3.329,0-5.444-2.052-5.444-5.4a5.113,5.113,0,0,1,5.429-5.384,4.332,4.332,0,0,1,3.246,1.34,5.58,5.58,0,0,1,1.257,4.024Zm-3.078-1.383a1.662,1.662,0,0,0-1.615-1.82,1.939,1.939,0,0,0-1.886,1.82Z" transform="translate(-160.695 -210.513)" fill="#bfc1c7"/>
        <path id="Path_17" data-name="Path 17" d="M315.48,229.689a.457.457,0,0,1-.5.48h-1.112c-1.234,0-1.737-.354-2-.963h-.043a4.5,4.5,0,0,1-2.932,1.234c-3.018,0-4.421-2.386-4.421-5.172,0-3.715,2.3-5.592,4.609-5.592a3.144,3.144,0,0,1,2.555,1.172l.063-.46a.463.463,0,0,1,.483-.42h1.883a.463.463,0,0,1,.5.5V227.7c0,.209.086.357.314.357h.169c.286,0,.44.1.44.417Zm-4.064-6.7a2.858,2.858,0,0,0-1.7-.712c-1.026,0-2,.837-2,2.786,0,1.3.334,2.858,1.926,2.858a2.612,2.612,0,0,0,1.76-.877Z" transform="translate(-188.207 -210.569)" fill="#bfc1c7"/>
        <path id="Path_18" data-name="Path 18" d="M352.108,223.323v6.264a.511.511,0,0,1-.572.572h-1.972a.52.52,0,0,1-.571-.572V220.58c0-.5.251-.609.606-.609h1.68c.4,0,.572.106.609.42l.04.629a3.019,3.019,0,0,1,2.62-1.34,2.979,2.979,0,0,1,.572.083c.286.063.286.271.231.5l-.314,1.969c-.043.231-.149.334-.337.334s-.314-.063-.669-.063A2.781,2.781,0,0,0,352.108,223.323Z" transform="translate(-220.005 -210.573)" fill="#bfc1c7"/>
        <path id="Path_19" data-name="Path 19" d="M126.039,32.754l-2.933-4.375a.216.216,0,0,0-.179-.094h-4.817V9.207a.214.214,0,0,0-.22-.208H112.7a.214.214,0,0,0-.216.214v23.66a.216.216,0,0,0,.216.216H125.86a.217.217,0,0,0,.19-.113.22.22,0,0,0-.011-.222Z" transform="translate(-112.48 -8.999)" fill="#2e74ff"/>
        <path id="Path_20" data-name="Path 20" d="M164.88,32.749,154.846,18.578l9.128-9.219A.216.216,0,0,0,163.816,9h-6.5a.212.212,0,0,0-.157.068l-8.876,9.411v6.86l2.735-2.767,6.978,10.421a.217.217,0,0,0,.179.1H164.7a.218.218,0,0,0,.178-.34Z" transform="translate(-142.646 -9)" fill="#bfc1c7"/>
      </g>
    </g>
    <path id="Path_43" data-name="Path 43" d="M1.121,0,32.506-.038a1.118,1.118,0,0,1,1.12,1.119L33.6,25.738a1.124,1.124,0,0,1-1.122,1.122L1.09,26.9A1.118,1.118,0,0,1-.03,25.776L0,1.121A1.124,1.124,0,0,1,1.121,0Z" transform="translate(534.661 830.86)" fill="#c4c9d0"/>
    <path id="Path_42" data-name="Path 42" d="M32.866-.037,1.308,0A1.311,1.311,0,0,0,0,1.307L-.029,25.714A1.3,1.3,0,0,0,1.277,27.02l31.558-.035a1.311,1.311,0,0,0,1.309-1.309l.027-24.406A1.3,1.3,0,0,0,32.866-.037ZM13.057,17.418l.009-7.845,8.02-.009-.009,7.845ZM10.452,8.269l0,3.922L2.6,12.2l0-4.358,7.846-.009ZM2.6,14.815l7.846-.009,0,3.922v.436l-7.846.009ZM23.7,8.254V7.818l7.846-.009,0,4.358-7.846.009Zm-.012,10.46,0-3.922,7.846-.009,0,4.358-7.846.009ZM31.553,5.194,22.4,5.2A1.311,1.311,0,0,0,21.09,6.514v.436l-2.7,0,0-2.509,1.851-1.851L31.556,2.58ZM16.542,2.6l-.383.383a1.31,1.31,0,0,0-.384.925l0,3.051-2.7,0V6.523a1.3,1.3,0,0,0-1.306-1.306l-9.154.01,0-2.615ZM2.591,21.788l9.154-.01a1.311,1.311,0,0,0,1.309-1.309v-.436l2.7,0,0,2.509L13.9,24.39,2.588,24.4Zm15.01,2.6L17.985,24a1.31,1.31,0,0,0,.384-.925l0-3.051,2.7,0v.436a1.3,1.3,0,0,0,1.306,1.306l9.154-.01,0,2.615Z" transform="translate(534.022 830.718)" fill="url(#linear-gradient-13)"/>
  </g>
</svg>
