<svg xmlns="http://www.w3.org/2000/svg" xmlns:xlink="http://www.w3.org/1999/xlink" width="340.85" height="379.306" viewBox="0 0 340.85 379.306">
  <defs>
    <linearGradient id="linear-gradient" x1="1.037" y1="-0.478" x2="-0.209" y2="1.311" gradientUnits="objectBoundingBox">
      <stop offset="0" stop-color="#fff" stop-opacity="0"/>
      <stop offset="1" stop-color="#454545" stop-opacity="0.282"/>
    </linearGradient>
    <linearGradient id="linear-gradient-2" x1="0.5" y1="1" x2="0.5" gradientUnits="objectBoundingBox">
      <stop offset="0" stop-color="#2d3a5c"/>
      <stop offset="1" stop-color="#090c12"/>
    </linearGradient>
    <linearGradient id="linear-gradient-7" x1="0.018" y1="0.487" x2="0.979" y2="0.432" gradientUnits="objectBoundingBox">
      <stop offset="0" stop-color="#fff"/>
      <stop offset="1" stop-color="#fff" stop-opacity="0"/>
    </linearGradient>
    <linearGradient id="linear-gradient-8" x1="0.5" y1="0" x2="1.182" y2="-0.091" xlink:href="#linear-gradient-7"/>
  </defs>
  <g id="Group_263" data-name="Group 263" transform="matrix(0.545, 0.839, -0.839, 0.545, 163.462, 0)">
    <g id="Path_323" data-name="Path 323" transform="translate(0 0)" fill="url(#linear-gradient)">
      <path d="M17,0H308.7a17,17,0,0,1,17,17V177.906a17,17,0,0,1-17,17H17a17,17,0,0,1-17-17V17A17,17,0,0,1,17,0Z" stroke="none"/>
      <path d="M 17 1.499984741210938 C 12.85977172851562 1.499984741210938 8.9674072265625 3.112274169921875 6.039825439453125 6.039825439453125 C 3.112274169921875 8.9674072265625 1.5 12.85978698730469 1.5 16.99998474121094 L 1.5 177.906494140625 C 1.5 182.0466918945312 3.112274169921875 185.9390716552734 6.039825439453125 188.8666534423828 C 8.9674072265625 191.7942047119141 12.85977172851562 193.406494140625 17 193.406494140625 L 308.6972351074219 193.406494140625 C 312.8374633789062 193.406494140625 316.7298278808594 191.7942047119141 319.6574096679688 188.8666534423828 C 322.5849609375 185.9390716552734 324.1972351074219 182.0466918945312 324.1972351074219 177.906494140625 L 324.1972351074219 16.99998474121094 C 324.1972351074219 12.85978698730469 322.5849609375 8.9674072265625 319.6574096679688 6.039825439453125 C 316.7298278808594 3.112274169921875 312.8374633789062 1.499984741210938 308.6972351074219 1.499984741210938 L 17 1.499984741210938 M 17 -1.52587890625e-05 L 308.6972351074219 -1.52587890625e-05 C 318.0860900878906 -1.52587890625e-05 325.6972351074219 7.611160278320312 325.6972351074219 16.99998474121094 L 325.6972351074219 177.906494140625 C 325.6972351074219 187.2953186035156 318.0860900878906 194.906494140625 308.6972351074219 194.906494140625 L 17 194.906494140625 C 7.61114501953125 194.906494140625 0 187.2953186035156 0 177.906494140625 L 0 16.99998474121094 C 0 7.611160278320312 7.61114501953125 -1.52587890625e-05 17 -1.52587890625e-05 Z" stroke="none" fill="rgba(196,196,196,0.18)"/>
    </g>
    <g id="symbols" transform="translate(249.319 159.941)" opacity="0.996">
      <g id="Group_4" data-name="Group 4" transform="translate(17.151 0.251)">
        <g id="Group_3" data-name="Group 3" transform="translate(0)">
          <path id="Path_1" data-name="Path 1" d="M2.493,0,0,14.632H3.988L6.483,0Z" fill="url(#linear-gradient-2)"/>
        </g>
      </g>
      <g id="Group_6" data-name="Group 6" transform="translate(3.961 0.265)">
        <g id="Group_5" data-name="Group 5" transform="translate(0)">
          <path id="Path_2" data-name="Path 2" d="M9.846,0,5.941,9.982,5.524,8.475A15.656,15.656,0,0,0,0,2.409l3.571,12.2,4.22-.007L14.071,0Z" fill="url(#linear-gradient-2)"/>
        </g>
      </g>
      <g id="Group_8" data-name="Group 8" transform="translate(0 0.126)">
        <g id="Group_7" data-name="Group 7" transform="translate(0 0)">
          <path id="Path_3" data-name="Path 3" d="M7.972,1.189A1.6,1.6,0,0,0,6.234,0H.051L0,.291c4.811,1.167,8,3.98,9.316,7.361Z" fill="url(#linear-gradient-2)"/>
        </g>
      </g>
      <g id="Group_10" data-name="Group 10" transform="translate(23.635 0)">
        <g id="Group_9" data-name="Group 9" transform="translate(0)">
          <path id="Path_4" data-name="Path 4" d="M8.082,3.057a7.362,7.362,0,0,1,2.985.56l.36.169.54-3.171A10.294,10.294,0,0,0,8.394,0C4.453,0,1.676,1.985,1.654,4.829,1.629,6.93,3.633,8.1,5.147,8.8,6.7,9.522,7.222,9.979,7.215,10.62c-.012.98-1.239,1.429-2.385,1.429a8.371,8.371,0,0,1-3.755-.766l-.514-.234L0,14.324a12.63,12.63,0,0,0,4.443.78c4.192,0,6.916-1.961,6.945-5,.017-1.663-1.046-2.931-3.351-3.972C6.642,5.451,5.789,5,5.8,4.315,5.8,3.707,6.521,3.057,8.082,3.057Z" fill="url(#linear-gradient-2)"/>
        </g>
      </g>
      <g id="Group_12" data-name="Group 12" transform="translate(34.744 0.268)">
        <g id="Group_11" data-name="Group 11" transform="translate(0)">
          <path id="Path_5" data-name="Path 5" d="M11.092,0H8.011A1.984,1.984,0,0,0,5.921,1.214L0,14.624H4.188s.683-1.8.838-2.2l5.107.006c.119.511.486,2.192.486,2.192h3.7ZM6.174,9.431c.328-.84,1.589-4.089,1.589-4.089-.022.04.325-.846.531-1.4l.269,1.262.924,4.225Z" fill="url(#linear-gradient-2)"/>
        </g>
      </g>
    </g>
    <rect id="Rectangle_430" data-name="Rectangle 430" width="217.4" height="34.084" transform="translate(1.855 23.861)" opacity="0.595" fill="url(#linear-gradient-7)"/>
    <g id="Layer_2" data-name="Layer 2" transform="translate(159.517 30.122)">
      <g id="Layer_1" data-name="Layer 1" transform="translate(0 0)">
        <path id="Path_8" data-name="Path 8" d="M8.6,12.945c0,.427-.252.563-.584.563H.628C.219,13.508,0,13.4,0,12.887V.549A.483.483,0,0,1,.549,0H2.516C2.943,0,3.1.14,3.1.588V10.9H8.061a.5.5,0,0,1,.531.563Z" transform="translate(27.174 4.699)" fill="#2e74ff"/>
        <path id="Path_9" data-name="Path 9" d="M1.577,2.959A1.522,1.522,0,0,1,0,1.5,1.5,1.5,0,0,1,1.577,0,1.495,1.495,0,0,1,3.135,1.48,1.516,1.516,0,0,1,1.577,2.959ZM3.055,13c0,.388-.175.563-.563.563H.741c-.409,0-.6-.135-.6-.563V4.594c0-.39.252-.507.6-.507H2.493c.369,0,.563.1.563.507Z" transform="translate(37.181 4.643)" fill="#2e74ff"/>
        <path id="Path_10" data-name="Path 10" d="M9.3,13.369c0,.39-.154.584-.544.584H6.944a.5.5,0,0,1-.563-.531V9.175a3.8,3.8,0,0,1-2.2.818,3.862,3.862,0,0,1-2.53-.818A5.282,5.282,0,0,1,0,4.952,5.362,5.362,0,0,1,1.42,1.079,3.939,3.939,0,0,1,4.223,0,3.707,3.707,0,0,1,6.676.975l.04-.409c.019-.2.154-.313.5-.313H8.757c.43,0,.544.2.544.544ZM6.379,3.115a2.92,2.92,0,0,0-1.625-.7c-1.42,0-1.712,1.362-1.712,2.548a3.376,3.376,0,0,0,.486,1.986A1.431,1.431,0,0,0,4.754,7.5a2.965,2.965,0,0,0,1.635-.621Z" transform="translate(42.068 8.477)" fill="#2e74ff"/>
        <path id="Path_11" data-name="Path 11" d="M8.935,8.839c0,.488-.135.642-.6.642H6.756c-.265,0-.5-.117-.531-.388l-.037-.409A5,5,0,0,1,3.074,9.747C.95,9.747,0,8.386,0,6.283V.507C0,.117.265,0,.6,0H2.355c.369,0,.563.1.563.507V5.76c0,.8.234,1.362,1.11,1.362a3.286,3.286,0,0,0,1.986-.759V.507c0-.39.265-.507.6-.507H8.367c.369,0,.563.1.563.507Z" transform="translate(53.283 8.73)" fill="#2e74ff"/>
        <path id="Path_12" data-name="Path 12" d="M1.581,3.138A1.52,1.52,0,0,1,0,1.678a1.569,1.569,0,1,1,1.577,1.46ZM3.059,13.18c0,.388-.175.563-.565.563H.742c-.406,0-.6-.135-.6-.563V4.773c0-.39.265-.507.6-.507H2.494c.369,0,.565.1.565.507Z" transform="translate(64.152 4.465)" fill="#2e74ff"/>
        <path id="Path_13" data-name="Path 13" d="M9.365,13.419a.486.486,0,0,1-.531.531H7.2c-.329,0-.486-.175-.5-.388l-.04-.409a3.769,3.769,0,0,1-2.471,1.062C1.362,14.215,0,12.036,0,9.389,0,6.8,1.383,4.194,4.26,4.194a3.22,3.22,0,0,1,2.179.78V.868c0-.35.1-.531.467-.6L8.969,0c.265,0,.39.157.39.427ZM6.445,7.172a2.426,2.426,0,0,0-1.537-.624c-1.42,0-1.858,1.5-1.858,2.668s.329,2.625,1.808,2.625a2.564,2.564,0,0,0,1.593-.7Z" transform="translate(69.045 4.244)" fill="#2e74ff"/>
        <path id="Path_14" data-name="Path 14" d="M10.35,13.507H7.9a1.157,1.157,0,0,1-1.091-.563L3.151,7.9H3.092v5.044c0,.409-.175.563-.563.563H.6c-.409,0-.6-.135-.6-.563V.508C0,.121.252,0,.6,0H2.522c.369,0,.563.1.563.5v5.41h.058L6.594.413A.9.9,0,0,1,7.43,0H9.423c.265,0,.369.135.369.292a.616.616,0,0,1-.117.292L5.628,6.542l4.9,6.246a.751.751,0,0,1,.175.39.332.332,0,0,1-.356.329Z" transform="translate(80.932 4.7)" fill="#bfc1c7"/>
        <path id="Path_15" data-name="Path 15" d="M2.928,13.405a.475.475,0,0,1-.507.531H.534A.481.481,0,0,1,0,13.405V.8C0,.406.178.289.47.265L2.514,0c.265,0,.409.175.409.488Z" transform="translate(93.086 4.258)" fill="#bfc1c7"/>
        <path id="Path_16" data-name="Path 16" d="M9.214,5.236c0,.467-.215.565-.7.565H3.066A2.425,2.425,0,0,0,5.574,7.707a6.585,6.585,0,0,0,2.453-.5.506.506,0,0,1,.234-.058.313.313,0,0,1,.311.265A11.957,11.957,0,0,1,8.94,8.928c0,.252-.172.332-.369.427a9.051,9.051,0,0,1-3.515.666A4.679,4.679,0,0,1,0,5,4.75,4.75,0,0,1,5.044,0,4.024,4.024,0,0,1,8.059,1.246,5.183,5.183,0,0,1,9.227,4.984ZM6.355,3.951a1.544,1.544,0,0,0-1.5-1.691A1.8,1.8,0,0,0,3.1,3.951Z" transform="translate(97.774 8.437)" fill="#bfc1c7"/>
        <path id="Path_17" data-name="Path 17" d="M10.228,9.3a.425.425,0,0,1-.467.446H8.728c-1.147,0-1.614-.329-1.858-.895H6.83A4.177,4.177,0,0,1,4.106,10C1.3,10,0,7.785,0,5.2,0,1.746,2.139,0,4.282,0A2.92,2.92,0,0,1,6.655,1.09L6.713.663a.43.43,0,0,1,.449-.39H8.911A.43.43,0,0,1,9.378.74V7.453c0,.194.08.332.292.332h.157c.265,0,.409.1.409.388ZM6.453,3.076a2.655,2.655,0,0,0-1.577-.661c-.953,0-1.858.778-1.858,2.588,0,1.205.311,2.654,1.789,2.654a2.426,2.426,0,0,0,1.635-.815Z" transform="translate(108 8.458)" fill="#bfc1c7"/>
        <path id="Path_18" data-name="Path 18" d="M2.9,3.384V9.2a.475.475,0,0,1-.531.531H.533A.483.483,0,0,1,0,9.2V.836C0,.369.236.271.565.271H2.126c.372,0,.531.1.565.39l.037.584A2.8,2.8,0,0,1,5.163,0a2.765,2.765,0,0,1,.531.077c.265.058.265.252.215.467L5.617,2.373c-.04.215-.138.311-.313.311s-.292-.058-.621-.058A2.583,2.583,0,0,0,2.9,3.384Z" transform="translate(119.817 8.46)" fill="#bfc1c7"/>
        <path id="Path_19" data-name="Path 19" d="M12.6,22.066,9.871,18a.2.2,0,0,0-.167-.088H5.229V.193A.2.2,0,0,0,5.025,0H.2A.2.2,0,0,0,0,.2V22.177a.2.2,0,0,0,.2.2H12.429a.2.2,0,0,0,.177-.105.2.2,0,0,0-.01-.206Z" transform="translate(0 0)" fill="#2e74ff"/>
        <path id="Path_20" data-name="Path 20" d="M15.42,22.061,6.1,8.9,14.578.333A.2.2,0,0,0,14.432,0H8.391a.2.2,0,0,0-.146.063L0,8.8v6.372l2.541-2.57,6.482,9.681a.2.2,0,0,0,.167.089h6.065a.2.2,0,0,0,.165-.316Z" transform="translate(5.234 0)" fill="#bfc1c7"/>
      </g>
    </g>
    <text id="_4000_1234_1234_1234" data-name="4000 1234 1234 1234" transform="matrix(1, -0.017, 0.017, 1, 109.51, 122.315)" fill="#363636" font-size="16" font-family="Lato-Medium, Lato" font-weight="500" style="mix-blend-mode: difference;isolation: isolate"><tspan x="-80.3" y="0">4000 1234 1234 1234</tspan></text>
    <text id="John_Doe" data-name="John Doe" transform="matrix(1, -0.017, 0.017, 1, 52.598, 158.802)" fill="#363636" font-size="11" font-family="Lato-Medium, Lato" font-weight="500" style="mix-blend-mode: difference;isolation: isolate"><tspan x="-23.097" y="0">John Doe</tspan></text>
    <text id="VALID_THRU" data-name="VALID
THRU" transform="matrix(1, -0.017, 0.017, 1, 137.986, 155.978)" fill="#363636" font-size="4" font-family="Lato-Medium, Lato" font-weight="500" style="mix-blend-mode: difference;isolation: isolate"><tspan x="0" y="0">VALID</tspan><tspan x="0" y="6">THRU</tspan></text>
    <text id="_09_22" data-name="09/22" transform="matrix(1, -0.017, 0.017, 1, 153.982, 159.206)" fill="#363636" font-size="7" font-family="Lato-Medium, Lato" font-weight="500" style="mix-blend-mode: difference;isolation: isolate"><tspan x="0" y="0">09/22</tspan></text>
    <text id="DEBIT" transform="matrix(1, -0.017, 0.017, 1, 282.651, 148.813)" fill="#111622" font-size="10" font-family="Lato-Medium, Lato" font-weight="500"><tspan x="-14.32" y="0">DEBIT</tspan></text>
    <text id="_1234" data-name="1234" transform="matrix(1, -0.017, 0.017, 1, 38.835, 175.491)" fill="#363636" font-size="9" font-family="Lato-Medium, Lato" font-weight="500" style="mix-blend-mode: difference;isolation: isolate"><tspan x="-10.44" y="0">1234</tspan></text>
    <path id="Path_284" data-name="Path 284" d="M30.3,0,1.231.033A1.208,1.208,0,0,0,.025,1.238L0,23.721a1.2,1.2,0,0,0,1.2,1.2l29.071-.033a1.208,1.208,0,0,0,1.206-1.206L31.506,1.2A1.2,1.2,0,0,0,30.3,0ZM12.055,16.079l.008-7.227,7.388-.008-.008,7.227Zm-2.4-8.428,0,3.613-7.228.008,0-4.015L9.655,7.25ZM2.42,13.681l7.228-.008,0,3.613v.4L2.416,17.7ZM21.862,7.637v-.4l7.228-.008,0,4.015-7.228.008Zm-.011,9.635,0-3.613,7.228-.008,0,4.015-7.228.008ZM29.092,4.819l-8.432.009a1.208,1.208,0,0,0-1.206,1.206v.4l-2.49,0,0-2.311,1.705-1.705L29.1,2.41ZM15.265,2.426l-.353.353a1.207,1.207,0,0,0-.354.852l0,2.81-2.49,0v-.4a1.2,1.2,0,0,0-1.2-1.2L2.43,4.849l0-2.409ZM2.413,20.1l8.432-.009a1.208,1.208,0,0,0,1.206-1.206v-.4l2.49,0,0,2.311L12.833,22.5l-10.423.012ZM16.241,22.5l.353-.353a1.207,1.207,0,0,0,.354-.852l0-2.81,2.49,0v.4a1.2,1.2,0,0,0,1.2,1.2l8.432-.009,0,2.409Z" transform="matrix(1, -0.017, 0.017, 1, 29.175, 72.702)" fill="url(#linear-gradient-8)"/>
  </g>
</svg>
