<svg xmlns="http://www.w3.org/2000/svg" xmlns:xlink="http://www.w3.org/1999/xlink" width="297.356" height="151.313" viewBox="0 0 297.356 151.313">
  <defs>
    <linearGradient id="linear-gradient" x1="0.5" y1="1" x2="0.5" gradientUnits="objectBoundingBox">
      <stop offset="0" stop-color="#2d3a5c"/>
      <stop offset="1" stop-color="#090c12"/>
    </linearGradient>
    <linearGradient id="linear-gradient-6" x1="0.652" y1="0.5" x2="-0.218" y2="0.5" gradientUnits="objectBoundingBox">
      <stop offset="0" stop-color="#fff"/>
      <stop offset="1" stop-color="#a7a7a7" stop-opacity="0"/>
    </linearGradient>
    <linearGradient id="linear-gradient-7" x1="0.5" x2="1.182" y2="-0.091" gradientUnits="objectBoundingBox">
      <stop offset="0" stop-color="#e5e5e5"/>
      <stop offset="1" stop-color="#fff" stop-opacity="0.616"/>
    </linearGradient>
  </defs>
  <g id="Group_266" data-name="Group 266" transform="translate(-1.026 -24.421)">
    <g id="symbols" transform="translate(249.319 159.942)" opacity="0.996">
      <g id="Group_4" data-name="Group 4" transform="translate(17.151 0.251)">
        <g id="Group_3" data-name="Group 3" transform="translate(0)">
          <path id="Path_1" data-name="Path 1" d="M2.493,0,0,14.632H3.988L6.483,0Z" fill="url(#linear-gradient)"/>
        </g>
      </g>
      <g id="Group_6" data-name="Group 6" transform="translate(3.961 0.265)">
        <g id="Group_5" data-name="Group 5" transform="translate(0)">
          <path id="Path_2" data-name="Path 2" d="M9.846,0,5.941,9.982,5.524,8.475A15.656,15.656,0,0,0,0,2.409l3.571,12.2,4.22-.007L14.071,0Z" fill="url(#linear-gradient)"/>
        </g>
      </g>
      <g id="Group_8" data-name="Group 8" transform="translate(0 0.126)">
        <g id="Group_7" data-name="Group 7" transform="translate(0 0)">
          <path id="Path_3" data-name="Path 3" d="M7.972,1.189A1.6,1.6,0,0,0,6.234,0H.051L0,.291c4.811,1.167,8,3.98,9.316,7.361Z" fill="url(#linear-gradient)"/>
        </g>
      </g>
      <g id="Group_10" data-name="Group 10" transform="translate(23.635 0)">
        <g id="Group_9" data-name="Group 9" transform="translate(0)">
          <path id="Path_4" data-name="Path 4" d="M8.082,3.057a7.362,7.362,0,0,1,2.985.56l.36.169.54-3.171A10.294,10.294,0,0,0,8.394,0C4.453,0,1.676,1.985,1.654,4.829,1.629,6.93,3.633,8.1,5.147,8.8,6.7,9.522,7.222,9.979,7.215,10.62c-.012.98-1.239,1.429-2.385,1.429a8.371,8.371,0,0,1-3.755-.766l-.514-.234L0,14.324a12.63,12.63,0,0,0,4.443.78c4.192,0,6.916-1.961,6.945-5,.017-1.663-1.046-2.931-3.351-3.972C6.642,5.451,5.789,5,5.8,4.315,5.8,3.707,6.521,3.057,8.082,3.057Z" fill="url(#linear-gradient)"/>
        </g>
      </g>
      <g id="Group_12" data-name="Group 12" transform="translate(34.744 0.268)">
        <g id="Group_11" data-name="Group 11" transform="translate(0)">
          <path id="Path_5" data-name="Path 5" d="M11.092,0H8.011A1.984,1.984,0,0,0,5.921,1.214L0,14.624H4.188s.683-1.8.838-2.2l5.107.006c.119.511.486,2.192.486,2.192h3.7ZM6.174,9.431c.328-.84,1.589-4.089,1.589-4.089-.022.04.325-.846.531-1.4l.269,1.262.924,4.225Z" fill="url(#linear-gradient)"/>
        </g>
      </g>
    </g>
    <rect id="Rectangle_430" data-name="Rectangle 430" width="150.668" height="34.084" transform="translate(1.026 24.421)" opacity="0.595" fill="url(#linear-gradient-6)"/>
    <g id="Layer_2" data-name="Layer 2" transform="translate(159.517 30.123)">
      <g id="Layer_1" data-name="Layer 1" transform="translate(0 0)">
        <path id="Path_8" data-name="Path 8" d="M8.6,12.945c0,.427-.252.563-.584.563H.628C.219,13.508,0,13.4,0,12.887V.549A.483.483,0,0,1,.549,0H2.516C2.943,0,3.1.14,3.1.588V10.9H8.061a.5.5,0,0,1,.531.563Z" transform="translate(27.174 4.699)" fill="#2e74ff"/>
        <path id="Path_9" data-name="Path 9" d="M1.577,2.959A1.522,1.522,0,0,1,0,1.5,1.5,1.5,0,0,1,1.577,0,1.495,1.495,0,0,1,3.135,1.48,1.516,1.516,0,0,1,1.577,2.959ZM3.055,13c0,.388-.175.563-.563.563H.741c-.409,0-.6-.135-.6-.563V4.594c0-.39.252-.507.6-.507H2.493c.369,0,.563.1.563.507Z" transform="translate(37.181 4.643)" fill="#2e74ff"/>
        <path id="Path_10" data-name="Path 10" d="M9.3,13.369c0,.39-.154.584-.544.584H6.944a.5.5,0,0,1-.563-.531V9.175a3.8,3.8,0,0,1-2.2.818,3.862,3.862,0,0,1-2.53-.818A5.282,5.282,0,0,1,0,4.952,5.362,5.362,0,0,1,1.42,1.079,3.939,3.939,0,0,1,4.223,0,3.707,3.707,0,0,1,6.676.975l.04-.409c.019-.2.154-.313.5-.313H8.757c.43,0,.544.2.544.544ZM6.379,3.115a2.92,2.92,0,0,0-1.625-.7c-1.42,0-1.712,1.362-1.712,2.548a3.376,3.376,0,0,0,.486,1.986A1.431,1.431,0,0,0,4.754,7.5a2.965,2.965,0,0,0,1.635-.621Z" transform="translate(42.068 8.477)" fill="#2e74ff"/>
        <path id="Path_11" data-name="Path 11" d="M8.935,8.839c0,.488-.135.642-.6.642H6.756c-.265,0-.5-.117-.531-.388l-.037-.409A5,5,0,0,1,3.074,9.747C.95,9.747,0,8.386,0,6.283V.507C0,.117.265,0,.6,0H2.355c.369,0,.563.1.563.507V5.76c0,.8.234,1.362,1.11,1.362a3.286,3.286,0,0,0,1.986-.759V.507c0-.39.265-.507.6-.507H8.367c.369,0,.563.1.563.507Z" transform="translate(53.283 8.73)" fill="#2e74ff"/>
        <path id="Path_12" data-name="Path 12" d="M1.581,3.138A1.52,1.52,0,0,1,0,1.678a1.569,1.569,0,1,1,1.577,1.46ZM3.059,13.18c0,.388-.175.563-.565.563H.742c-.406,0-.6-.135-.6-.563V4.773c0-.39.265-.507.6-.507H2.494c.369,0,.565.1.565.507Z" transform="translate(64.152 4.465)" fill="#2e74ff"/>
        <path id="Path_13" data-name="Path 13" d="M9.365,13.419a.486.486,0,0,1-.531.531H7.2c-.329,0-.486-.175-.5-.388l-.04-.409a3.769,3.769,0,0,1-2.471,1.062C1.362,14.215,0,12.036,0,9.389,0,6.8,1.383,4.194,4.26,4.194a3.22,3.22,0,0,1,2.179.78V.868c0-.35.1-.531.467-.6L8.969,0c.265,0,.39.157.39.427ZM6.445,7.172a2.426,2.426,0,0,0-1.537-.624c-1.42,0-1.858,1.5-1.858,2.668s.329,2.625,1.808,2.625a2.564,2.564,0,0,0,1.593-.7Z" transform="translate(69.045 4.245)" fill="#2e74ff"/>
        <path id="Path_14" data-name="Path 14" d="M10.35,13.507H7.9a1.157,1.157,0,0,1-1.091-.563L3.151,7.9H3.092v5.044c0,.409-.175.563-.563.563H.6c-.409,0-.6-.135-.6-.563V.508C0,.121.252,0,.6,0H2.522c.369,0,.563.1.563.5v5.41h.058L6.594.413A.9.9,0,0,1,7.43,0H9.423c.265,0,.369.135.369.292a.616.616,0,0,1-.117.292L5.628,6.542l4.9,6.246a.751.751,0,0,1,.175.39.332.332,0,0,1-.356.329Z" transform="translate(80.932 4.7)" fill="#bfc1c7"/>
        <path id="Path_15" data-name="Path 15" d="M2.928,13.405a.475.475,0,0,1-.507.531H.534A.481.481,0,0,1,0,13.405V.8C0,.406.178.289.47.265L2.514,0c.265,0,.409.175.409.488Z" transform="translate(93.086 4.258)" fill="#bfc1c7"/>
        <path id="Path_16" data-name="Path 16" d="M9.214,5.236c0,.467-.215.565-.7.565H3.066A2.425,2.425,0,0,0,5.574,7.707a6.585,6.585,0,0,0,2.453-.5.506.506,0,0,1,.234-.058.313.313,0,0,1,.311.265A11.957,11.957,0,0,1,8.94,8.928c0,.252-.172.332-.369.427a9.051,9.051,0,0,1-3.515.666A4.679,4.679,0,0,1,0,5,4.75,4.75,0,0,1,5.044,0,4.024,4.024,0,0,1,8.059,1.246,5.183,5.183,0,0,1,9.227,4.984ZM6.355,3.951a1.544,1.544,0,0,0-1.5-1.691A1.8,1.8,0,0,0,3.1,3.951Z" transform="translate(97.774 8.437)" fill="#bfc1c7"/>
        <path id="Path_17" data-name="Path 17" d="M10.228,9.3a.425.425,0,0,1-.467.446H8.728c-1.147,0-1.614-.329-1.858-.895H6.83A4.177,4.177,0,0,1,4.106,10C1.3,10,0,7.785,0,5.2,0,1.746,2.139,0,4.282,0A2.92,2.92,0,0,1,6.655,1.09L6.713.663a.43.43,0,0,1,.449-.39H8.911A.43.43,0,0,1,9.378.74V7.453c0,.194.08.332.292.332h.157c.265,0,.409.1.409.388ZM6.453,3.076a2.655,2.655,0,0,0-1.577-.661c-.953,0-1.858.778-1.858,2.588,0,1.205.311,2.654,1.789,2.654a2.426,2.426,0,0,0,1.635-.815Z" transform="translate(108 8.458)" fill="#bfc1c7"/>
        <path id="Path_18" data-name="Path 18" d="M2.9,3.384V9.2a.475.475,0,0,1-.531.531H.533A.483.483,0,0,1,0,9.2V.836C0,.369.236.271.565.271H2.126c.372,0,.531.1.565.39l.037.584A2.8,2.8,0,0,1,5.163,0a2.765,2.765,0,0,1,.531.077c.265.058.265.252.215.467L5.617,2.373c-.04.215-.138.311-.313.311s-.292-.058-.621-.058A2.583,2.583,0,0,0,2.9,3.384Z" transform="translate(119.817 8.46)" fill="#bfc1c7"/>
        <path id="Path_19" data-name="Path 19" d="M12.6,22.066,9.871,18a.2.2,0,0,0-.167-.088H5.229V.193A.2.2,0,0,0,5.025,0H.2A.2.2,0,0,0,0,.2V22.177a.2.2,0,0,0,.2.2H12.429a.2.2,0,0,0,.177-.105.2.2,0,0,0-.01-.206Z" transform="translate(0 0)" fill="#2e74ff"/>
        <path id="Path_20" data-name="Path 20" d="M15.42,22.061,6.1,8.9,14.578.333A.2.2,0,0,0,14.432,0H8.391a.2.2,0,0,0-.146.063L0,8.8v6.372l2.541-2.57,6.482,9.681a.2.2,0,0,0,.167.089h6.065a.2.2,0,0,0,.165-.316Z" transform="translate(5.234 0)" fill="#bfc1c7"/>
      </g>
    </g>
    <path id="Path_325" data-name="Path 325" d="M-74.492-4.192v-4.48q0-.232.012-.492t.052-.54l-4.024,5.512Zm3.032,0v.9a.331.331,0,0,1-.088.232.319.319,0,0,1-.248.1h-1.328V0h-1.368V-2.96h-5.04a.447.447,0,0,1-.3-.1.479.479,0,0,1-.16-.252l-.16-.8L-74.6-11.5h1.472v7.3ZM-62.2-5.744a9.316,9.316,0,0,1-.324,2.608,5.437,5.437,0,0,1-.888,1.828A3.57,3.57,0,0,1-64.744-.232,3.881,3.881,0,0,1-66.388.12a3.881,3.881,0,0,1-1.644-.352,3.538,3.538,0,0,1-1.324-1.076,5.43,5.43,0,0,1-.88-1.828,9.426,9.426,0,0,1-.32-2.608,9.469,9.469,0,0,1,.32-2.612,5.427,5.427,0,0,1,.88-1.832,3.538,3.538,0,0,1,1.324-1.076,3.881,3.881,0,0,1,1.644-.352,3.881,3.881,0,0,1,1.644.352,3.57,3.57,0,0,1,1.328,1.076,5.434,5.434,0,0,1,.888,1.832A9.359,9.359,0,0,1-62.2-5.744Zm-1.616,0a9.358,9.358,0,0,0-.212-2.168,4.395,4.395,0,0,0-.568-1.4,2.106,2.106,0,0,0-.82-.756,2.2,2.2,0,0,0-.968-.224,2.2,2.2,0,0,0-.968.224,2.106,2.106,0,0,0-.82.756,4.336,4.336,0,0,0-.564,1.4,9.531,9.531,0,0,0-.208,2.168,9.531,9.531,0,0,0,.208,2.168,4.286,4.286,0,0,0,.564,1.4,2.114,2.114,0,0,0,.82.752,2.2,2.2,0,0,0,.968.224,2.2,2.2,0,0,0,.968-.224,2.114,2.114,0,0,0,.82-.752,4.344,4.344,0,0,0,.568-1.4A9.358,9.358,0,0,0-63.82-5.744Zm10.9,0a9.316,9.316,0,0,1-.324,2.608,5.437,5.437,0,0,1-.888,1.828A3.57,3.57,0,0,1-55.464-.232,3.881,3.881,0,0,1-57.108.12a3.881,3.881,0,0,1-1.644-.352,3.538,3.538,0,0,1-1.324-1.076,5.43,5.43,0,0,1-.88-1.828,9.426,9.426,0,0,1-.32-2.608,9.469,9.469,0,0,1,.32-2.612,5.427,5.427,0,0,1,.88-1.832,3.538,3.538,0,0,1,1.324-1.076,3.881,3.881,0,0,1,1.644-.352,3.881,3.881,0,0,1,1.644.352,3.57,3.57,0,0,1,1.328,1.076,5.434,5.434,0,0,1,.888,1.832A9.359,9.359,0,0,1-52.924-5.744Zm-1.616,0a9.358,9.358,0,0,0-.212-2.168,4.395,4.395,0,0,0-.568-1.4,2.106,2.106,0,0,0-.82-.756,2.2,2.2,0,0,0-.968-.224,2.2,2.2,0,0,0-.968.224,2.106,2.106,0,0,0-.82.756,4.336,4.336,0,0,0-.564,1.4,9.531,9.531,0,0,0-.208,2.168,9.531,9.531,0,0,0,.208,2.168,4.286,4.286,0,0,0,.564,1.4,2.114,2.114,0,0,0,.82.752,2.2,2.2,0,0,0,.968.224,2.2,2.2,0,0,0,.968-.224,2.114,2.114,0,0,0,.82-.752,4.343,4.343,0,0,0,.568-1.4A9.358,9.358,0,0,0-54.54-5.744Zm10.9,0a9.316,9.316,0,0,1-.324,2.608,5.437,5.437,0,0,1-.888,1.828A3.57,3.57,0,0,1-46.184-.232,3.881,3.881,0,0,1-47.828.12a3.881,3.881,0,0,1-1.644-.352A3.538,3.538,0,0,1-50.8-1.308a5.43,5.43,0,0,1-.88-1.828A9.426,9.426,0,0,1-52-5.744a9.469,9.469,0,0,1,.32-2.612,5.427,5.427,0,0,1,.88-1.832,3.538,3.538,0,0,1,1.324-1.076,3.881,3.881,0,0,1,1.644-.352,3.881,3.881,0,0,1,1.644.352,3.57,3.57,0,0,1,1.328,1.076,5.434,5.434,0,0,1,.888,1.832A9.359,9.359,0,0,1-43.644-5.744Zm-1.616,0a9.358,9.358,0,0,0-.212-2.168,4.395,4.395,0,0,0-.568-1.4,2.106,2.106,0,0,0-.82-.756,2.2,2.2,0,0,0-.968-.224,2.2,2.2,0,0,0-.968.224,2.106,2.106,0,0,0-.82.756,4.336,4.336,0,0,0-.564,1.4,9.531,9.531,0,0,0-.208,2.168,9.531,9.531,0,0,0,.208,2.168,4.286,4.286,0,0,0,.564,1.4,2.114,2.114,0,0,0,.82.752,2.2,2.2,0,0,0,.968.224,2.2,2.2,0,0,0,.968-.224,2.114,2.114,0,0,0,.82-.752,4.344,4.344,0,0,0,.568-1.4A9.358,9.358,0,0,0-45.26-5.744Zm14.3,4.552V0h-6.208V-1.192h2.432V-8.72q0-.36.024-.744l-1.952,1.656a.553.553,0,0,1-.224.112.574.574,0,0,1-.212.008.427.427,0,0,1-.176-.068.632.632,0,0,1-.124-.108l-.488-.68,3.44-2.968h1.272v10.32Zm8.992-.288a.532.532,0,0,1,.4.148.533.533,0,0,1,.144.388V0H-29.14V-.536a1.016,1.016,0,0,1,.064-.34A.825.825,0,0,1-28.86-1.2l3.632-3.64q.456-.456.824-.88a6.287,6.287,0,0,0,.624-.844,3.954,3.954,0,0,0,.4-.86,3.042,3.042,0,0,0,.14-.928A2.177,2.177,0,0,0-23.4-9.2a1.673,1.673,0,0,0-.416-.6,1.727,1.727,0,0,0-.624-.36,2.439,2.439,0,0,0-.776-.12,2.33,2.33,0,0,0-.764.12,2.076,2.076,0,0,0-.62.336,1.991,1.991,0,0,0-.456.512,2.108,2.108,0,0,0-.264.64.764.764,0,0,1-.284.408.733.733,0,0,1-.5.048l-.816-.144a4.156,4.156,0,0,1,.44-1.408,3.417,3.417,0,0,1,.824-1.02,3.4,3.4,0,0,1,1.14-.62,4.491,4.491,0,0,1,1.388-.208,4.22,4.22,0,0,1,1.388.22,3.187,3.187,0,0,1,1.1.636,2.938,2.938,0,0,1,.728,1.012A3.3,3.3,0,0,1-21.644-8.4a3.638,3.638,0,0,1-.188,1.188,4.68,4.68,0,0,1-.512,1.044A7.543,7.543,0,0,1-23.1-5.2q-.428.468-.908.948L-26.916-1.28q.336-.088.676-.144A3.969,3.969,0,0,1-25.6-1.48Zm2.384-6.88a4.282,4.282,0,0,1,.448-1.408,3.417,3.417,0,0,1,.824-1.02,3.4,3.4,0,0,1,1.14-.62,4.491,4.491,0,0,1,1.388-.208,4.229,4.229,0,0,1,1.368.212,3.133,3.133,0,0,1,1.068.6,2.722,2.722,0,0,1,.692.932,2.859,2.859,0,0,1,.248,1.2,3.2,3.2,0,0,1-.136.976,2.35,2.35,0,0,1-.388.744,2.293,2.293,0,0,1-.612.54,3.735,3.735,0,0,1-.808.364,3.109,3.109,0,0,1,1.648.988,2.67,2.67,0,0,1,.552,1.732,3.361,3.361,0,0,1-.3,1.452,3.17,3.17,0,0,1-.832,1.088,3.746,3.746,0,0,1-1.228.68,4.64,4.64,0,0,1-1.492.236,4.849,4.849,0,0,1-1.552-.22,3.26,3.26,0,0,1-1.1-.616,3.361,3.361,0,0,1-.756-.952,6.918,6.918,0,0,1-.508-1.22l.68-.288a.868.868,0,0,1,.512-.064.483.483,0,0,1,.36.28q.12.24.276.54a2.368,2.368,0,0,0,.42.568,2.238,2.238,0,0,0,.66.452,2.365,2.365,0,0,0,1,.184A2.509,2.509,0,0,0-15.02-1.4a2.2,2.2,0,0,0,.72-.488,2.024,2.024,0,0,0,.432-.668,1.987,1.987,0,0,0,.144-.728,2.877,2.877,0,0,0-.112-.824,1.33,1.33,0,0,0-.428-.644,2.256,2.256,0,0,0-.876-.42A5.715,5.715,0,0,0-16.6-5.32V-6.456a4.815,4.815,0,0,0,1.244-.152,2.243,2.243,0,0,0,.82-.4,1.493,1.493,0,0,0,.452-.608,2.1,2.1,0,0,0,.14-.784,2.167,2.167,0,0,0-.144-.824,1.6,1.6,0,0,0-.4-.588,1.676,1.676,0,0,0-.616-.352,2.478,2.478,0,0,0-.772-.116,2.366,2.366,0,0,0-.768.12,2.066,2.066,0,0,0-.624.336,1.991,1.991,0,0,0-.456.512,2.108,2.108,0,0,0-.264.64.764.764,0,0,1-.284.408.714.714,0,0,1-.492.048Zm14.1,4.168v-4.48q0-.232.012-.492t.052-.54L-9.452-4.192Zm3.032,0v.9a.331.331,0,0,1-.088.232.32.32,0,0,1-.248.1H-4.124V0H-5.492V-2.96h-5.04a.447.447,0,0,1-.3-.1.479.479,0,0,1-.16-.252l-.16-.8L-5.6-11.5h1.472v7.3Zm12.656,3V0H3.988V-1.192H6.42V-8.72q0-.36.024-.744L4.492-7.808a.553.553,0,0,1-.224.112.574.574,0,0,1-.212.008.427.427,0,0,1-.176-.068.632.632,0,0,1-.124-.108l-.488-.68,3.44-2.968H7.98v10.32Zm8.992-.288a.532.532,0,0,1,.4.148.533.533,0,0,1,.144.388V0H12.02V-.536a1.016,1.016,0,0,1,.064-.34A.825.825,0,0,1,12.3-1.2l3.632-3.64q.456-.456.824-.88a6.287,6.287,0,0,0,.624-.844,3.954,3.954,0,0,0,.4-.86,3.042,3.042,0,0,0,.14-.928,2.177,2.177,0,0,0-.152-.844,1.673,1.673,0,0,0-.416-.6,1.727,1.727,0,0,0-.624-.36,2.439,2.439,0,0,0-.776-.12,2.33,2.33,0,0,0-.764.12,2.076,2.076,0,0,0-.62.336,1.991,1.991,0,0,0-.456.512,2.108,2.108,0,0,0-.264.64.764.764,0,0,1-.284.408.733.733,0,0,1-.5.048l-.816-.144a4.156,4.156,0,0,1,.44-1.408,3.417,3.417,0,0,1,.824-1.02,3.4,3.4,0,0,1,1.14-.62,4.491,4.491,0,0,1,1.388-.208,4.22,4.22,0,0,1,1.388.22,3.187,3.187,0,0,1,1.1.636,2.938,2.938,0,0,1,.728,1.012A3.3,3.3,0,0,1,19.516-8.4a3.638,3.638,0,0,1-.188,1.188,4.68,4.68,0,0,1-.512,1.044,7.543,7.543,0,0,1-.752.964q-.428.468-.908.948L14.244-1.28q.336-.088.676-.144a3.969,3.969,0,0,1,.644-.056Zm2.384-6.88a4.282,4.282,0,0,1,.448-1.408,3.417,3.417,0,0,1,.824-1.02,3.4,3.4,0,0,1,1.14-.62,4.491,4.491,0,0,1,1.388-.208,4.229,4.229,0,0,1,1.368.212,3.133,3.133,0,0,1,1.068.6,2.722,2.722,0,0,1,.692.932,2.859,2.859,0,0,1,.248,1.2,3.2,3.2,0,0,1-.136.976,2.35,2.35,0,0,1-.388.744,2.293,2.293,0,0,1-.612.54,3.735,3.735,0,0,1-.808.364,3.109,3.109,0,0,1,1.648.988A2.67,2.67,0,0,1,29-3.328a3.361,3.361,0,0,1-.3,1.452,3.17,3.17,0,0,1-.832,1.088,3.746,3.746,0,0,1-1.228.68,4.64,4.64,0,0,1-1.492.236A4.849,4.849,0,0,1,23.6-.092a3.26,3.26,0,0,1-1.1-.616,3.361,3.361,0,0,1-.756-.952,6.918,6.918,0,0,1-.508-1.22l.68-.288a.868.868,0,0,1,.512-.064.483.483,0,0,1,.36.28q.12.24.276.54a2.368,2.368,0,0,0,.42.568,2.238,2.238,0,0,0,.66.452,2.365,2.365,0,0,0,1,.184A2.509,2.509,0,0,0,26.14-1.4a2.2,2.2,0,0,0,.72-.488,2.024,2.024,0,0,0,.432-.668,1.987,1.987,0,0,0,.144-.728,2.877,2.877,0,0,0-.112-.824,1.33,1.33,0,0,0-.428-.644,2.256,2.256,0,0,0-.876-.42,5.715,5.715,0,0,0-1.456-.152V-6.456a4.815,4.815,0,0,0,1.244-.152,2.243,2.243,0,0,0,.82-.4,1.493,1.493,0,0,0,.452-.608,2.1,2.1,0,0,0,.14-.784,2.167,2.167,0,0,0-.144-.824,1.6,1.6,0,0,0-.4-.588,1.676,1.676,0,0,0-.616-.352,2.479,2.479,0,0,0-.772-.116,2.366,2.366,0,0,0-.768.12,2.066,2.066,0,0,0-.624.336,1.991,1.991,0,0,0-.456.512,2.108,2.108,0,0,0-.264.64.764.764,0,0,1-.284.408.714.714,0,0,1-.492.048Zm14.1,4.168v-4.48q0-.232.012-.492t.052-.54L31.708-4.192Zm3.032,0v.9a.331.331,0,0,1-.088.232.319.319,0,0,1-.248.1H37.036V0H35.668V-2.96h-5.04a.447.447,0,0,1-.3-.1.479.479,0,0,1-.16-.252l-.16-.8L35.564-11.5h1.472v7.3Zm12.656,3V0H45.148V-1.192H47.58V-8.72q0-.36.024-.744L45.652-7.808a.553.553,0,0,1-.224.112.574.574,0,0,1-.212.008.427.427,0,0,1-.176-.068.632.632,0,0,1-.124-.108l-.488-.68,3.44-2.968H49.14v10.32Zm8.992-.288a.532.532,0,0,1,.4.148.533.533,0,0,1,.144.388V0H53.18V-.536a1.016,1.016,0,0,1,.064-.34A.825.825,0,0,1,53.46-1.2l3.632-3.64q.456-.456.824-.88a6.286,6.286,0,0,0,.624-.844,3.954,3.954,0,0,0,.4-.86,3.042,3.042,0,0,0,.14-.928,2.177,2.177,0,0,0-.152-.844,1.673,1.673,0,0,0-.416-.6,1.727,1.727,0,0,0-.624-.36,2.439,2.439,0,0,0-.776-.12,2.33,2.33,0,0,0-.764.12,2.076,2.076,0,0,0-.62.336,1.991,1.991,0,0,0-.456.512,2.108,2.108,0,0,0-.264.64.764.764,0,0,1-.284.408.733.733,0,0,1-.5.048L53.4-8.36a4.156,4.156,0,0,1,.44-1.408,3.417,3.417,0,0,1,.824-1.02,3.4,3.4,0,0,1,1.14-.62,4.491,4.491,0,0,1,1.388-.208,4.22,4.22,0,0,1,1.388.22,3.187,3.187,0,0,1,1.1.636,2.938,2.938,0,0,1,.728,1.012A3.3,3.3,0,0,1,60.676-8.4a3.638,3.638,0,0,1-.188,1.188,4.68,4.68,0,0,1-.512,1.044,7.542,7.542,0,0,1-.752.964q-.428.468-.908.948L55.4-1.28q.336-.088.676-.144a3.969,3.969,0,0,1,.644-.056Zm2.384-6.88a4.282,4.282,0,0,1,.448-1.408A3.417,3.417,0,0,1,64-10.788a3.4,3.4,0,0,1,1.14-.62,4.491,4.491,0,0,1,1.388-.208A4.229,4.229,0,0,1,67.9-11.4a3.133,3.133,0,0,1,1.068.6,2.722,2.722,0,0,1,.692.932,2.859,2.859,0,0,1,.248,1.2,3.2,3.2,0,0,1-.136.976,2.35,2.35,0,0,1-.388.744,2.293,2.293,0,0,1-.612.54,3.735,3.735,0,0,1-.808.364,3.109,3.109,0,0,1,1.648.988,2.67,2.67,0,0,1,.552,1.732,3.361,3.361,0,0,1-.3,1.452,3.17,3.17,0,0,1-.832,1.088,3.746,3.746,0,0,1-1.228.68,4.64,4.64,0,0,1-1.492.236,4.849,4.849,0,0,1-1.552-.22,3.26,3.26,0,0,1-1.1-.616A3.361,3.361,0,0,1,62.9-1.66a6.918,6.918,0,0,1-.508-1.22l.68-.288a.868.868,0,0,1,.512-.064.483.483,0,0,1,.36.28q.12.24.276.54a2.369,2.369,0,0,0,.42.568,2.238,2.238,0,0,0,.66.452,2.365,2.365,0,0,0,1,.184A2.509,2.509,0,0,0,67.3-1.4a2.2,2.2,0,0,0,.72-.488,2.024,2.024,0,0,0,.432-.668A1.987,1.987,0,0,0,68.6-3.28a2.877,2.877,0,0,0-.112-.824,1.33,1.33,0,0,0-.428-.644,2.256,2.256,0,0,0-.876-.42,5.715,5.715,0,0,0-1.456-.152V-6.456a4.815,4.815,0,0,0,1.244-.152,2.243,2.243,0,0,0,.82-.4,1.493,1.493,0,0,0,.452-.608,2.1,2.1,0,0,0,.14-.784,2.167,2.167,0,0,0-.144-.824,1.6,1.6,0,0,0-.4-.588,1.676,1.676,0,0,0-.616-.352,2.478,2.478,0,0,0-.772-.116,2.366,2.366,0,0,0-.768.12,2.066,2.066,0,0,0-.624.336,1.991,1.991,0,0,0-.456.512,2.108,2.108,0,0,0-.264.64.764.764,0,0,1-.284.408.714.714,0,0,1-.492.048Zm14.1,4.168v-4.48q0-.232.012-.492t.052-.54L72.868-4.192Zm3.032,0v.9a.331.331,0,0,1-.088.232.319.319,0,0,1-.248.1H78.2V0H76.828V-2.96h-5.04a.447.447,0,0,1-.3-.1.479.479,0,0,1-.16-.252l-.16-.8L76.724-11.5H78.2v7.3Z" transform="matrix(1, -0.017, 0.017, 1, 109.51, 122.316)" fill="#363636" style="mix-blend-mode: difference;isolation: isolate"/>
    <path id="Path_326" data-name="Path 326" d="M-19.324-2.75a3.976,3.976,0,0,1-.165,1.188,2.476,2.476,0,0,1-.481.894,2.073,2.073,0,0,1-.786.561,2.8,2.8,0,0,1-1.081.2,4.429,4.429,0,0,1-1.133-.154l.066-.693a.263.263,0,0,1,.074-.162.258.258,0,0,1,.19-.063.988.988,0,0,1,.256.047,1.584,1.584,0,0,0,.426.047,1.734,1.734,0,0,0,.624-.1,1.109,1.109,0,0,0,.459-.327,1.5,1.5,0,0,0,.283-.569,3.133,3.133,0,0,0,.1-.831V-7.9h1.172Zm3.839-2.926a2.954,2.954,0,0,1,1.114.2,2.322,2.322,0,0,1,.847.578,2.574,2.574,0,0,1,.536.908A3.567,3.567,0,0,1-12.8-2.8a3.591,3.591,0,0,1-.187,1.194,2.542,2.542,0,0,1-.536.907,2.338,2.338,0,0,1-.847.575,2.954,2.954,0,0,1-1.114.2,2.969,2.969,0,0,1-1.119-.2,2.365,2.365,0,0,1-.85-.575A2.552,2.552,0,0,1-18-1.606a3.544,3.544,0,0,1-.19-1.194A3.52,3.52,0,0,1-18-3.99a2.585,2.585,0,0,1,.542-.908,2.348,2.348,0,0,1,.85-.578A2.969,2.969,0,0,1-15.485-5.676Zm0,4.917A1.37,1.37,0,0,0-14.3-1.293a2.505,2.505,0,0,0,.391-1.5A2.518,2.518,0,0,0-14.3-4.3a1.367,1.367,0,0,0-1.182-.536,1.386,1.386,0,0,0-1.2.536,2.505,2.505,0,0,0-.393,1.5,2.492,2.492,0,0,0,.393,1.5A1.389,1.389,0,0,0-15.485-.759Zm4.95-4.119a3.055,3.055,0,0,1,.778-.577,2.111,2.111,0,0,1,.982-.22,2,2,0,0,1,.811.154,1.611,1.611,0,0,1,.586.432,1.87,1.87,0,0,1,.357.668,2.908,2.908,0,0,1,.121.863V0H-7.978V-3.559a1.424,1.424,0,0,0-.275-.932,1.029,1.029,0,0,0-.841-.333,1.6,1.6,0,0,0-.773.2,2.574,2.574,0,0,0-.668.531V0h-1.073V-8.118h1.073Zm6.088.066a3.787,3.787,0,0,1,.379-.352,2.39,2.39,0,0,1,.421-.272,2.254,2.254,0,0,1,.479-.176,2.274,2.274,0,0,1,.547-.063,2,2,0,0,1,.811.154,1.611,1.611,0,0,1,.586.432,1.87,1.87,0,0,1,.357.668,2.908,2.908,0,0,1,.121.863V0H-1.823V-3.559A1.424,1.424,0,0,0-2.1-4.491a1.029,1.029,0,0,0-.842-.333,1.6,1.6,0,0,0-.773.2,2.574,2.574,0,0,0-.668.531V0H-5.453V-5.588h.644a.262.262,0,0,1,.28.215Zm15.037.864a4.4,4.4,0,0,1-.283,1.611,3.6,3.6,0,0,1-.8,1.246,3.59,3.59,0,0,1-1.237.806A4.3,4.3,0,0,1,6.669,0H3.7V-7.9h2.97a4.3,4.3,0,0,1,1.6.286,3.59,3.59,0,0,1,1.237.806,3.59,3.59,0,0,1,.8,1.248A4.406,4.406,0,0,1,10.59-3.949Zm-1.2,0A3.859,3.859,0,0,0,9.2-5.211a2.67,2.67,0,0,0-.547-.946,2.33,2.33,0,0,0-.858-.591,2.976,2.976,0,0,0-1.125-.2H4.876V-.946H6.669a2.976,2.976,0,0,0,1.125-.2,2.33,2.33,0,0,0,.858-.591A2.674,2.674,0,0,0,9.2-2.684,3.853,3.853,0,0,0,9.391-3.949Zm4.757-1.727a2.954,2.954,0,0,1,1.114.2,2.322,2.322,0,0,1,.847.578,2.574,2.574,0,0,1,.536.908A3.567,3.567,0,0,1,16.833-2.8a3.591,3.591,0,0,1-.187,1.194A2.542,2.542,0,0,1,16.11-.7a2.338,2.338,0,0,1-.847.575,2.954,2.954,0,0,1-1.114.2,2.969,2.969,0,0,1-1.119-.2A2.365,2.365,0,0,1,12.18-.7a2.552,2.552,0,0,1-.542-.907,3.544,3.544,0,0,1-.19-1.194,3.52,3.52,0,0,1,.19-1.191A2.585,2.585,0,0,1,12.18-4.9a2.348,2.348,0,0,1,.85-.578A2.969,2.969,0,0,1,14.149-5.676Zm0,4.917a1.37,1.37,0,0,0,1.182-.534,2.505,2.505,0,0,0,.391-1.5,2.518,2.518,0,0,0-.391-1.5,1.367,1.367,0,0,0-1.182-.536,1.386,1.386,0,0,0-1.2.536,2.505,2.505,0,0,0-.393,1.5,2.492,2.492,0,0,0,.393,1.5A1.389,1.389,0,0,0,14.149-.759Zm7.579-2.656A1.834,1.834,0,0,0,21.637-4a1.336,1.336,0,0,0-.267-.468,1.213,1.213,0,0,0-.429-.308,1.45,1.45,0,0,0-.583-.11,1.432,1.432,0,0,0-1.064.391A1.889,1.889,0,0,0,18.8-3.415ZM22.613-.8a2.112,2.112,0,0,1-.456.4,2.649,2.649,0,0,1-.55.272,3.335,3.335,0,0,1-.6.154,3.894,3.894,0,0,1-.613.049,2.875,2.875,0,0,1-1.07-.2,2.378,2.378,0,0,1-.853-.572,2.609,2.609,0,0,1-.561-.935,3.785,3.785,0,0,1-.2-1.284A3.178,3.178,0,0,1,17.889-4a2.614,2.614,0,0,1,.52-.877,2.4,2.4,0,0,1,.828-.589,2.713,2.713,0,0,1,1.1-.214,2.583,2.583,0,0,1,.943.168,2.1,2.1,0,0,1,.745.487,2.252,2.252,0,0,1,.492.787A2.973,2.973,0,0,1,22.7-3.168a.68.68,0,0,1-.055.333.224.224,0,0,1-.2.085H18.774a3.018,3.018,0,0,0,.143.872,1.76,1.76,0,0,0,.349.619,1.388,1.388,0,0,0,.531.368,1.866,1.866,0,0,0,.688.121A2.064,2.064,0,0,0,21.1-.853a3,3,0,0,0,.451-.179q.19-.1.319-.179a.44.44,0,0,1,.228-.082.236.236,0,0,1,.2.1Z" transform="matrix(1, -0.017, 0.017, 1, 52.598, 158.803)" fill="#363636" style="mix-blend-mode: difference;isolation: isolate"/>
    <path id="Path_328" data-name="Path 328" d="M2.722-2.872,1.554,0H1.172L0-2.872h.34a.141.141,0,0,1,.091.028.175.175,0,0,1,.053.072L1.264-.82q.028.072.055.158t.049.18q.02-.094.044-.18T1.464-.82l.774-1.952a.156.156,0,0,1,.051-.07.14.14,0,0,1,.091-.03Zm1.664,1.8L3.96-2.184a2.483,2.483,0,0,1-.092-.288q-.022.086-.045.16t-.045.132L3.354-1.07ZM5.228,0H4.9a.145.145,0,0,1-.092-.028A.157.157,0,0,1,4.756-.1L4.5-.766H3.236L2.982-.1a.162.162,0,0,1-.052.069A.141.141,0,0,1,2.838,0H2.51L3.654-2.872h.43Zm2-.358V0H5.586V-2.872h.426V-.358ZM8.074,0H7.646V-2.872h.428Zm3.214-1.436a1.6,1.6,0,0,1-.1.586,1.307,1.307,0,0,1-.291.453,1.305,1.305,0,0,1-.45.293,1.565,1.565,0,0,1-.582.1H8.782V-2.872h1.08a1.565,1.565,0,0,1,.582.1,1.305,1.305,0,0,1,.45.293,1.305,1.305,0,0,1,.291.454A1.6,1.6,0,0,1,11.288-1.436Zm-.436,0a1.4,1.4,0,0,0-.07-.459.971.971,0,0,0-.2-.344.847.847,0,0,0-.312-.215,1.082,1.082,0,0,0-.409-.074H9.21V-.344h.652a1.082,1.082,0,0,0,.409-.074.847.847,0,0,0,.312-.215.972.972,0,0,0,.2-.343A1.4,1.4,0,0,0,10.852-1.436Zm-8.54,4.92H1.4V6H.976V3.484H.06V3.128H2.312Zm2.766-.356V6H4.652V4.706h-1.5V6H2.726V3.128h.428V4.4h1.5V3.128ZM6.6,4.512a.949.949,0,0,0,.289-.04A.587.587,0,0,0,7.1,4.359a.464.464,0,0,0,.126-.174.575.575,0,0,0,.042-.223.444.444,0,0,0-.163-.374.792.792,0,0,0-.489-.126h-.4v1.05ZM7.942,6h-.38A.178.178,0,0,1,7.4,5.91l-.71-1a.212.212,0,0,0-.074-.071.267.267,0,0,0-.12-.021H6.214V6H5.788V3.128h.828a1.77,1.77,0,0,1,.479.057.93.93,0,0,1,.332.162.644.644,0,0,1,.194.253.84.84,0,0,1,.063.332.851.851,0,0,1-.046.282.74.74,0,0,1-.135.237.851.851,0,0,1-.217.181A1.064,1.064,0,0,1,7,4.748a.439.439,0,0,1,.138.134Zm1.47-.342A.778.778,0,0,0,9.72,5.6a.642.642,0,0,0,.23-.163.723.723,0,0,0,.144-.25.98.98,0,0,0,.05-.321V3.128h.424V4.866a1.321,1.321,0,0,1-.08.466,1.065,1.065,0,0,1-.23.37,1.054,1.054,0,0,1-.364.244,1.364,1.364,0,0,1-.964,0A1.054,1.054,0,0,1,8.566,5.7a1.065,1.065,0,0,1-.23-.37,1.321,1.321,0,0,1-.08-.466V3.128h.426V4.864a1.007,1.007,0,0,0,.049.322.71.71,0,0,0,.143.251A.642.642,0,0,0,9.1,5.6.778.778,0,0,0,9.412,5.658Z" transform="matrix(1, -0.017, 0.017, 1, 137.986, 155.979)" fill="#363636" style="mix-blend-mode: difference;isolation: isolate"/>
    <path id="Path_329" data-name="Path 329" d="M3.857-2.513a4.076,4.076,0,0,1-.142,1.141,2.379,2.379,0,0,1-.388.8A1.562,1.562,0,0,1,2.746-.1a1.7,1.7,0,0,1-.719.154A1.7,1.7,0,0,1,1.307-.1,1.548,1.548,0,0,1,.728-.572a2.376,2.376,0,0,1-.385-.8A4.124,4.124,0,0,1,.2-2.513a4.143,4.143,0,0,1,.14-1.143,2.374,2.374,0,0,1,.385-.8,1.548,1.548,0,0,1,.579-.471,1.7,1.7,0,0,1,.719-.154,1.7,1.7,0,0,1,.719.154,1.562,1.562,0,0,1,.581.471,2.377,2.377,0,0,1,.388.8A4.1,4.1,0,0,1,3.857-2.513Zm-.707,0a4.094,4.094,0,0,0-.093-.949,1.923,1.923,0,0,0-.248-.614.922.922,0,0,0-.359-.331.963.963,0,0,0-.424-.1.963.963,0,0,0-.423.1.922.922,0,0,0-.359.331A1.9,1.9,0,0,0,1-3.462a4.17,4.17,0,0,0-.091.949A4.17,4.17,0,0,0,1-1.564a1.875,1.875,0,0,0,.247.612A.925.925,0,0,0,1.6-.623a.963.963,0,0,0,.423.1.963.963,0,0,0,.424-.1.925.925,0,0,0,.359-.329,1.9,1.9,0,0,0,.248-.612A4.094,4.094,0,0,0,3.15-2.513ZM5.092-3.542a.971.971,0,0,0,.252.717.946.946,0,0,0,.7.252,1.085,1.085,0,0,0,.427-.079.948.948,0,0,0,.313-.21.888.888,0,0,0,.194-.3,1,1,0,0,0,.066-.362,1.123,1.123,0,0,0-.072-.411.881.881,0,0,0-.2-.311.884.884,0,0,0-.306-.2,1.075,1.075,0,0,0-.39-.068,1.089,1.089,0,0,0-.4.072.9.9,0,0,0-.312.2.889.889,0,0,0-.2.308A1.065,1.065,0,0,0,5.092-3.542ZM6.471-1.988q.137-.179.256-.35a1.378,1.378,0,0,1-.422.217,1.635,1.635,0,0,1-.5.074,1.507,1.507,0,0,1-.53-.095,1.311,1.311,0,0,1-.448-.278,1.342,1.342,0,0,1-.31-.453,1.56,1.56,0,0,1-.115-.62,1.578,1.578,0,0,1,.122-.619,1.516,1.516,0,0,1,.345-.506,1.624,1.624,0,0,1,.532-.339,1.812,1.812,0,0,1,.681-.124,1.79,1.79,0,0,1,.667.119,1.449,1.449,0,0,1,.509.334,1.5,1.5,0,0,1,.326.516,1.832,1.832,0,0,1,.115.661,2.12,2.12,0,0,1-.04.42,2.252,2.252,0,0,1-.115.388,2.814,2.814,0,0,1-.182.373q-.107.184-.243.376L5.915-.161a.363.363,0,0,1-.142.115A.475.475,0,0,1,5.562,0H4.935ZM9.005.056a.375.375,0,0,1-.154.2.408.408,0,0,1-.217.065H8.347l2.086-5.236a.405.405,0,0,1,.142-.184.367.367,0,0,1,.215-.065h.29Zm5.754-.7a.233.233,0,0,1,.175.065A.233.233,0,0,1,15-.413V0H11.623V-.235a.445.445,0,0,1,.028-.149.361.361,0,0,1,.094-.142l1.589-1.593q.2-.2.361-.385a2.75,2.75,0,0,0,.273-.369,1.73,1.73,0,0,0,.173-.376,1.331,1.331,0,0,0,.061-.406.952.952,0,0,0-.066-.369.732.732,0,0,0-.182-.264.755.755,0,0,0-.273-.157,1.067,1.067,0,0,0-.34-.053,1.02,1.02,0,0,0-.334.053.908.908,0,0,0-.271.147.871.871,0,0,0-.2.224.922.922,0,0,0-.116.28.334.334,0,0,1-.124.178.321.321,0,0,1-.219.021l-.357-.063a1.818,1.818,0,0,1,.193-.616,1.5,1.5,0,0,1,.36-.446,1.487,1.487,0,0,1,.5-.271,1.965,1.965,0,0,1,.607-.091,1.846,1.846,0,0,1,.607.1,1.394,1.394,0,0,1,.481.278,1.285,1.285,0,0,1,.319.443,1.442,1.442,0,0,1,.115.59,1.592,1.592,0,0,1-.082.52A2.048,2.048,0,0,1,14.6-2.7a3.3,3.3,0,0,1-.329.422q-.187.2-.4.415L12.6-.56q.147-.038.3-.063a1.737,1.737,0,0,1,.282-.025Zm4.06,0a.233.233,0,0,1,.175.065.233.233,0,0,1,.063.17V0H15.683V-.235a.445.445,0,0,1,.028-.149.361.361,0,0,1,.094-.142L17.4-2.118q.2-.2.36-.385a2.75,2.75,0,0,0,.273-.369,1.73,1.73,0,0,0,.173-.376,1.331,1.331,0,0,0,.061-.406.952.952,0,0,0-.067-.369.732.732,0,0,0-.182-.264.755.755,0,0,0-.273-.157A1.067,1.067,0,0,0,17.4-4.5a1.02,1.02,0,0,0-.334.053A.908.908,0,0,0,16.8-4.3a.871.871,0,0,0-.2.224.922.922,0,0,0-.116.28.334.334,0,0,1-.124.178.321.321,0,0,1-.219.021l-.357-.063a1.818,1.818,0,0,1,.193-.616,1.5,1.5,0,0,1,.36-.446,1.487,1.487,0,0,1,.5-.271,1.965,1.965,0,0,1,.607-.091,1.846,1.846,0,0,1,.607.1,1.394,1.394,0,0,1,.481.278,1.285,1.285,0,0,1,.319.443,1.442,1.442,0,0,1,.115.59,1.592,1.592,0,0,1-.082.52,2.048,2.048,0,0,1-.224.457,3.3,3.3,0,0,1-.329.422q-.187.2-.4.415L16.656-.56q.147-.038.3-.063a1.737,1.737,0,0,1,.282-.025Z" transform="matrix(1, -0.017, 0.017, 1, 153.982, 159.207)" fill="#363636" style="mix-blend-mode: difference;isolation: isolate"/>
    <path id="Path_330" data-name="Path 330" d="M-7.17-3.59a4,4,0,0,1-.257,1.465A3.268,3.268,0,0,1-8.155-.993,3.264,3.264,0,0,1-9.28-.26,3.912,3.912,0,0,1-10.735,0h-2.7V-7.18h2.7a3.912,3.912,0,0,1,1.455.26,3.264,3.264,0,0,1,1.125.732,3.263,3.263,0,0,1,.727,1.135A4.005,4.005,0,0,1-7.17-3.59Zm-1.09,0a3.508,3.508,0,0,0-.175-1.148,2.428,2.428,0,0,0-.5-.86,2.118,2.118,0,0,0-.78-.537,2.705,2.705,0,0,0-1.023-.185h-1.63V-.86h1.63a2.705,2.705,0,0,0,1.023-.185,2.118,2.118,0,0,0,.78-.537,2.431,2.431,0,0,0,.5-.858A3.5,3.5,0,0,0-8.26-3.59ZM-1.375-.865l0,.865H-5.83V-7.18h4.45v.865H-4.76V-4.04h2.72V-3.2H-4.76v2.34Zm3.88.02A2.221,2.221,0,0,0,3.2-.94a1.3,1.3,0,0,0,.47-.26.989.989,0,0,0,.267-.393,1.411,1.411,0,0,0,.085-.5,1.037,1.037,0,0,0-.37-.842A1.77,1.77,0,0,0,2.505-3.24h-1.5V-.845Zm-1.5-5.5V-4H2.23A1.8,1.8,0,0,0,3.4-4.312,1.056,1.056,0,0,0,3.78-5.17a1.057,1.057,0,0,0-.365-.9,1.864,1.864,0,0,0-1.135-.28ZM2.28-7.18a4.5,4.5,0,0,1,1.158.13,2.177,2.177,0,0,1,.792.375,1.489,1.489,0,0,1,.458.592,2,2,0,0,1,.148.788,1.571,1.571,0,0,1-.08.5,1.454,1.454,0,0,1-.245.448,1.768,1.768,0,0,1-.415.372,2.417,2.417,0,0,1-.59.275Q5.07-3.39,5.07-2.065a2.017,2.017,0,0,1-.17.838,1.832,1.832,0,0,1-.495.652,2.289,2.289,0,0,1-.8.425A3.583,3.583,0,0,1,2.525,0H-.06V-7.18ZM7.505,0H6.435V-7.18h1.07ZM14.17-6.29H11.89V0H10.83V-6.29H8.54v-.89h5.63Z" transform="matrix(1, -0.017, 0.017, 1, 282.651, 148.814)" fill="#111622"/>
    <path id="Path_327" data-name="Path 327" d="M-5.841-.671V0H-9.333V-.671h1.368V-4.905q0-.2.013-.418l-1.1.931a.311.311,0,0,1-.126.063.323.323,0,0,1-.119,0,.24.24,0,0,1-.1-.038.356.356,0,0,1-.07-.061l-.274-.382L-7.8-6.476h.715V-.671ZM-.783-.832a.3.3,0,0,1,.225.083.3.3,0,0,1,.081.218V0H-4.815V-.3a.572.572,0,0,1,.036-.191.464.464,0,0,1,.122-.182l2.043-2.048q.257-.257.464-.495A3.536,3.536,0,0,0-1.8-3.692a2.224,2.224,0,0,0,.223-.484A1.711,1.711,0,0,0-1.5-4.7a1.225,1.225,0,0,0-.086-.475.941.941,0,0,0-.234-.34.971.971,0,0,0-.351-.2,1.372,1.372,0,0,0-.437-.067,1.311,1.311,0,0,0-.43.067,1.168,1.168,0,0,0-.349.189,1.12,1.12,0,0,0-.256.288,1.186,1.186,0,0,0-.149.36.43.43,0,0,1-.16.229.412.412,0,0,1-.281.027L-4.689-4.7a2.338,2.338,0,0,1,.247-.792,1.922,1.922,0,0,1,.464-.574,1.912,1.912,0,0,1,.641-.349,2.526,2.526,0,0,1,.781-.117,2.374,2.374,0,0,1,.781.124,1.793,1.793,0,0,1,.619.358,1.653,1.653,0,0,1,.41.569A1.854,1.854,0,0,1-.6-4.725,2.046,2.046,0,0,1-.7-4.057a2.633,2.633,0,0,1-.288.587,4.243,4.243,0,0,1-.423.542q-.241.263-.511.533L-3.564-.72q.189-.05.38-.081a2.233,2.233,0,0,1,.362-.031ZM.558-4.7A2.409,2.409,0,0,1,.81-5.494a1.922,1.922,0,0,1,.463-.574,1.912,1.912,0,0,1,.641-.349A2.526,2.526,0,0,1,2.7-6.534a2.379,2.379,0,0,1,.77.119,1.762,1.762,0,0,1,.6.338,1.531,1.531,0,0,1,.389.524,1.608,1.608,0,0,1,.14.675,1.8,1.8,0,0,1-.077.549,1.322,1.322,0,0,1-.218.418,1.29,1.29,0,0,1-.344.3,2.1,2.1,0,0,1-.455.2,1.749,1.749,0,0,1,.927.556,1.5,1.5,0,0,1,.31.974,1.89,1.89,0,0,1-.171.817A1.783,1.783,0,0,1,4.1-.443a2.107,2.107,0,0,1-.691.383,2.61,2.61,0,0,1-.839.133A2.728,2.728,0,0,1,1.7-.052,1.834,1.834,0,0,1,1.076-.4,1.89,1.89,0,0,1,.65-.934,3.891,3.891,0,0,1,.364-1.62l.382-.162a.488.488,0,0,1,.288-.036.272.272,0,0,1,.2.158q.067.135.155.3a1.332,1.332,0,0,0,.236.319A1.259,1.259,0,0,0,2-.783a1.33,1.33,0,0,0,.56.1,1.411,1.411,0,0,0,.567-.106,1.237,1.237,0,0,0,.4-.274,1.139,1.139,0,0,0,.243-.376,1.118,1.118,0,0,0,.081-.41,1.618,1.618,0,0,0-.063-.464.748.748,0,0,0-.241-.362,1.269,1.269,0,0,0-.493-.236,3.214,3.214,0,0,0-.819-.086v-.639a2.708,2.708,0,0,0,.7-.086A1.262,1.262,0,0,0,3.4-3.942a.84.84,0,0,0,.254-.342,1.184,1.184,0,0,0,.079-.441,1.219,1.219,0,0,0-.081-.464.9.9,0,0,0-.227-.331.943.943,0,0,0-.347-.2,1.394,1.394,0,0,0-.434-.065,1.331,1.331,0,0,0-.432.067,1.162,1.162,0,0,0-.351.189,1.12,1.12,0,0,0-.257.288,1.186,1.186,0,0,0-.148.36.43.43,0,0,1-.16.229.4.4,0,0,1-.277.027ZM8.487-2.358v-2.52q0-.131.007-.277t.029-.3L6.26-2.358Zm1.705,0v.508a.186.186,0,0,1-.05.131A.18.18,0,0,1,10-1.665H9.257V0H8.487V-1.665H5.652a.251.251,0,0,1-.167-.056.269.269,0,0,1-.09-.142l-.09-.45L8.429-6.467h.828v4.109Z" transform="matrix(1, -0.017, 0.017, 1, 38.835, 175.492)" fill="#363636" style="mix-blend-mode: difference;isolation: isolate"/>
    <path id="Path_284" data-name="Path 284" d="M30.3,0,1.231.033A1.208,1.208,0,0,0,.025,1.238L0,23.721a1.2,1.2,0,0,0,1.2,1.2l29.071-.033a1.208,1.208,0,0,0,1.206-1.206L31.506,1.2A1.2,1.2,0,0,0,30.3,0ZM12.055,16.079l.008-7.227,7.388-.008-.008,7.227Zm-2.4-8.428,0,3.613-7.228.008,0-4.015L9.655,7.25ZM2.42,13.681l7.228-.008,0,3.613v.4L2.416,17.7ZM21.862,7.637v-.4l7.228-.008,0,4.015-7.228.008Zm-.011,9.635,0-3.613,7.228-.008,0,4.015-7.228.008ZM29.092,4.819l-8.432.009a1.208,1.208,0,0,0-1.206,1.206v.4l-2.49,0,0-2.311,1.705-1.705L29.1,2.41ZM15.265,2.426l-.353.353a1.207,1.207,0,0,0-.354.852l0,2.81-2.49,0v-.4a1.2,1.2,0,0,0-1.2-1.2L2.43,4.849l0-2.409ZM2.413,20.1l8.432-.009a1.208,1.208,0,0,0,1.206-1.206v-.4l2.49,0,0,2.311L12.833,22.5l-10.423.012ZM16.241,22.5l.353-.353a1.207,1.207,0,0,0,.354-.852l0-2.81,2.49,0v.4a1.2,1.2,0,0,0,1.2,1.2l8.432-.009,0,2.409Z" transform="matrix(1, -0.017, 0.017, 1, 29.174, 72.703)" fill="url(#linear-gradient-7)"/>
  </g>
</svg>
