<svg xmlns="http://www.w3.org/2000/svg" xmlns:xlink="http://www.w3.org/1999/xlink" width="893.442" height="786.666" viewBox="0 0 893.442 786.666">
  <defs>
    <linearGradient id="linear-gradient" x1="-0.021" y1="0.039" x2="1.231" y2="0.849" gradientUnits="objectBoundingBox">
      <stop offset="0" stop-color="#3b404e"/>
      <stop offset="1" stop-color="#434958"/>
    </linearGradient>
    <filter id="Rectangle_3" x="161.561" y="15.712" width="731.88" height="770.955" filterUnits="userSpaceOnUse">
      <feOffset dy="20" input="SourceAlpha"/>
      <feGaussianBlur stdDeviation="15" result="blur"/>
      <feFlood flood-color="#727272" flood-opacity="0.141"/>
      <feComposite operator="in" in2="blur"/>
      <feComposite in="SourceGraphic"/>
    </filter>
    <linearGradient id="linear-gradient-2" x1="0.018" y1="0.487" x2="0.979" y2="0.432" gradientUnits="objectBoundingBox">
      <stop offset="0" stop-color="#fff"/>
      <stop offset="1" stop-color="#fff" stop-opacity="0"/>
    </linearGradient>
    <linearGradient id="linear-gradient-3" x1="0.5" x2="1.182" y2="-0.091" gradientUnits="objectBoundingBox">
      <stop offset="0" stop-color="#aeb7c4"/>
      <stop offset="1" stop-color="#fff" stop-opacity="0"/>
    </linearGradient>
    <filter id="Rectangle_3-2" x="0" y="0" width="731.88" height="770.955" filterUnits="userSpaceOnUse">
      <feOffset dy="20" input="SourceAlpha"/>
      <feGaussianBlur stdDeviation="15" result="blur-2"/>
      <feFlood flood-color="#727272" flood-opacity="0.141"/>
      <feComposite operator="in" in2="blur-2"/>
      <feComposite in="SourceGraphic"/>
    </filter>
  </defs>
  <g id="Group_64" data-name="Group 64" transform="matrix(0.998, -0.07, 0.07, 0.998, -505.509, -3333.883)">
    <g id="Group_63" data-name="Group 63" transform="translate(347.636 3389.376)">
      <g id="Group_15" data-name="Group 15" transform="matrix(-0.934, 0.358, -0.358, -0.934, 847.416, 530.25)">
        <g transform="matrix(-0.91, -0.42, 0.42, -0.91, 661.82, 852.39)" filter="url(#Rectangle_3)">
          <g id="Rectangle_3-3" data-name="Rectangle 3" transform="translate(848.44 253.49) rotate(129)" stroke="rgba(255,255,255,0.22)" stroke-width="1.5" fill="url(#linear-gradient)">
            <rect width="602.436" height="338.102" rx="24" stroke="none"/>
            <rect x="0.75" y="0.75" width="600.936" height="336.602" rx="23.25" fill="none"/>
          </g>
        </g>
      </g>
      <g id="symbols" transform="matrix(0.669, -0.743, 0.743, 0.669, 595.051, 346.382)" opacity="0.297">
        <g id="Group_4" data-name="Group 4" transform="translate(35.403 0.519)">
          <g id="Group_3" data-name="Group 3" transform="translate(0 0)">
            <path id="Path_1" data-name="Path 1" d="M5.147,0,0,30.2H8.232L13.383,0Z" transform="translate(0 0)" fill="#fff"/>
          </g>
        </g>
        <g id="Group_6" data-name="Group 6" transform="translate(8.177 0.546)">
          <g id="Group_5" data-name="Group 5" transform="translate(0 0)">
            <path id="Path_2" data-name="Path 2" d="M20.325.006,12.263,20.6l-.86-3.11C9.813,13.747,5.3,8.365,0,4.973L7.372,30.161l8.71-.015L29.045,0Z" transform="translate(0)" fill="#fff"/>
          </g>
        </g>
        <g id="Group_8" data-name="Group 8" transform="translate(0 0.26)">
          <g id="Group_7" data-name="Group 7" transform="translate(0 0)">
            <path id="Path_3" data-name="Path 3" d="M16.455,2.454C15.976.614,14.589.066,12.868,0H.106L0,.6C9.932,3.011,16.5,8.816,19.23,15.8Z" transform="translate(0 0)" fill="#fff"/>
          </g>
        </g>
        <g id="Group_10" data-name="Group 10" transform="translate(48.786 0)">
          <g id="Group_9" data-name="Group 9" transform="translate(0 0)">
            <path id="Path_4" data-name="Path 4" d="M16.683,6.309a15.2,15.2,0,0,1,6.161,1.156l.743.349L24.7,1.268A21.248,21.248,0,0,0,17.327,0C9.193,0,3.459,4.1,3.415,9.968c-.053,4.338,4.084,6.76,7.209,8.206,3.208,1.482,4.283,2.424,4.268,3.747-.025,2.022-2.558,2.949-4.922,2.949a17.279,17.279,0,0,1-7.751-1.582l-1.061-.483L0,29.566a26.07,26.07,0,0,0,9.172,1.609c8.653,0,14.276-4.048,14.335-10.321.036-3.432-2.16-6.051-6.917-8.2-2.879-1.4-4.641-2.333-4.624-3.747C11.966,7.651,13.461,6.309,16.683,6.309Z" transform="translate(0)" fill="#fff"/>
          </g>
        </g>
        <g id="Group_12" data-name="Group 12" transform="translate(71.717 0.553)">
          <g id="Group_11" data-name="Group 11" transform="translate(0 0)">
            <path id="Path_5" data-name="Path 5" d="M22.9,0h-6.36C14.56,0,13.09.538,12.222,2.507L0,30.187H8.644s1.41-3.722,1.73-4.537c.946,0,9.345.013,10.541.013.246,1.054,1,4.524,1,4.524h7.637ZM12.743,19.467c.677-1.734,3.28-8.441,3.28-8.441-.044.083.671-1.747,1.1-2.884l.555,2.6,1.908,8.721Z" transform="translate(0)" fill="#fff"/>
          </g>
        </g>
      </g>
      <text id="_4000_1234_1234_1234" data-name="4000 1234 1234 1234" transform="translate(389.276 462.867) rotate(-47)" fill="#a4acc0" font-size="30" font-family="Lato-Medium, Lato" font-weight="500"><tspan x="-150.563" y="0">4000 1234 1234 1234</tspan></text>
      <text id="John_Doe" data-name="John Doe" transform="translate(357.936 583.951) rotate(-47)" fill="#a4acc0" font-size="20" font-family="Lato-Medium, Lato" font-weight="500"><tspan x="-41.995" y="0">John Doe</tspan></text>
      <text id="VALID_THRU" data-name="VALID
THRU" transform="translate(452.753 481.387) rotate(-47)" fill="#a4acc0" font-size="6" font-family="Lato-Medium, Lato" font-weight="500"><tspan x="0" y="0">VALID</tspan><tspan x="0" y="7">THRU</tspan></text>
      <text id="_09_22" data-name="09/22" transform="translate(480.055 462.703) rotate(-47)" fill="#a4acc0" font-size="16" font-family="Lato-Medium, Lato" font-weight="500"><tspan x="0" y="0">09/22</tspan></text>
      <text id="DEBIT" transform="translate(623.472 286.655) rotate(-47)" fill="#a8b1c6" font-size="20" font-family="Lato-Medium, Lato" font-weight="500"><tspan x="-28.64" y="0">DEBIT</tspan></text>
      <text id="_1234" data-name="1234" transform="translate(368.367 620.766) rotate(-47)" fill="#a4acc0" font-size="21" font-family="Lato-Medium, Lato" font-weight="500"><tspan x="-24.36" y="0">1234</tspan></text>
      <rect id="Rectangle_69" data-name="Rectangle 69" width="374.03" height="58.64" transform="translate(111.976 510.136) rotate(-47)" opacity="0.065" fill="url(#linear-gradient-2)"/>
      <g id="Layer_2" data-name="Layer 2" transform="translate(290.329 322.084) rotate(-47)">
        <g id="Layer_1" data-name="Layer 1" transform="translate(0 0)">
          <path id="Path_8" data-name="Path 8" d="M19.3,29.041c0,.959-.566,1.262-1.31,1.262H1.409c-.917,0-1.4-.238-1.4-1.394V1.231A1.084,1.084,0,0,1,1.231.01H5.643c.959,0,1.31.3,1.31,1.31V24.456h11.13a1.114,1.114,0,0,1,1.191,1.263Z" transform="translate(60.963 10.542)" fill="#2e74ff"/>
          <path id="Path_9" data-name="Path 9" d="M3.537,6.638A3.414,3.414,0,0,1,0,3.363,3.371,3.371,0,0,1,3.537,0a3.353,3.353,0,0,1,3.5,3.317,3.4,3.4,0,0,1-3.5,3.317ZM6.854,29.166c0,.869-.393,1.262-1.262,1.262H1.661c-.917,0-1.352-.3-1.352-1.262V10.307c0-.875.566-1.137,1.352-1.137h3.93c.828,0,1.262.22,1.262,1.137Z" transform="translate(83.411 10.416)" fill="#2e74ff"/>
          <path id="Path_10" data-name="Path 10" d="M20.861,29.993c0,.875-.345,1.31-1.221,1.31H15.578a1.125,1.125,0,0,1-1.262-1.191V20.583a8.521,8.521,0,0,1-4.931,1.834A8.664,8.664,0,0,1,3.71,20.583C1.131,18.529,0,14.95,0,11.109A12.029,12.029,0,0,1,3.186,2.42,8.838,8.838,0,0,1,9.474,0a8.316,8.316,0,0,1,5.5,2.186l.089-.917c.042-.441.345-.7,1.131-.7h3.448c.965,0,1.221.441,1.221,1.221Zm-6.551-23a6.551,6.551,0,0,0-3.645-1.572c-3.186,0-3.841,3.055-3.841,5.717a7.573,7.573,0,0,0,1.09,4.454,3.21,3.21,0,0,0,2.751,1.239,6.652,6.652,0,0,0,3.668-1.394Z" transform="translate(94.374 19.017)" fill="#2e74ff"/>
          <path id="Path_11" data-name="Path 11" d="M20.045,19.83c0,1.1-.3,1.441-1.352,1.441H15.156c-.6,0-1.131-.262-1.191-.87l-.083-.917A11.207,11.207,0,0,1,6.9,21.867C2.132,21.867,0,18.812,0,14.1V1.137C0,.262.6,0,1.352,0h3.93C6.11,0,6.545.22,6.545,1.137V12.923c0,1.787.524,3.055,2.489,3.055a7.372,7.372,0,0,0,4.454-1.7V1.137c0-.875.6-1.137,1.352-1.137h3.93c.828,0,1.263.22,1.263,1.137Z" transform="translate(119.535 19.585)" fill="#2e74ff"/>
          <path id="Path_12" data-name="Path 12" d="M3.546,7.039A3.411,3.411,0,0,1,.009,3.764,3.519,3.519,0,1,1,3.546,7.039ZM6.863,29.567c0,.87-.393,1.263-1.268,1.263H1.664c-.911,0-1.352-.3-1.352-1.263V10.707c0-.875.6-1.137,1.352-1.137h3.93c.828,0,1.268.22,1.268,1.137Z" transform="translate(143.918 10.016)" fill="#2e74ff"/>
          <path id="Path_13" data-name="Path 13" d="M21.009,30.1a1.09,1.09,0,0,1-1.191,1.191H16.15c-.738,0-1.09-.393-1.132-.869l-.089-.917A8.456,8.456,0,0,1,9.385,31.89C3.055,31.89,0,27,0,21.063c0-5.8,3.1-11.654,9.558-11.654a7.223,7.223,0,0,1,4.889,1.751V1.947c0-.786.22-1.191,1.048-1.352L20.122,0c.6,0,.875.351.875.959ZM14.459,16.091a5.443,5.443,0,0,0-3.448-1.4c-3.186,0-4.169,3.365-4.169,5.985s.738,5.89,4.055,5.89a5.753,5.753,0,0,0,3.573-1.572Z" transform="translate(154.896 9.522)" fill="#2e74ff"/>
          <path id="Path_14" data-name="Path 14" d="M23.219,30.3h-5.5a2.6,2.6,0,0,1-2.448-1.263L7.069,17.725H6.938V29.04c0,.917-.393,1.263-1.262,1.263H1.352C.435,30.3,0,30,0,29.04V1.14C0,.271.566.009,1.352.009H5.657c.828,0,1.262.22,1.262,1.131V13.277h.131L14.792.926A2.007,2.007,0,0,1,16.668.009H21.14c.6,0,.828.3.828.655a1.382,1.382,0,0,1-.262.655L12.625,14.676l11,14.012a1.686,1.686,0,0,1,.393.875.744.744,0,0,1-.8.739Z" transform="translate(181.562 10.543)" fill="#bfc1c7"/>
          <path id="Path_15" data-name="Path 15" d="M6.569,30.073a1.066,1.066,0,0,1-1.137,1.191H1.2A1.078,1.078,0,0,1,.007,30.073V1.787C.007.911.4.649,1.055.6L5.64,0c.6,0,.917.393.917,1.1Z" transform="translate(208.83 9.551)" fill="#bfc1c7"/>
          <path id="Path_16" data-name="Path 16" d="M20.67,11.747c0,1.048-.482,1.268-1.572,1.268H6.878a5.441,5.441,0,0,0,5.627,4.276,14.774,14.774,0,0,0,5.5-1.131,1.135,1.135,0,0,1,.524-.131.7.7,0,0,1,.7.6,26.823,26.823,0,0,1,.828,3.406c0,.566-.387.744-.828.959a20.305,20.305,0,0,1-7.885,1.495C4.407,22.484,0,18.208,0,11.222,0,4.457,4.579,0,11.315,0A9.028,9.028,0,0,1,18.079,2.8c2.186,2.317,2.62,5.36,2.62,8.385ZM14.256,8.864c0-1.876-1.1-3.793-3.365-3.793S7.271,6.816,6.961,8.864Z" transform="translate(219.347 18.927)" fill="#bfc1c7"/>
          <path id="Path_17" data-name="Path 17" d="M22.945,20.87a.953.953,0,0,1-1.048,1H19.58c-2.572,0-3.621-.738-4.168-2.007h-.089a9.37,9.37,0,0,1-6.11,2.573C2.924,22.437,0,17.464,0,11.658,0,3.916,4.8,0,9.606,0a6.551,6.551,0,0,1,5.324,2.442l.131-.959A.965.965,0,0,1,16.067.611h3.924a.965.965,0,0,1,1.048,1.048V16.72c0,.435.179.744.655.744h.351c.6,0,.917.214.917.869ZM14.477,6.9a5.955,5.955,0,0,0-3.537-1.483c-2.138,0-4.169,1.745-4.169,5.806,0,2.7.7,5.955,4.014,5.955a5.443,5.443,0,0,0,3.668-1.828Z" transform="translate(242.286 18.975)" fill="#bfc1c7"/>
          <path id="Path_18" data-name="Path 18" d="M6.5,7.593V20.646a1.066,1.066,0,0,1-1.191,1.191H1.2A1.084,1.084,0,0,1,.006,20.646V1.876C.006.828.53.607,1.268.607h3.5c.834,0,1.191.22,1.268.875l.083,1.31C7.694.917,9,0,11.582,0a6.2,6.2,0,0,1,1.191.173c.6.131.6.566.482,1.048l-.655,4.1c-.089.482-.31.7-.7.7S11.243,5.89,10.5,5.89A5.794,5.794,0,0,0,6.5,7.593Z" transform="translate(268.798 18.978)" fill="#bfc1c7"/>
          <path id="Path_19" data-name="Path 19" d="M28.257,49.5l-6.113-9.117a.449.449,0,0,0-.374-.2H11.731V.433A.446.446,0,0,0,11.272,0H.449A.446.446,0,0,0,0,.446V49.752a.449.449,0,0,0,.449.449H27.883a.453.453,0,0,0,.4-.236.459.459,0,0,0-.023-.462Z" fill="#2e74ff"/>
          <path id="Path_20" data-name="Path 20" d="M34.593,49.492,13.683,19.96,32.7.748A.449.449,0,0,0,32.376,0H18.825A.443.443,0,0,0,18.5.141L0,19.753v14.3l5.7-5.766L20.242,50a.453.453,0,0,0,.374.2H34.223a.454.454,0,0,0,.371-.708Z" transform="translate(11.741 0)" fill="#bfc1c7"/>
        </g>
      </g>
      <path id="Path_43" data-name="Path 43" d="M1.824.057,51.565,0a1.771,1.771,0,0,1,1.774,1.774L53.294,40.85a1.781,1.781,0,0,1-1.779,1.778l-49.741.057A1.771,1.771,0,0,1,0,40.912L.045,1.836A1.781,1.781,0,0,1,1.824.057Z" transform="translate(219.363 510.537) rotate(-47)" fill="#c4c9d0"/>
      <path id="Path_42" data-name="Path 42" d="M52.134,0,2.118.056A2.078,2.078,0,0,0,.043,2.131L0,40.811a2.067,2.067,0,0,0,2.07,2.07l50.016-.056a2.078,2.078,0,0,0,2.075-2.074L54.2,2.07A2.067,2.067,0,0,0,52.134,0ZM20.74,27.664l.014-12.433,12.711-.014L33.451,27.65Zm-4.129-14.5L16.6,19.38l-12.435.014.008-6.907,12.435-.014ZM4.164,23.538,16.6,23.524l-.007,6.217v.691l-12.435.014Zm33.448-10.4v-.691l12.435-.014-.008,6.907-12.435.014Zm-.019,16.577L37.6,23.5l12.435-.014-.008,6.907-12.435.014ZM50.053,8.291l-14.507.016a2.078,2.078,0,0,0-2.075,2.075v.691l-4.283,0,0-3.977,2.934-2.934,17.932-.02ZM26.263,4.173l-.608.608a2.076,2.076,0,0,0-.609,1.466l-.005,4.835-4.283,0V10.4a2.067,2.067,0,0,0-2.07-2.07L4.181,8.342l0-4.144ZM4.152,34.59l14.507-.016A2.078,2.078,0,0,0,20.734,32.5v-.691l4.283,0,0,3.977L22.08,38.714l-17.932.02Zm23.789,4.118.608-.608a2.076,2.076,0,0,0,.609-1.466l.005-4.835,4.283,0v.691a2.067,2.067,0,0,0,2.07,2.07l14.507-.016,0,4.144Z" transform="translate(218.509 511.125) rotate(-47)" fill="url(#linear-gradient-3)"/>
    </g>
    <g id="Group_62" data-name="Group 62" transform="translate(187.564 3362.433)">
      <g id="Group_15-2" data-name="Group 15" transform="matrix(-0.934, 0.358, -0.358, -0.934, 847.416, 530.25)">
        <g transform="matrix(-0.91, -0.42, 0.42, -0.91, 522.04, 769.88)" filter="url(#Rectangle_3-2)">
          <g id="Rectangle_3-4" data-name="Rectangle 3" transform="translate(686.88 237.77) rotate(129)" stroke="rgba(255,255,255,0.22)" stroke-width="1.5" fill="url(#linear-gradient)">
            <rect width="602.436" height="338.102" rx="24" stroke="none"/>
            <rect x="0.75" y="0.75" width="600.936" height="336.602" rx="23.25" fill="none"/>
          </g>
        </g>
      </g>
      <g id="symbols-2" data-name="symbols" transform="matrix(0.669, -0.743, 0.743, 0.669, 595.051, 346.382)" opacity="0.297">
        <g id="Group_4-2" data-name="Group 4" transform="translate(35.403 0.519)">
          <g id="Group_3-2" data-name="Group 3" transform="translate(0 0)">
            <path id="Path_1-2" data-name="Path 1" d="M5.147,0,0,30.2H8.232L13.383,0Z" transform="translate(0 0)" fill="#fff"/>
          </g>
        </g>
        <g id="Group_6-2" data-name="Group 6" transform="translate(8.177 0.546)">
          <g id="Group_5-2" data-name="Group 5" transform="translate(0 0)">
            <path id="Path_2-2" data-name="Path 2" d="M20.325.006,12.263,20.6l-.86-3.11C9.813,13.747,5.3,8.365,0,4.973L7.372,30.161l8.71-.015L29.045,0Z" transform="translate(0)" fill="#fff"/>
          </g>
        </g>
        <g id="Group_8-2" data-name="Group 8" transform="translate(0 0.26)">
          <g id="Group_7-2" data-name="Group 7" transform="translate(0 0)">
            <path id="Path_3-2" data-name="Path 3" d="M16.455,2.454C15.976.614,14.589.066,12.868,0H.106L0,.6C9.932,3.011,16.5,8.816,19.23,15.8Z" transform="translate(0 0)" fill="#fff"/>
          </g>
        </g>
        <g id="Group_10-2" data-name="Group 10" transform="translate(48.786 0)">
          <g id="Group_9-2" data-name="Group 9" transform="translate(0 0)">
            <path id="Path_4-2" data-name="Path 4" d="M16.683,6.309a15.2,15.2,0,0,1,6.161,1.156l.743.349L24.7,1.268A21.248,21.248,0,0,0,17.327,0C9.193,0,3.459,4.1,3.415,9.968c-.053,4.338,4.084,6.76,7.209,8.206,3.208,1.482,4.283,2.424,4.268,3.747-.025,2.022-2.558,2.949-4.922,2.949a17.279,17.279,0,0,1-7.751-1.582l-1.061-.483L0,29.566a26.07,26.07,0,0,0,9.172,1.609c8.653,0,14.276-4.048,14.335-10.321.036-3.432-2.16-6.051-6.917-8.2-2.879-1.4-4.641-2.333-4.624-3.747C11.966,7.651,13.461,6.309,16.683,6.309Z" transform="translate(0)" fill="#fff"/>
          </g>
        </g>
        <g id="Group_12-2" data-name="Group 12" transform="translate(71.717 0.553)">
          <g id="Group_11-2" data-name="Group 11" transform="translate(0 0)">
            <path id="Path_5-2" data-name="Path 5" d="M22.9,0h-6.36C14.56,0,13.09.538,12.222,2.507L0,30.187H8.644s1.41-3.722,1.73-4.537c.946,0,9.345.013,10.541.013.246,1.054,1,4.524,1,4.524h7.637ZM12.743,19.467c.677-1.734,3.28-8.441,3.28-8.441-.044.083.671-1.747,1.1-2.884l.555,2.6,1.908,8.721Z" transform="translate(0)" fill="#fff"/>
          </g>
        </g>
      </g>
      <text id="_4000_1234_1234_1234-2" data-name="4000 1234 1234 1234" transform="translate(389.276 462.867) rotate(-47)" fill="#a4acc0" font-size="30" font-family="Lato-Medium, Lato" font-weight="500"><tspan x="-150.563" y="0">4000 1234 1234 1234</tspan></text>
      <text id="John_Doe-2" data-name="John Doe" transform="translate(357.936 583.951) rotate(-47)" fill="#a4acc0" font-size="20" font-family="Lato-Medium, Lato" font-weight="500"><tspan x="-41.995" y="0">John Doe</tspan></text>
      <text id="VALID_THRU-2" data-name="VALID
THRU" transform="translate(452.753 481.387) rotate(-47)" fill="#a4acc0" font-size="6" font-family="Lato-Medium, Lato" font-weight="500"><tspan x="0" y="0">VALID</tspan><tspan x="0" y="7">THRU</tspan></text>
      <text id="_09_22-2" data-name="09/22" transform="translate(480.055 462.703) rotate(-47)" fill="#a4acc0" font-size="16" font-family="Lato-Medium, Lato" font-weight="500"><tspan x="0" y="0">09/22</tspan></text>
      <text id="DEBIT-2" data-name="DEBIT" transform="translate(623.472 286.655) rotate(-47)" fill="#a8b1c6" font-size="20" font-family="Lato-Medium, Lato" font-weight="500"><tspan x="-28.64" y="0">DEBIT</tspan></text>
      <text id="_1234-2" data-name="1234" transform="translate(368.367 620.766) rotate(-47)" fill="#a4acc0" font-size="21" font-family="Lato-Medium, Lato" font-weight="500"><tspan x="-24.36" y="0">1234</tspan></text>
      <rect id="Rectangle_69-2" data-name="Rectangle 69" width="374.03" height="58.64" transform="translate(113.043 509.208) rotate(-47)" opacity="0.065" fill="url(#linear-gradient-2)"/>
      <g id="Layer_2-2" data-name="Layer 2" transform="translate(290.329 322.084) rotate(-47)">
        <g id="Layer_1-2" data-name="Layer 1" transform="translate(0 0)">
          <path id="Path_8-2" data-name="Path 8" d="M19.3,29.041c0,.959-.566,1.262-1.31,1.262H1.409c-.917,0-1.4-.238-1.4-1.394V1.231A1.084,1.084,0,0,1,1.231.01H5.643c.959,0,1.31.3,1.31,1.31V24.456h11.13a1.114,1.114,0,0,1,1.191,1.263Z" transform="translate(60.963 10.542)" fill="#2e74ff"/>
          <path id="Path_9-2" data-name="Path 9" d="M3.537,6.638A3.414,3.414,0,0,1,0,3.363,3.371,3.371,0,0,1,3.537,0a3.353,3.353,0,0,1,3.5,3.317,3.4,3.4,0,0,1-3.5,3.317ZM6.854,29.166c0,.869-.393,1.262-1.262,1.262H1.661c-.917,0-1.352-.3-1.352-1.262V10.307c0-.875.566-1.137,1.352-1.137h3.93c.828,0,1.262.22,1.262,1.137Z" transform="translate(83.411 10.416)" fill="#2e74ff"/>
          <path id="Path_10-2" data-name="Path 10" d="M20.861,29.993c0,.875-.345,1.31-1.221,1.31H15.578a1.125,1.125,0,0,1-1.262-1.191V20.583a8.521,8.521,0,0,1-4.931,1.834A8.664,8.664,0,0,1,3.71,20.583C1.131,18.529,0,14.95,0,11.109A12.029,12.029,0,0,1,3.186,2.42,8.838,8.838,0,0,1,9.474,0a8.316,8.316,0,0,1,5.5,2.186l.089-.917c.042-.441.345-.7,1.131-.7h3.448c.965,0,1.221.441,1.221,1.221Zm-6.551-23a6.551,6.551,0,0,0-3.645-1.572c-3.186,0-3.841,3.055-3.841,5.717a7.573,7.573,0,0,0,1.09,4.454,3.21,3.21,0,0,0,2.751,1.239,6.652,6.652,0,0,0,3.668-1.394Z" transform="translate(94.374 19.017)" fill="#2e74ff"/>
          <path id="Path_11-2" data-name="Path 11" d="M20.045,19.83c0,1.1-.3,1.441-1.352,1.441H15.156c-.6,0-1.131-.262-1.191-.87l-.083-.917A11.207,11.207,0,0,1,6.9,21.867C2.132,21.867,0,18.812,0,14.1V1.137C0,.262.6,0,1.352,0h3.93C6.11,0,6.545.22,6.545,1.137V12.923c0,1.787.524,3.055,2.489,3.055a7.372,7.372,0,0,0,4.454-1.7V1.137c0-.875.6-1.137,1.352-1.137h3.93c.828,0,1.263.22,1.263,1.137Z" transform="translate(119.535 19.585)" fill="#2e74ff"/>
          <path id="Path_12-2" data-name="Path 12" d="M3.546,7.039A3.411,3.411,0,0,1,.009,3.764,3.519,3.519,0,1,1,3.546,7.039ZM6.863,29.567c0,.87-.393,1.263-1.268,1.263H1.664c-.911,0-1.352-.3-1.352-1.263V10.707c0-.875.6-1.137,1.352-1.137h3.93c.828,0,1.268.22,1.268,1.137Z" transform="translate(143.918 10.016)" fill="#2e74ff"/>
          <path id="Path_13-2" data-name="Path 13" d="M21.009,30.1a1.09,1.09,0,0,1-1.191,1.191H16.15c-.738,0-1.09-.393-1.132-.869l-.089-.917A8.456,8.456,0,0,1,9.385,31.89C3.055,31.89,0,27,0,21.063c0-5.8,3.1-11.654,9.558-11.654a7.223,7.223,0,0,1,4.889,1.751V1.947c0-.786.22-1.191,1.048-1.352L20.122,0c.6,0,.875.351.875.959ZM14.459,16.091a5.443,5.443,0,0,0-3.448-1.4c-3.186,0-4.169,3.365-4.169,5.985s.738,5.89,4.055,5.89a5.753,5.753,0,0,0,3.573-1.572Z" transform="translate(154.896 9.522)" fill="#2e74ff"/>
          <path id="Path_14-2" data-name="Path 14" d="M23.219,30.3h-5.5a2.6,2.6,0,0,1-2.448-1.263L7.069,17.725H6.938V29.04c0,.917-.393,1.263-1.262,1.263H1.352C.435,30.3,0,30,0,29.04V1.14C0,.271.566.009,1.352.009H5.657c.828,0,1.262.22,1.262,1.131V13.277h.131L14.792.926A2.007,2.007,0,0,1,16.668.009H21.14c.6,0,.828.3.828.655a1.382,1.382,0,0,1-.262.655L12.625,14.676l11,14.012a1.686,1.686,0,0,1,.393.875.744.744,0,0,1-.8.739Z" transform="translate(181.562 10.543)" fill="#bfc1c7"/>
          <path id="Path_15-2" data-name="Path 15" d="M6.569,30.073a1.066,1.066,0,0,1-1.137,1.191H1.2A1.078,1.078,0,0,1,.007,30.073V1.787C.007.911.4.649,1.055.6L5.64,0c.6,0,.917.393.917,1.1Z" transform="translate(208.83 9.551)" fill="#bfc1c7"/>
          <path id="Path_16-2" data-name="Path 16" d="M20.67,11.747c0,1.048-.482,1.268-1.572,1.268H6.878a5.441,5.441,0,0,0,5.627,4.276,14.774,14.774,0,0,0,5.5-1.131,1.135,1.135,0,0,1,.524-.131.7.7,0,0,1,.7.6,26.823,26.823,0,0,1,.828,3.406c0,.566-.387.744-.828.959a20.305,20.305,0,0,1-7.885,1.495C4.407,22.484,0,18.208,0,11.222,0,4.457,4.579,0,11.315,0A9.028,9.028,0,0,1,18.079,2.8c2.186,2.317,2.62,5.36,2.62,8.385ZM14.256,8.864c0-1.876-1.1-3.793-3.365-3.793S7.271,6.816,6.961,8.864Z" transform="translate(219.347 18.927)" fill="#bfc1c7"/>
          <path id="Path_17-2" data-name="Path 17" d="M22.945,20.87a.953.953,0,0,1-1.048,1H19.58c-2.572,0-3.621-.738-4.168-2.007h-.089a9.37,9.37,0,0,1-6.11,2.573C2.924,22.437,0,17.464,0,11.658,0,3.916,4.8,0,9.606,0a6.551,6.551,0,0,1,5.324,2.442l.131-.959A.965.965,0,0,1,16.067.611h3.924a.965.965,0,0,1,1.048,1.048V16.72c0,.435.179.744.655.744h.351c.6,0,.917.214.917.869ZM14.477,6.9a5.955,5.955,0,0,0-3.537-1.483c-2.138,0-4.169,1.745-4.169,5.806,0,2.7.7,5.955,4.014,5.955a5.443,5.443,0,0,0,3.668-1.828Z" transform="translate(242.286 18.975)" fill="#bfc1c7"/>
          <path id="Path_18-2" data-name="Path 18" d="M6.5,7.593V20.646a1.066,1.066,0,0,1-1.191,1.191H1.2A1.084,1.084,0,0,1,.006,20.646V1.876C.006.828.53.607,1.268.607h3.5c.834,0,1.191.22,1.268.875l.083,1.31C7.694.917,9,0,11.582,0a6.2,6.2,0,0,1,1.191.173c.6.131.6.566.482,1.048l-.655,4.1c-.089.482-.31.7-.7.7S11.243,5.89,10.5,5.89A5.794,5.794,0,0,0,6.5,7.593Z" transform="translate(268.798 18.978)" fill="#bfc1c7"/>
          <path id="Path_19-2" data-name="Path 19" d="M28.257,49.5l-6.113-9.117a.449.449,0,0,0-.374-.2H11.731V.433A.446.446,0,0,0,11.272,0H.449A.446.446,0,0,0,0,.446V49.752a.449.449,0,0,0,.449.449H27.883a.453.453,0,0,0,.4-.236.459.459,0,0,0-.023-.462Z" fill="#2e74ff"/>
          <path id="Path_20-2" data-name="Path 20" d="M34.593,49.492,13.683,19.96,32.7.748A.449.449,0,0,0,32.376,0H18.825A.443.443,0,0,0,18.5.141L0,19.753v14.3l5.7-5.766L20.242,50a.453.453,0,0,0,.374.2H34.223a.454.454,0,0,0,.371-.708Z" transform="translate(11.741 0)" fill="#bfc1c7"/>
        </g>
      </g>
      <path id="Path_43-2" data-name="Path 43" d="M1.824.057,51.565,0a1.771,1.771,0,0,1,1.774,1.774L53.294,40.85a1.781,1.781,0,0,1-1.779,1.778l-49.741.057A1.771,1.771,0,0,1,0,40.912L.045,1.836A1.781,1.781,0,0,1,1.824.057Z" transform="translate(219.363 510.537) rotate(-47)" fill="#c4c9d0"/>
      <path id="Path_42-2" data-name="Path 42" d="M52.134,0,2.118.056A2.078,2.078,0,0,0,.043,2.131L0,40.811a2.067,2.067,0,0,0,2.07,2.07l50.016-.056a2.078,2.078,0,0,0,2.075-2.074L54.2,2.07A2.067,2.067,0,0,0,52.134,0ZM20.74,27.664l.014-12.433,12.711-.014L33.451,27.65Zm-4.129-14.5L16.6,19.38l-12.435.014.008-6.907,12.435-.014ZM4.164,23.538,16.6,23.524l-.007,6.217v.691l-12.435.014Zm33.448-10.4v-.691l12.435-.014-.008,6.907-12.435.014Zm-.019,16.577L37.6,23.5l12.435-.014-.008,6.907-12.435.014ZM50.053,8.291l-14.507.016a2.078,2.078,0,0,0-2.075,2.075v.691l-4.283,0,0-3.977,2.934-2.934,17.932-.02ZM26.263,4.173l-.608.608a2.076,2.076,0,0,0-.609,1.466l-.005,4.835-4.283,0V10.4a2.067,2.067,0,0,0-2.07-2.07L4.181,8.342l0-4.144ZM4.152,34.59l14.507-.016A2.078,2.078,0,0,0,20.734,32.5v-.691l4.283,0,0,3.977L22.08,38.714l-17.932.02Zm23.789,4.118.608-.608a2.076,2.076,0,0,0,.609-1.466l.005-4.835,4.283,0v.691a2.067,2.067,0,0,0,2.07,2.07l14.507-.016,0,4.144Z" transform="translate(218.509 511.125) rotate(-47)" fill="url(#linear-gradient-3)"/>
    </g>
  </g>
</svg>
