<svg xmlns="http://www.w3.org/2000/svg" xmlns:xlink="http://www.w3.org/1999/xlink" width="59.997" height="60.001" viewBox="0 0 59.997 60.001">
  <defs>
    <linearGradient id="linear-gradient" x1="0.5" x2="0.5" y2="1" gradientUnits="objectBoundingBox">
      <stop offset="0" stop-color="#316cff"/>
      <stop offset="1" stop-color="#fff"/>
    </linearGradient>
  </defs>
  <g id="Page-1" transform="translate(0 0.001)">
    <g id="_059---Money-Bag" data-name="059---Money-Bag" transform="translate(0 -1)">
      <path id="Shape" d="M54.135,47.653a9.6,9.6,0,0,0,1.836-5.606A1,1,0,0,0,55.02,41a1.011,1.011,0,0,0-1.047.951,7.658,7.658,0,0,1-1.407,4.46C50.615,48.875,46.913,49,46.19,49a1,1,0,0,0,0,2c.884,0,5.421-.161,7.945-3.347Z" fill="url(#linear-gradient)"/>
      <path id="Shape-2" data-name="Shape" d="M34,35a1,1,0,0,0-2,0,4,4,0,0,0,4,4v1a1,1,0,0,0,2,0V39a4,4,0,0,0,0-8V27a2,2,0,0,1,2,2,1,1,0,0,0,2,0,4,4,0,0,0-4-4V24a1,1,0,0,0-2,0v1a4,4,0,0,0,0,8v4A2,2,0,0,1,34,35Zm0-6a2,2,0,0,1,2-2v4A2,2,0,0,1,34,29Zm4,4a2,2,0,0,1,0,4Z" fill="url(#linear-gradient)"/>
      <path id="Shape-3" data-name="Shape" d="M59.164,34.771C56.7,24.3,51.222,18.233,47.266,15.064c4.961.374,6.558,2.438,6.6,2.5a1,1,0,0,0,1.656-1.121c-.072-.108-1.461-2.092-5.5-3A4.587,4.587,0,0,0,51.7,10a5.135,5.135,0,0,0-3.824-4.658,18.241,18.241,0,0,0,.134-2.177,2,2,0,0,0-2.781-1.838,5.713,5.713,0,0,0-1.392.893,2.628,2.628,0,0,1-3.737,0,4.6,4.6,0,0,0-6.242,0,2.629,2.629,0,0,1-3.738,0,5.722,5.722,0,0,0-1.388-.892,2,2,0,0,0-2.777,1.838c0,2.488.492,6.926,3.607,9.906A27.588,27.588,0,0,0,25,16.543V9c0-2.28-3.225-4-7.5-4S10,6.72,10,9V19.075C6.493,19.425,4,21,4,23V48.435C1.584,49.084,0,50.4,0,52v5c0,2.28,3.225,4,7.5,4,3.823,0,6.8-1.377,7.387-3.3A11.233,11.233,0,0,0,20.5,59c4.275,0,7.5-1.72,7.5-4V42c0-2.28-3.225-4-7.5-4a14.838,14.838,0,0,0-1.5.075V23c0-2.19-2.977-3.858-7-3.987V11.769A11.388,11.388,0,0,0,17.5,13,11.388,11.388,0,0,0,23,11.769v6.82c-.659.737-1.321,1.54-1.974,2.43A1,1,0,0,0,22.638,22.2,30.314,30.314,0,0,1,24.7,19.7c.008-.009.015-.018.023-.026a26.288,26.288,0,0,1,6.637-5.319,6.346,6.346,0,0,0,1.543.513l-2.578,2.406a1,1,0,1,0,1.366,1.462l4-3.731h.319v3a1,1,0,1,0,2,0V15h.319l4,3.731A1,1,0,0,0,43.7,17.269l-2.6-2.416a6.3,6.3,0,0,0,1.533-.515c2.643,1.43,11.331,7.08,14.585,20.891,1.415,6.012.9,10.611-1.515,13.666-3.1,3.9-8.468,4.1-9.513,4.1H32a1,1,0,0,0,0,2H46.19c1.7,0,7.505-.351,11.08-4.863,2.818-3.559,3.456-8.729,1.894-15.366ZM7.5,50c3.307,0,5.5,1.2,5.5,2s-2.193,2-5.5,2S2,52.8,2,52,4.193,50,7.5,50Zm0,9C4.193,59,2,57.8,2,57V54.769A11.388,11.388,0,0,0,7.5,56,11.388,11.388,0,0,0,13,54.769V57C13,57.8,10.807,59,7.5,59Zm13-2c-3.307,0-5.5-1.2-5.5-2V44.769A11.388,11.388,0,0,0,20.5,46,11.388,11.388,0,0,0,26,44.769V55C26,55.8,23.807,57,20.5,57ZM26,42c0,.8-2.193,2-5.5,2S15,42.8,15,42s2.193-2,5.5-2S26,41.2,26,42ZM13,42v7.231A11.388,11.388,0,0,0,7.5,48a14.838,14.838,0,0,0-1.5.075V25.769A11.388,11.388,0,0,0,11.5,27,11.388,11.388,0,0,0,17,25.769V38.435C14.584,39.084,13,40.4,13,42Zm4-19c0,.8-2.193,2-5.5,2S6,23.8,6,23s2.193-2,5.5-2S17,22.2,17,23Zm.5-12C14.193,11,12,9.8,12,9s2.193-2,5.5-2S23,8.2,23,9,20.807,11,17.5,11Zm32.2-1c0,1.639-1.775,2.984-4,3a5.164,5.164,0,0,1-1.106-.127,11.848,11.848,0,0,0,2.921-5.53A3.064,3.064,0,0,1,49.7,10ZM28.868,3.78a4.6,4.6,0,0,0,6.238,0,2.632,2.632,0,0,1,3.74,0,4.6,4.6,0,0,0,6.242,0A4.188,4.188,0,0,1,46,3.164c0,1.857-.345,6.448-3.567,8.965a4.289,4.289,0,0,1-2.51.859,21.629,21.629,0,0,0,2.041-4.721,1,1,0,0,0-1.928-.536A18.345,18.345,0,0,1,37.519,13H36.491a18.518,18.518,0,0,1-2.523-5.269,1,1,0,1,0-1.927.537,21.644,21.644,0,0,0,2.043,4.725,4.3,4.3,0,0,1-2.562-.863C28.3,9.614,27.955,5.023,27.955,3.172a3.911,3.911,0,0,1,.913.608Z" fill="url(#linear-gradient)"/>
      <path id="Shape-4" data-name="Shape" d="M54.135,47.653a9.6,9.6,0,0,0,1.836-5.606A1,1,0,0,0,55.02,41a1.013,1.013,0,0,0-1.047.951,7.658,7.658,0,0,1-1.407,4.46C50.615,48.875,46.913,49,46.19,49a1,1,0,0,0,0,2c.884,0,5.421-.161,7.945-3.347Z" fill="url(#linear-gradient)"/>
    </g>
  </g>
</svg>
