<svg xmlns="http://www.w3.org/2000/svg" width="413.507" height="512" viewBox="0 0 413.507 512">
  <g id="success" transform="translate(-49.247 0)">
    <g id="Group_133" data-name="Group 133">
      <path id="Path_132" data-name="Path 132" d="M433.621,159.124a7.587,7.587,0,0,1-7.587-7.587V66.757a7.587,7.587,0,0,1,15.174,0v84.78A7.588,7.588,0,0,1,433.621,159.124Z" fill="#407093"/>
    </g>
    <g id="Group_134" data-name="Group 134">
      <path id="Path_133" data-name="Path 133" d="M462.753,315.119H211.437V258.351a10,10,0,0,1,10-10H462.753Z" fill="#f9f6f9"/>
    </g>
    <g id="Group_135" data-name="Group 135">
      <path id="Path_134" data-name="Path 134" d="M462.753,248.351l-10.566-4.226L440.1,248.351H260.118v-42.1a10,10,0,0,1,10-10H462.753Z" fill="#f9f6f9"/>
    </g>
    <g id="Group_136" data-name="Group 136">
      <path id="Path_135" data-name="Path 135" d="M462.753,196.246l-10.566-6.308L440.1,196.246H309.908v-42.1a10,10,0,0,1,10-10H459.753a3,3,0,0,1,3,3Z" fill="#f9f6f9"/>
    </g>
    <g id="Group_137" data-name="Group 137">
      <path id="Path_136" data-name="Path 136" d="M440.1,248.351v16.6a9.773,9.773,0,0,1-9.773,9.773H211.437v40.4H462.753V248.351Z" fill="#dddaec"/>
    </g>
    <g id="Group_138" data-name="Group 138">
      <path id="Path_137" data-name="Path 137" d="M440.1,196.246v19.382a9.773,9.773,0,0,1-9.773,9.773H260.118V248.35H462.753v-52.1H440.1Z" fill="#dddaec"/>
    </g>
    <g id="Group_139" data-name="Group 139">
      <path id="Path_138" data-name="Path 138" d="M459.719,144.141H440.1V163.65a9.773,9.773,0,0,1-9.773,9.773H309.908v22.823H462.753V147.175a3.034,3.034,0,0,0-3.034-3.034Z" fill="#dddaec"/>
    </g>
    <g id="Group_140" data-name="Group 140">
      <path id="Path_139" data-name="Path 139" d="M448.753,512H63.247a14,14,0,0,1-14-14V309.9a14,14,0,0,1,14-14H448.754a14,14,0,0,1,14,14V498a14,14,0,0,1-14,14Z" fill="#c8ea73"/>
    </g>
    <g id="Group_141" data-name="Group 141">
      <path id="Path_140" data-name="Path 140" d="M448.753,295.9h-10.1V472.727A15.173,15.173,0,0,1,423.48,487.9H49.247V498a14,14,0,0,0,14,14H448.754a14,14,0,0,0,14-14V309.9a14,14,0,0,0-14-14Z" fill="#aad880"/>
    </g>
    <g id="Group_142" data-name="Group 142">
      <path id="Path_141" data-name="Path 141" d="M394.5,328.113a75.46,75.46,0,0,0,68.25,43.241V309.9a14,14,0,0,0-14-14H63.247a14,14,0,0,0-14,14v61.454a75.462,75.462,0,0,0,68.25-43.241,5.046,5.046,0,0,1,4.562-2.892h76.618a2.019,2.019,0,0,1,1.511,3.352c-3.028,3.51-5.774,7.38-8.979,10.584-5.756,5.756-13.667,10.031-17.771,17.124-4.046,6.992-3.832,15.958-5.966,23.944-2.063,7.719-6.791,15.355-6.791,23.724s4.728,16,6.791,23.723c2.135,7.986,1.92,16.951,5.966,23.944,4.1,7.093,12.015,11.368,17.771,17.124,3.164,3.164,5.883,6.977,8.867,10.451a2.021,2.021,0,0,1-1.546,3.326H121.98a5.046,5.046,0,0,1-4.557-2.881,75.458,75.458,0,0,0-68.176-43.09V498a14,14,0,0,0,14,14H448.754a14,14,0,0,0,14-14V436.546a75.458,75.458,0,0,0-68.176,43.09,5.044,5.044,0,0,1-4.557,2.881h-76.55a2.02,2.02,0,0,1-1.546-3.325c2.984-3.474,5.7-7.287,8.866-10.45,5.756-5.756,13.667-10.031,17.771-17.124,4.046-6.992,3.832-15.958,5.966-23.944,2.063-7.719,6.791-15.355,6.791-23.724s-4.728-16-6.791-23.723c-2.135-7.986-1.92-16.951-5.966-23.944-4.1-7.093-12.015-11.368-17.771-17.124-3.2-3.2-5.951-7.075-8.979-10.585a2.019,2.019,0,0,1,1.511-3.352h76.618a5.046,5.046,0,0,1,4.563,2.891Z" fill="#aad880"/>
    </g>
    <g id="Group_143" data-name="Group 143">
      <path id="Path_142" data-name="Path 142" d="M438.653,440.479v32.247A15.173,15.173,0,0,1,423.48,487.9H49.247V498a14,14,0,0,0,14,14H448.754a14,14,0,0,0,14-14V436.546a75.37,75.37,0,0,0-24.1,3.933Z" fill="#93c8a5"/>
    </g>
    <g id="Group_144" data-name="Group 144">
      <path id="Path_143" data-name="Path 143" d="M448.753,295.9h-10.1v71.52a75.368,75.368,0,0,0,24.1,3.934V309.9a14,14,0,0,0-14-14Z" fill="#93c8a5"/>
    </g>
    <g id="Group_145" data-name="Group 145">
      <path id="Path_144" data-name="Path 144" d="M441.1,72.517,318.331,40.407a5.058,5.058,0,0,1,0-9.786L434.762.167A5.058,5.058,0,0,1,441.1,5.06V72.517Z" fill="#dd636e"/>
    </g>
    <g id="Group_146" data-name="Group 146">
      <path id="Path_145" data-name="Path 145" d="M434.762.167l-22.24,5.817V65.042L441.1,72.517V5.06A5.059,5.059,0,0,0,434.762.167Z" fill="#da4a54"/>
    </g>
    <path id="Path_146" data-name="Path 146" d="M318.344,76.157H286.037a7.587,7.587,0,1,0,0,15.174H300.02L237.747,153.6a7.541,7.541,0,0,1-5.365,2.223H196.931a22.61,22.61,0,0,0-16.093,6.666L103.428,239.9a7.587,7.587,0,0,0,10.728,10.73l77.41-77.41A7.537,7.537,0,0,1,196.93,171h35.451a22.611,22.611,0,0,0,16.093-6.666l62.282-62.282v14a7.587,7.587,0,0,0,15.174,0V83.744a7.586,7.586,0,0,0-7.586-7.587Z" fill="#80bd94"/>
    <path id="Path_147" data-name="Path 147" d="M264.659,397.2c-4.246-1.5-9.46-3.49-12.083-5.543a3.752,3.752,0,0,1,2.064-4.565,8.468,8.468,0,0,1,6.815.7c.363.227.65.417.65.417,7.369,4.7,15.584-4.646,9.977-11.352a21.128,21.128,0,0,0-7.891-4.307v-.177a7.587,7.587,0,1,0-15.174-.1v.71a18.594,18.594,0,0,0-11.491,14.07c-1.222,6.486.944,12.811,5.654,16.506,4.354,3.415,10.466,5.834,16.423,7.939,2.6.919,3.7,2.662,3.276,5.184a6.325,6.325,0,0,1-6.326,5.374c-4.539.034-5.688-.134-8.906-2.216a7.779,7.779,0,0,0-10.546,1.844,7.586,7.586,0,0,0,2.044,10.726,26.519,26.519,0,0,0,9.872,4.283v.052a7.753,7.753,0,0,0,6.6,7.776A7.589,7.589,0,0,0,264.19,437v-1.167A21.58,21.58,0,0,0,277.842,419.2c1.646-9.793-3.651-18.636-13.183-22.006Z" fill="#c8ea73"/>
    <g id="Group_147" data-name="Group 147">
      <path id="Path_148" data-name="Path 148" d="M256,469.979a66.029,66.029,0,1,1,66.029-66.029A66.1,66.1,0,0,1,256,469.979Zm0-116.885a50.856,50.856,0,1,0,50.856,50.856A50.914,50.914,0,0,0,256,353.094Z" fill="#c8ea73"/>
    </g>
  </g>
</svg>
