<svg xmlns="http://www.w3.org/2000/svg" xmlns:xlink="http://www.w3.org/1999/xlink" width="86" height="95" viewBox="0 0 86 95">
  <defs>
    <clipPath id="clip-path">
      <rect width="86" height="95" fill="none"/>
    </clipPath>
  </defs>
  <g id="Repeat_Grid_1" data-name="Repeat Grid 1" opacity="0.16" clip-path="url(#clip-path)">
    <g transform="translate(-838 -652)">
      <circle id="Ellipse_54" data-name="Ellipse 54" cx="1.5" cy="1.5" r="1.5" transform="translate(838 652)" fill="#316cff"/>
    </g>
    <g transform="translate(-827 -652)">
      <circle id="Ellipse_54-2" data-name="Ellipse 54" cx="1.5" cy="1.5" r="1.5" transform="translate(838 652)" fill="#316cff"/>
    </g>
    <g transform="translate(-816 -652)">
      <circle id="Ellipse_54-3" data-name="Ellipse 54" cx="1.5" cy="1.5" r="1.5" transform="translate(838 652)" fill="#316cff"/>
    </g>
    <g transform="translate(-805 -652)">
      <circle id="Ellipse_54-4" data-name="Ellipse 54" cx="1.5" cy="1.5" r="1.5" transform="translate(838 652)" fill="#316cff"/>
    </g>
    <g transform="translate(-794 -652)">
      <circle id="Ellipse_54-5" data-name="Ellipse 54" cx="1.5" cy="1.5" r="1.5" transform="translate(838 652)" fill="#316cff"/>
    </g>
    <g transform="translate(-783 -652)">
      <circle id="Ellipse_54-6" data-name="Ellipse 54" cx="1.5" cy="1.5" r="1.5" transform="translate(838 652)" fill="#316cff"/>
    </g>
    <g transform="translate(-772 -652)">
      <circle id="Ellipse_54-7" data-name="Ellipse 54" cx="1.5" cy="1.5" r="1.5" transform="translate(838 652)" fill="#316cff"/>
    </g>
    <g transform="translate(-761 -652)">
      <circle id="Ellipse_54-8" data-name="Ellipse 54" cx="1.5" cy="1.5" r="1.5" transform="translate(838 652)" fill="#316cff"/>
    </g>
    <g transform="translate(-838 -635)">
      <circle id="Ellipse_54-9" data-name="Ellipse 54" cx="1.5" cy="1.5" r="1.5" transform="translate(838 652)" fill="#316cff"/>
    </g>
    <g transform="translate(-827 -635)">
      <circle id="Ellipse_54-10" data-name="Ellipse 54" cx="1.5" cy="1.5" r="1.5" transform="translate(838 652)" fill="#316cff"/>
    </g>
    <g transform="translate(-816 -635)">
      <circle id="Ellipse_54-11" data-name="Ellipse 54" cx="1.5" cy="1.5" r="1.5" transform="translate(838 652)" fill="#316cff"/>
    </g>
    <g transform="translate(-805 -635)">
      <circle id="Ellipse_54-12" data-name="Ellipse 54" cx="1.5" cy="1.5" r="1.5" transform="translate(838 652)" fill="#316cff"/>
    </g>
    <g transform="translate(-794 -635)">
      <circle id="Ellipse_54-13" data-name="Ellipse 54" cx="1.5" cy="1.5" r="1.5" transform="translate(838 652)" fill="#316cff"/>
    </g>
    <g transform="translate(-783 -635)">
      <circle id="Ellipse_54-14" data-name="Ellipse 54" cx="1.5" cy="1.5" r="1.5" transform="translate(838 652)" fill="#316cff"/>
    </g>
    <g transform="translate(-772 -635)">
      <circle id="Ellipse_54-15" data-name="Ellipse 54" cx="1.5" cy="1.5" r="1.5" transform="translate(838 652)" fill="#316cff"/>
    </g>
    <g transform="translate(-761 -635)">
      <circle id="Ellipse_54-16" data-name="Ellipse 54" cx="1.5" cy="1.5" r="1.5" transform="translate(838 652)" fill="#316cff"/>
    </g>
    <g transform="translate(-838 -618)">
      <circle id="Ellipse_54-17" data-name="Ellipse 54" cx="1.5" cy="1.5" r="1.5" transform="translate(838 652)" fill="#316cff"/>
    </g>
    <g transform="translate(-827 -618)">
      <circle id="Ellipse_54-18" data-name="Ellipse 54" cx="1.5" cy="1.5" r="1.5" transform="translate(838 652)" fill="#316cff"/>
    </g>
    <g transform="translate(-816 -618)">
      <circle id="Ellipse_54-19" data-name="Ellipse 54" cx="1.5" cy="1.5" r="1.5" transform="translate(838 652)" fill="#316cff"/>
    </g>
    <g transform="translate(-805 -618)">
      <circle id="Ellipse_54-20" data-name="Ellipse 54" cx="1.5" cy="1.5" r="1.5" transform="translate(838 652)" fill="#316cff"/>
    </g>
    <g transform="translate(-794 -618)">
      <circle id="Ellipse_54-21" data-name="Ellipse 54" cx="1.5" cy="1.5" r="1.5" transform="translate(838 652)" fill="#316cff"/>
    </g>
    <g transform="translate(-783 -618)">
      <circle id="Ellipse_54-22" data-name="Ellipse 54" cx="1.5" cy="1.5" r="1.5" transform="translate(838 652)" fill="#316cff"/>
    </g>
    <g transform="translate(-772 -618)">
      <circle id="Ellipse_54-23" data-name="Ellipse 54" cx="1.5" cy="1.5" r="1.5" transform="translate(838 652)" fill="#316cff"/>
    </g>
    <g transform="translate(-761 -618)">
      <circle id="Ellipse_54-24" data-name="Ellipse 54" cx="1.5" cy="1.5" r="1.5" transform="translate(838 652)" fill="#316cff"/>
    </g>
    <g transform="translate(-838 -601)">
      <circle id="Ellipse_54-25" data-name="Ellipse 54" cx="1.5" cy="1.5" r="1.5" transform="translate(838 652)" fill="#316cff"/>
    </g>
    <g transform="translate(-827 -601)">
      <circle id="Ellipse_54-26" data-name="Ellipse 54" cx="1.5" cy="1.5" r="1.5" transform="translate(838 652)" fill="#316cff"/>
    </g>
    <g transform="translate(-816 -601)">
      <circle id="Ellipse_54-27" data-name="Ellipse 54" cx="1.5" cy="1.5" r="1.5" transform="translate(838 652)" fill="#316cff"/>
    </g>
    <g transform="translate(-805 -601)">
      <circle id="Ellipse_54-28" data-name="Ellipse 54" cx="1.5" cy="1.5" r="1.5" transform="translate(838 652)" fill="#316cff"/>
    </g>
    <g transform="translate(-794 -601)">
      <circle id="Ellipse_54-29" data-name="Ellipse 54" cx="1.5" cy="1.5" r="1.5" transform="translate(838 652)" fill="#316cff"/>
    </g>
    <g transform="translate(-783 -601)">
      <circle id="Ellipse_54-30" data-name="Ellipse 54" cx="1.5" cy="1.5" r="1.5" transform="translate(838 652)" fill="#316cff"/>
    </g>
    <g transform="translate(-772 -601)">
      <circle id="Ellipse_54-31" data-name="Ellipse 54" cx="1.5" cy="1.5" r="1.5" transform="translate(838 652)" fill="#316cff"/>
    </g>
    <g transform="translate(-761 -601)">
      <circle id="Ellipse_54-32" data-name="Ellipse 54" cx="1.5" cy="1.5" r="1.5" transform="translate(838 652)" fill="#316cff"/>
    </g>
    <g transform="translate(-838 -584)">
      <circle id="Ellipse_54-33" data-name="Ellipse 54" cx="1.5" cy="1.5" r="1.5" transform="translate(838 652)" fill="#316cff"/>
    </g>
    <g transform="translate(-827 -584)">
      <circle id="Ellipse_54-34" data-name="Ellipse 54" cx="1.5" cy="1.5" r="1.5" transform="translate(838 652)" fill="#316cff"/>
    </g>
    <g transform="translate(-816 -584)">
      <circle id="Ellipse_54-35" data-name="Ellipse 54" cx="1.5" cy="1.5" r="1.5" transform="translate(838 652)" fill="#316cff"/>
    </g>
    <g transform="translate(-805 -584)">
      <circle id="Ellipse_54-36" data-name="Ellipse 54" cx="1.5" cy="1.5" r="1.5" transform="translate(838 652)" fill="#316cff"/>
    </g>
    <g transform="translate(-794 -584)">
      <circle id="Ellipse_54-37" data-name="Ellipse 54" cx="1.5" cy="1.5" r="1.5" transform="translate(838 652)" fill="#316cff"/>
    </g>
    <g transform="translate(-783 -584)">
      <circle id="Ellipse_54-38" data-name="Ellipse 54" cx="1.5" cy="1.5" r="1.5" transform="translate(838 652)" fill="#316cff"/>
    </g>
    <g transform="translate(-772 -584)">
      <circle id="Ellipse_54-39" data-name="Ellipse 54" cx="1.5" cy="1.5" r="1.5" transform="translate(838 652)" fill="#316cff"/>
    </g>
    <g transform="translate(-761 -584)">
      <circle id="Ellipse_54-40" data-name="Ellipse 54" cx="1.5" cy="1.5" r="1.5" transform="translate(838 652)" fill="#316cff"/>
    </g>
    <g transform="translate(-838 -567)">
      <circle id="Ellipse_54-41" data-name="Ellipse 54" cx="1.5" cy="1.5" r="1.5" transform="translate(838 652)" fill="#316cff"/>
    </g>
    <g transform="translate(-827 -567)">
      <circle id="Ellipse_54-42" data-name="Ellipse 54" cx="1.5" cy="1.5" r="1.5" transform="translate(838 652)" fill="#316cff"/>
    </g>
    <g transform="translate(-816 -567)">
      <circle id="Ellipse_54-43" data-name="Ellipse 54" cx="1.5" cy="1.5" r="1.5" transform="translate(838 652)" fill="#316cff"/>
    </g>
    <g transform="translate(-805 -567)">
      <circle id="Ellipse_54-44" data-name="Ellipse 54" cx="1.5" cy="1.5" r="1.5" transform="translate(838 652)" fill="#316cff"/>
    </g>
    <g transform="translate(-794 -567)">
      <circle id="Ellipse_54-45" data-name="Ellipse 54" cx="1.5" cy="1.5" r="1.5" transform="translate(838 652)" fill="#316cff"/>
    </g>
    <g transform="translate(-783 -567)">
      <circle id="Ellipse_54-46" data-name="Ellipse 54" cx="1.5" cy="1.5" r="1.5" transform="translate(838 652)" fill="#316cff"/>
    </g>
    <g transform="translate(-772 -567)">
      <circle id="Ellipse_54-47" data-name="Ellipse 54" cx="1.5" cy="1.5" r="1.5" transform="translate(838 652)" fill="#316cff"/>
    </g>
    <g transform="translate(-761 -567)">
      <circle id="Ellipse_54-48" data-name="Ellipse 54" cx="1.5" cy="1.5" r="1.5" transform="translate(838 652)" fill="#316cff"/>
    </g>
  </g>
</svg>
