<svg id="globe" xmlns="http://www.w3.org/2000/svg" xmlns:xlink="http://www.w3.org/1999/xlink" width="235.504" height="235.504" viewBox="0 0 235.504 235.504">
  <defs>
    <linearGradient id="linear-gradient" x1="0.5" y1="1" x2="0.5" gradientUnits="objectBoundingBox">
      <stop offset="0" stop-color="#5558ff"/>
      <stop offset="1" stop-color="#00c0ff"/>
    </linearGradient>
    <linearGradient id="linear-gradient-2" x1="0.5" y1="1" x2="0.5" gradientUnits="objectBoundingBox">
      <stop offset="0" stop-color="#addcff"/>
      <stop offset="0.503" stop-color="#eaf6ff"/>
      <stop offset="1" stop-color="#eaf6ff"/>
    </linearGradient>
  </defs>
  <g id="Group_275" data-name="Group 275" transform="translate(0 0)">
    <path id="Path_319" data-name="Path 319" d="M117.752,235.5A118.077,118.077,0,0,1,0,117.752,116.242,116.242,0,0,1,9.4,71.773a6.9,6.9,0,0,1,12.89.535L28.36,90.547l11.307,7.538,2.223-22.412a6.9,6.9,0,0,1,3.781-5.49L71.093,57.477l6.1-13.418A6.9,6.9,0,0,1,80.93,40.5l11.4-4.514L71.893,20.6A6.9,6.9,0,0,1,73.429,8.7,116.464,116.464,0,0,1,117.752,0,118.118,118.118,0,0,1,220.47,60.352a6.9,6.9,0,0,1-3.768,9.9l-24.387,8.4a6.894,6.894,0,0,1-3.381.282l-22.842-3.809a6.9,6.9,0,0,1-4.605-2.977L157.315,65.9,131.07,79.67l15.874,3.771a6.9,6.9,0,0,1,4.207,2.978L158.929,98.5l10.427-2.608a6.9,6.9,0,0,1,5.5.952l11.421,7.612a6.9,6.9,0,0,1,3.073,5.741v12.531l20.206,21.881a6.9,6.9,0,0,1,1.831,4.681v37.29a6.9,6.9,0,0,1-1.5,4.3,119.562,119.562,0,0,1-40.2,32.484,116.035,116.035,0,0,1-51.93,12.14Z" transform="translate(0 0)" fill="url(#linear-gradient)"/>
  </g>
  <g id="Group_277" data-name="Group 277" transform="translate(8.845 8.188)">
    <g id="Group_276" data-name="Group 276">
      <path id="Path_320" data-name="Path 320" d="M230.853,69.963a6.9,6.9,0,0,0-8.26-3.14l-22.733,7.829-18.168-3.029-5.959-8.935a6.9,6.9,0,0,0-8.946-2.281l-48.062,25.22a6.9,6.9,0,0,0,1.611,12.823l31.1,7.389,8.951,13.905a6.9,6.9,0,0,0,7.476,2.959l12.264-3.068,5.808,3.872v11.536a6.9,6.9,0,0,0,1.831,4.681L207.973,161.6v34.591a6.9,6.9,0,0,0,12.3,4.3A117.143,117.143,0,0,0,230.853,69.963Zm-105.19,69.191-21.546-4.311-18.188-20a6.918,6.918,0,0,0-5.2-2.258l-17.321.229,2.22-22.374,24.2-12.1a6.9,6.9,0,0,0,3.2-3.318l5.955-13.107L119.237,53.9a6.9,6.9,0,0,0,1.609-11.927L90.576,19.187a6.9,6.9,0,0,0-6.764-.872A119.355,119.355,0,0,0,19.785,81.389a6.9,6.9,0,0,0-.2,4.889L26.4,106.765a6.9,6.9,0,0,0,2.72,3.562L48.884,123.5v14.8a6.9,6.9,0,0,0,1.953,4.81l17.085,17.568v19.5a6.9,6.9,0,0,0,1.6,4.417l19.033,22.842a6.9,6.9,0,0,0,12.2-4.417V187.441l12.469-9.351a6.9,6.9,0,0,0,2.76-5.52v-8.564l13.2-13.209a6.9,6.9,0,0,0-3.525-11.644Z" transform="translate(-19.23 -17.8)" fill="url(#linear-gradient-2)"/>
    </g>
  </g>
</svg>
