<svg xmlns="http://www.w3.org/2000/svg" xmlns:xlink="http://www.w3.org/1999/xlink" width="48" height="62.012" viewBox="0 0 48 62.012">
  <defs>
    <linearGradient id="linear-gradient" x1="0.5" x2="1.525" y2="1" gradientUnits="objectBoundingBox">
      <stop offset="0" stop-color="#316cff"/>
      <stop offset="1" stop-color="#fff"/>
    </linearGradient>
  </defs>
  <g id="coconut_drink" data-name="coconut drink" transform="translate(-8 -0.988)">
    <path id="Path_324" data-name="Path 324" d="M35,30a1,1,0,0,0,0-2H34a1,1,0,0,0,0,2Z" fill="url(#linear-gradient)"/>
    <path id="Path_325" data-name="Path 325" d="M22,56a1,1,0,1,0,1-1A1,1,0,0,0,22,56Z" fill="url(#linear-gradient)"/>
    <path id="Path_326" data-name="Path 326" d="M20,52a1,1,0,1,0-1,1A1,1,0,0,0,20,52Z" fill="url(#linear-gradient)"/>
    <path id="Path_327" data-name="Path 327" d="M25,51a1,1,0,1,0-1,1A1,1,0,0,0,25,51Z" fill="url(#linear-gradient)"/>
    <path id="Path_328" data-name="Path 328" d="M47.88,15H55a1,1,0,0,0,1-1V10a1,1,0,0,0-1-1H47.27a6,6,0,0,0-5.14,3l-.63,1.09a1,1,0,0,0,.37,1.37C43.8,15.54,43.26,11,47.27,11H54v2H47.88a3,3,0,0,0-2.6,1.5L41.53,21h-2.3l2.07-3.58a1,1,0,0,0-1.74-1L36.92,21H23V12H35a1,1,0,0,0,.57-1.82c-14-9.66-13-9.06-13.27-9.13-.64-.2-.55-.09-5.16,3.1a1,1,0,0,0,1.14,1.64L19.86,4.7,17.77,10H12.2L15,8.06a1,1,0,0,0-1.14-1.64L8.43,10.18A1,1,0,0,0,9,12H21v9H18a4,4,0,0,0-3.68,2.43l-2,4.57H11.29a1,1,0,0,0-.9.56A23.89,23.89,0,0,0,8.94,45.61a1,1,0,0,0,1.92-.56,21.89,21.89,0,0,1,1.06-15h2.35A18.74,18.74,0,0,0,13,36.83a1,1,0,0,0,1,1c1.91,0,.07-2.51,2.43-7.83H30a1,1,0,0,0,0-2H14.52l1.62-3.79A2,2,0,0,1,18,23h7v3a1,1,0,0,0,2,0V23H46a2,2,0,0,1,1.84,1.21L49.48,28H39a1,1,0,0,0,0,2h3.07a22,22,0,0,1-.52,19.1,1,1,0,0,0,1.77.92,24,24,0,0,0,.93-20h3.32c2.35,5.31.54,7.83,2.43,7.83a1,1,0,0,0,1-1A18.74,18.74,0,0,0,49.73,30h2.35A22,22,0,1,1,12.17,48.54a1,1,0,0,0-1.8.88A24,24,0,1,0,53.61,28.56c-.33-.67-.92-.56-2-.56l-2-4.57A4,4,0,0,0,46,21H43.84C47.16,15.25,47.1,15,47.88,15ZM26.23,10,24.14,4.7,31.8,10ZM22,4.73,24.08,10H19.92Z" fill="url(#linear-gradient)"/>
  </g>
</svg>
