<svg xmlns="http://www.w3.org/2000/svg" width="109.058" height="109.058" viewBox="0 0 109.058 109.058">
  <g id="question-mark" transform="translate(-9.471 -9.471)">
    <g id="Group_246" data-name="Group 246">
      <circle id="Ellipse_51" data-name="Ellipse 51" cx="52.529" cy="52.529" r="52.529" transform="translate(13.471 13.471)" fill="#d3dffd"/>
    </g>
    <g id="Group_255" data-name="Group 255">
      <g id="Group_252" data-name="Group 252">
        <g id="Group_249" data-name="Group 249">
          <g id="Group_247" data-name="Group 247">
            <circle id="Ellipse_52" data-name="Ellipse 52" cx="51.529" cy="51.529" r="51.529" transform="translate(10.471 10.471)" fill="#316cff"/>
          </g>
          <g id="Group_248" data-name="Group 248">
            <path id="Path_241" data-name="Path 241" d="M62,13.47A51.58,51.58,0,0,1,113.491,63.5c.014-.5.038-1,.038-1.5A51.529,51.529,0,1,0,10.471,62c0,.5.024,1,.038,1.5A51.58,51.58,0,0,1,62,13.47Z" fill="#fff"/>
          </g>
        </g>
        <g id="Group_251" data-name="Group 251">
          <g id="Group_250" data-name="Group 250">
            <path id="Path_242" data-name="Path 242" d="M41.423,48.049a14.875,14.875,0,0,1,2.511-7.922,19.318,19.318,0,0,1,7.325-6.647,23.053,23.053,0,0,1,11.234-2.633,24,24,0,0,1,10.536,2.2,17.094,17.094,0,0,1,7.057,5.988,14.688,14.688,0,0,1,2.49,8.231,12.718,12.718,0,0,1-1.42,6.132,18.809,18.809,0,0,1-3.374,4.547q-1.956,1.913-7.016,6.44a28.674,28.674,0,0,0-2.243,2.243A9.141,9.141,0,0,0,67.267,68.4,8.648,8.648,0,0,0,66.629,70q-.227.8-.678,2.819-.782,4.281-4.9,4.28a5,5,0,0,1-3.6-1.4,5.5,5.5,0,0,1-1.461-4.156A14.6,14.6,0,0,1,59.9,61.115a64.954,64.954,0,0,1,4.774-4.547q2.632-2.3,3.807-3.477a11.77,11.77,0,0,0,1.976-2.614,6.314,6.314,0,0,0,.8-3.127,7.275,7.275,0,0,0-2.448-5.556,8.946,8.946,0,0,0-6.318-2.263q-4.527,0-6.666,2.283a18.208,18.208,0,0,0-3.621,6.729q-1.4,4.652-5.309,4.65a5.218,5.218,0,0,1-3.889-1.626,4.964,4.964,0,0,1-1.586-3.518Z" fill="#d3dffd"/>
          </g>
        </g>
      </g>
      <g id="Group_254" data-name="Group 254">
        <path id="Path_243" data-name="Path 243" d="M61.217,80.49A6.189,6.189,0,1,0,67.4,86.679,6.188,6.188,0,0,0,61.217,80.49Z" fill="#d3dffd"/>
        <g id="Group_253" data-name="Group 253">
          <path id="Path_244" data-name="Path 244" d="M92.267,102.437c-1.237.93-2.534,1.812-3.853,2.623a1,1,0,0,0,1.049,1.7c1.37-.843,2.718-1.761,4-2.727a1,1,0,0,0-1.2-1.6Z" fill="#3a2c60"/>
          <path id="Path_245" data-name="Path 245" d="M62,9.471a52.529,52.529,0,0,0,0,105.058,51.987,51.987,0,0,0,22.068-4.862,1,1,0,0,0-.844-1.814A49.976,49.976,0,0,1,62,112.53,50.529,50.529,0,1,1,112.529,62,50.068,50.068,0,0,1,96.668,98.729a1,1,0,1,0,1.373,1.453A52.041,52.041,0,0,0,114.529,62,52.588,52.588,0,0,0,62,9.471Z" fill="#3a2c60"/>
          <path id="Path_246" data-name="Path 246" d="M71.434,65.132c3.365-3.01,5.736-5.187,7.048-6.471a19.865,19.865,0,0,0,3.556-4.787,13.773,13.773,0,0,0,1.54-6.607,15.739,15.739,0,0,0-2.655-8.78,18.159,18.159,0,0,0-7.459-6.34,25.1,25.1,0,0,0-10.97-2.3A24.14,24.14,0,0,0,50.779,32.6,20.388,20.388,0,0,0,43.088,39.6a15.91,15.91,0,0,0-2.664,8.452,5.954,5.954,0,0,0,1.868,4.216,6.205,6.205,0,0,0,4.6,1.929c2.122,0,4.933-.931,6.259-5.334a17.331,17.331,0,0,1,3.4-6.362c1.224-1.305,3.221-1.967,5.937-1.967a7.917,7.917,0,0,1,5.639,2,6.263,6.263,0,0,1,2.127,4.822,5.291,5.291,0,0,1-.675,2.642,10.818,10.818,0,0,1-1.81,2.393c-.772.772-2.037,1.928-3.759,3.433a66.476,66.476,0,0,0-4.849,4.621,15.592,15.592,0,0,0-4.174,11.111,6.468,6.468,0,0,0,1.769,4.878A5.992,5.992,0,0,0,61.055,78.1c3.238,0,5.271-1.764,5.873-5.061.294-1.313.518-2.243.664-2.766a7.8,7.8,0,0,1,.566-1.422,8.2,8.2,0,0,1,1.118-1.566,27.231,27.231,0,0,1,2.158-2.157Zm-3.665.841a9.995,9.995,0,0,0-1.391,1.97,9.692,9.692,0,0,0-.712,1.791c-.157.559-.39,1.524-.7,2.91-.438,2.393-1.645,3.459-3.914,3.459a4,4,0,0,1-2.909-1.121,4.52,4.52,0,0,1-1.152-3.434,13.593,13.593,0,0,1,3.643-9.754,64.827,64.827,0,0,1,4.7-4.474c1.754-1.534,3.052-2.719,3.855-3.522a12.861,12.861,0,0,0,2.143-2.834,7.329,7.329,0,0,0,.928-3.615,8.277,8.277,0,0,0-2.77-6.291,9.954,9.954,0,0,0-7-2.527c-3.291,0-5.779.875-7.4,2.6a19.292,19.292,0,0,0-3.85,7.125c-1.063,3.53-2.992,3.938-4.352,3.938a4.219,4.219,0,0,1-3.173-1.324,3.978,3.978,0,0,1-1.3-2.82,13.967,13.967,0,0,1,2.359-7.392,18.432,18.432,0,0,1,6.956-6.3,22.174,22.174,0,0,1,10.755-2.511,23.118,23.118,0,0,1,10.1,2.1,16.2,16.2,0,0,1,6.656,5.638,13.763,13.763,0,0,1,2.326,7.681,11.813,11.813,0,0,1-1.3,5.658,17.922,17.922,0,0,1-3.194,4.307c-1.291,1.264-3.64,3.42-6.99,6.416a29.853,29.853,0,0,0-2.322,2.324Z" fill="#3a2c60"/>
          <path id="Path_247" data-name="Path 247" d="M61.217,79.49A7.189,7.189,0,1,0,68.4,86.678,7.2,7.2,0,0,0,61.217,79.49Zm0,12.378A5.189,5.189,0,1,1,66.4,86.679,5.194,5.194,0,0,1,61.217,91.868Z" fill="#3a2c60"/>
        </g>
      </g>
    </g>
  </g>
</svg>
