<svg xmlns="http://www.w3.org/2000/svg" width="191.007" height="35.932" viewBox="0 0 191.007 35.932">
  <path id="Path_76" data-name="Path 76" d="M-77.63-3.491V0H-93.659V-28h4.153V-3.491Zm7.254-16.322V0h-3.8V-19.812Zm.722-6.123a2.425,2.425,0,0,1-.215,1,2.791,2.791,0,0,1-.575.839,2.622,2.622,0,0,1-.848.565,2.593,2.593,0,0,1-1.014.2,2.454,2.454,0,0,1-.994-.2,2.682,2.682,0,0,1-.829-.565,2.65,2.65,0,0,1-.565-.839,2.523,2.523,0,0,1-.2-1,2.571,2.571,0,0,1,.2-1.024,2.65,2.65,0,0,1,.565-.838,2.682,2.682,0,0,1,.829-.565,2.454,2.454,0,0,1,.994-.2,2.593,2.593,0,0,1,1.014.2,2.622,2.622,0,0,1,.848.565,2.791,2.791,0,0,1,.575.838A2.471,2.471,0,0,1-69.654-25.935Zm17.569,10.92a5.141,5.141,0,0,0-2-1.7,5.87,5.87,0,0,0-2.447-.507,4.79,4.79,0,0,0-4.046,1.882A8.946,8.946,0,0,0-62.01-9.847a13.971,13.971,0,0,0,.322,3.227,6.153,6.153,0,0,0,.936,2.184,3.717,3.717,0,0,0,1.511,1.248,4.932,4.932,0,0,0,2.028.4,5.378,5.378,0,0,0,2.867-.741,8.657,8.657,0,0,0,2.262-2.086Zm3.822-4.8V6.649h-3.822V-2.827A10.106,10.106,0,0,1-54.873-.575a7.433,7.433,0,0,1-3.607.848A6.979,6.979,0,0,1-61.552-.39,6.466,6.466,0,0,1-63.9-2.33,9.258,9.258,0,0,1-65.4-5.5a16.263,16.263,0,0,1-.527-4.348,13.8,13.8,0,0,1,.585-4.095,9.792,9.792,0,0,1,1.7-3.276,8,8,0,0,1,2.691-2.174,7.87,7.87,0,0,1,3.569-.79,8.191,8.191,0,0,1,1.755.175,6.635,6.635,0,0,1,1.482.507,6.451,6.451,0,0,1,1.258.8,8.022,8.022,0,0,1,1.082,1.073l.254-1.424a.928.928,0,0,1,.994-.76Zm21.782,0V0h-2.281a.975.975,0,0,1-1.014-.761l-.273-1.989A13.425,13.425,0,0,1-31.4-1.5a8.315,8.315,0,0,1-1.5.965,8.26,8.26,0,0,1-1.7.624,7.942,7.942,0,0,1-1.93.224A7.074,7.074,0,0,1-39.4-.234a5.71,5.71,0,0,1-2.077-1.531,6.631,6.631,0,0,1-1.267-2.369A10.311,10.311,0,0,1-43.173-7.2V-19.812h3.822V-7.2a5.048,5.048,0,0,0,.975,3.305,3.648,3.648,0,0,0,2.983,1.18,5.606,5.606,0,0,0,2.73-.692,9.307,9.307,0,0,0,2.379-1.9V-19.812Zm9.3,0V0h-3.8V-19.812Zm.722-6.123a2.425,2.425,0,0,1-.215,1,2.791,2.791,0,0,1-.575.839,2.622,2.622,0,0,1-.848.565,2.593,2.593,0,0,1-1.014.2,2.454,2.454,0,0,1-.994-.2,2.682,2.682,0,0,1-.829-.565,2.65,2.65,0,0,1-.566-.839,2.523,2.523,0,0,1-.2-1,2.571,2.571,0,0,1,.2-1.024,2.65,2.65,0,0,1,.566-.838,2.682,2.682,0,0,1,.829-.565,2.454,2.454,0,0,1,.994-.2,2.593,2.593,0,0,1,1.014.2,2.622,2.622,0,0,1,.848.565,2.791,2.791,0,0,1,.575.838A2.471,2.471,0,0,1-16.458-25.935ZM1.111-15.015A5.38,5.38,0,0,0-.907-16.731a5.847,5.847,0,0,0-2.428-.488,4.79,4.79,0,0,0-4.046,1.882A8.946,8.946,0,0,0-8.814-9.847,13.971,13.971,0,0,0-8.492-6.62a6.153,6.153,0,0,0,.936,2.184A3.717,3.717,0,0,0-6.045-3.188a4.932,4.932,0,0,0,2.028.4A5.378,5.378,0,0,0-1.151-3.53,8.657,8.657,0,0,0,1.111-5.616ZM4.933-28.782V0h-2.3a.928.928,0,0,1-.995-.761L1.306-3.042A10.5,10.5,0,0,1-1.57-.634,7.436,7.436,0,0,1-5.285.273,6.979,6.979,0,0,1-8.356-.39a6.466,6.466,0,0,1-2.35-1.94,9.258,9.258,0,0,1-1.5-3.169,16.264,16.264,0,0,1-.526-4.348,13.8,13.8,0,0,1,.585-4.095,9.792,9.792,0,0,1,1.7-3.276,8,8,0,0,1,2.691-2.174,7.87,7.87,0,0,1,3.568-.79,7.2,7.2,0,0,1,3.052.585A7.194,7.194,0,0,1,1.111-17.94V-28.782ZM14.9-15.892h1.365a3.248,3.248,0,0,0,1.2-.185,2.1,2.1,0,0,0,.829-.634L27.2-27.066a2.528,2.528,0,0,1,.877-.731,2.673,2.673,0,0,1,1.112-.2H32.74L22.366-16.068a4.991,4.991,0,0,1-.77.819,4.638,4.638,0,0,1-.79.527,3.853,3.853,0,0,1,1.872,1.5L33.462,0H29.854a3.364,3.364,0,0,1-.673-.058,1.863,1.863,0,0,1-.487-.166,1.665,1.665,0,0,1-.37-.263,1.923,1.923,0,0,1-.3-.37L18.8-11.778a3.2,3.2,0,0,0-.39-.429,1.591,1.591,0,0,0-.448-.283,2.4,2.4,0,0,0-.585-.156,5.436,5.436,0,0,0-.78-.049H14.9V0H10.744V-28H14.9ZM39.936-28.782V0H36.114V-28.782ZM58.48-12.109a6.5,6.5,0,0,0-.322-2.087,4.738,4.738,0,0,0-.946-1.658,4.3,4.3,0,0,0-1.521-1.092,5.143,5.143,0,0,0-2.067-.39,5.078,5.078,0,0,0-3.773,1.385,6.7,6.7,0,0,0-1.745,3.842Zm3.14,9.282A7.488,7.488,0,0,1,60-1.414a9.392,9.392,0,0,1-1.95.965A11.825,11.825,0,0,1,55.916.1a13.806,13.806,0,0,1-2.174.176,10.2,10.2,0,0,1-3.793-.692,8.43,8.43,0,0,1-3.022-2.028,9.25,9.25,0,0,1-1.989-3.315,13.421,13.421,0,0,1-.712-4.553,11.269,11.269,0,0,1,.643-3.851,9.268,9.268,0,0,1,1.843-3.11,8.5,8.5,0,0,1,2.935-2.086,9.62,9.62,0,0,1,3.9-.76,9.157,9.157,0,0,1,3.344.595A7.427,7.427,0,0,1,59.534-17.8a7.986,7.986,0,0,1,1.745,2.788,10.539,10.539,0,0,1,.634,3.783,2.412,2.412,0,0,1-.195,1.18.793.793,0,0,1-.721.3H48.009a10.7,10.7,0,0,0,.507,3.091,6.24,6.24,0,0,0,1.238,2.194,4.92,4.92,0,0,0,1.882,1.306,6.616,6.616,0,0,0,2.438.429,7.319,7.319,0,0,0,2.194-.293,10.638,10.638,0,0,0,1.6-.634Q58.539-4,59-4.29a1.561,1.561,0,0,1,.809-.293.837.837,0,0,1,.721.351ZM76.654-8.795a29.017,29.017,0,0,0-3.939.361,10.836,10.836,0,0,0-2.632.751,3.574,3.574,0,0,0-1.463,1.1,2.391,2.391,0,0,0-.449,1.414,3.067,3.067,0,0,0,.244,1.277,2.379,2.379,0,0,0,.663.878,2.659,2.659,0,0,0,.985.5,4.607,4.607,0,0,0,1.229.156A6.893,6.893,0,0,0,72.9-2.535a6.4,6.4,0,0,0,1.375-.5,6.914,6.914,0,0,0,1.229-.79,10.94,10.94,0,0,0,1.15-1.072ZM65.5-17.043A11.335,11.335,0,0,1,69.1-19.4a11.322,11.322,0,0,1,4.261-.78,7.614,7.614,0,0,1,3,.556,6.178,6.178,0,0,1,2.2,1.55A6.6,6.6,0,0,1,79.921-15.7a9.7,9.7,0,0,1,.458,3.062V0h-1.7a1.618,1.618,0,0,1-.858-.185,1.277,1.277,0,0,1-.468-.692l-.41-1.736a16.4,16.4,0,0,1-1.5,1.238,9.615,9.615,0,0,1-1.55.917,7.917,7.917,0,0,1-1.726.575,9.763,9.763,0,0,1-2.028.2A7.278,7.278,0,0,1,67.948-.01a4.927,4.927,0,0,1-1.784-.985,4.655,4.655,0,0,1-1.2-1.658,5.707,5.707,0,0,1-.439-2.32,4.4,4.4,0,0,1,.634-2.252,5.712,5.712,0,0,1,2.067-1.94,13.289,13.289,0,0,1,3.744-1.4,27.989,27.989,0,0,1,5.684-.624v-1.443A5.037,5.037,0,0,0,75.7-15.99,3.5,3.5,0,0,0,72.891-17.1a6.117,6.117,0,0,0-2.1.312,8.085,8.085,0,0,0-1.463.692q-.614.38-1.072.692a1.66,1.66,0,0,1-.946.312,1.081,1.081,0,0,1-.673-.215,1.787,1.787,0,0,1-.458-.507ZM89.076-16.01a9.066,9.066,0,0,1,2.3-3.061,4.918,4.918,0,0,1,3.237-1.111,4.93,4.93,0,0,1,1.219.146,3.139,3.139,0,0,1,1,.439l-.254,2.867a.618.618,0,0,1-.644.526,4.678,4.678,0,0,1-.819-.107,6.068,6.068,0,0,0-1.17-.107,4.593,4.593,0,0,0-1.618.263,3.781,3.781,0,0,0-1.258.78,5.312,5.312,0,0,0-.985,1.267,12.688,12.688,0,0,0-.8,1.706V0h-3.8V-19.812h2.184a1.207,1.207,0,0,1,.848.224,1.473,1.473,0,0,1,.322.79Z" transform="translate(93.909 29.032)" fill="none" stroke="#fff" stroke-width="0.5" opacity="0.358"/>
</svg>
