<svg xmlns="http://www.w3.org/2000/svg" width="1191.11" height="141.455" viewBox="0 0 1191.11 141.455">
  <path id="Path_353" data-name="Path 353" d="M-557.555,0h-32.3V-138.415h32.3ZM-515-138.415a27.253,27.253,0,0,1,3.515.19,8.973,8.973,0,0,1,2.565.713,8.56,8.56,0,0,1,2.185,1.472,24.971,24.971,0,0,1,2.375,2.565l65.74,83.125q-.38-3.99-.57-7.743t-.19-7.077v-73.245h28.31V0h-16.72a15.407,15.407,0,0,1-6.27-1.14A13.416,13.416,0,0,1-439-5.32L-504.26-87.78q.285,3.61.475,7.077t.19,6.507V0h-28.31V-138.415Zm227.24,0v25.46h-38.95V0h-32.11V-112.955h-38.95v-25.46Zm102.41,0v24.7h-56.81v32.3h43.51v23.75h-43.51V-24.7h56.81V0h-89.11V-138.415ZM-135-51.2V0h-32.11V-138.415h45.03q15.01,0,25.6,3.088a48.068,48.068,0,0,1,17.29,8.6,32.54,32.54,0,0,1,9.737,13.015,43.118,43.118,0,0,1,3.04,16.34,43.865,43.865,0,0,1-1.805,12.73,38.547,38.547,0,0,1-5.367,11.067,41.538,41.538,0,0,1-8.74,9.072A46.41,46.41,0,0,1-94.24-57.95a30.181,30.181,0,0,1,6.033,3.99,23.742,23.742,0,0,1,4.892,5.8L-53.865,0h-29.07q-8.075,0-11.59-6.08l-22.99-40.185a9.678,9.678,0,0,0-3.563-3.8,11.921,11.921,0,0,0-5.747-1.14Zm0-22.135h12.92A33.036,33.036,0,0,0-110.913-75a20.17,20.17,0,0,0,7.553-4.607A17.546,17.546,0,0,0-99.085-86.5a26.435,26.435,0,0,0,1.33-8.5q0-9.12-5.937-14.25t-18.383-5.13H-135Zm183.35-65.075v24.7H-8.455v32.3h43.51v23.75H-8.455V-24.7h56.81V0h-89.11V-138.415Zm95.38,28.12a12.06,12.06,0,0,1-2.993,3.42,6.7,6.7,0,0,1-4.038,1.14,9.877,9.877,0,0,1-4.7-1.378q-2.517-1.377-5.7-3.087a47.3,47.3,0,0,0-7.268-3.088,29.077,29.077,0,0,0-9.31-1.378q-9.025,0-13.442,3.848a13.09,13.09,0,0,0-4.418,10.4,9.582,9.582,0,0,0,2.66,6.935,22.932,22.932,0,0,0,6.982,4.75,74.845,74.845,0,0,0,9.88,3.658q5.558,1.662,11.353,3.705a101.527,101.527,0,0,1,11.352,4.8,37.858,37.858,0,0,1,9.88,7.03,32.81,32.81,0,0,1,6.983,10.4,36.988,36.988,0,0,1,2.66,14.772A48.136,48.136,0,0,1,150.29-26.41a42.039,42.039,0,0,1-9.643,14.582,44.757,44.757,0,0,1-15.58,9.785A58.289,58.289,0,0,1,104.025,1.52,67.447,67.447,0,0,1,90.867.19,78.139,78.139,0,0,1,77.9-3.563,75.2,75.2,0,0,1,66.12-9.31a50.052,50.052,0,0,1-9.6-7.41l9.5-15.01a7.732,7.732,0,0,1,2.945-2.755,8.343,8.343,0,0,1,4.085-1.045A10.814,10.814,0,0,1,78.8-33.725q2.9,1.8,6.555,3.99a53.346,53.346,0,0,0,8.408,3.99,31.524,31.524,0,0,0,11.21,1.8q8.74,0,13.585-3.847T123.4-39.995a11.538,11.538,0,0,0-2.66-7.885,20.55,20.55,0,0,0-6.982-5.035,64.334,64.334,0,0,0-9.833-3.515Q98.42-57.95,92.625-59.8a82.708,82.708,0,0,1-11.305-4.56,35.678,35.678,0,0,1-9.833-7.125A33.342,33.342,0,0,1,64.5-82.507q-2.66-6.6-2.66-16.292A38.659,38.659,0,0,1,64.98-114a39.236,39.236,0,0,1,9.215-13.2,45.31,45.31,0,0,1,14.915-9.262,55.086,55.086,0,0,1,20.235-3.467,75.88,75.88,0,0,1,12.4,1,65.17,65.17,0,0,1,11.447,2.945,62.864,62.864,0,0,1,10.118,4.655,46.649,46.649,0,0,1,8.408,6.128Zm126.35-28.12v25.46h-38.95V0h-32.11V-112.955h-38.95v-25.46Zm102.41,0v24.7h-56.81v32.3h43.51v23.75h-43.51V-24.7h56.81V0h-89.11V-138.415Zm143.83,69.16a72.58,72.58,0,0,1-5.177,27.692,64.787,64.787,0,0,1-14.583,21.945,66.138,66.138,0,0,1-22.657,14.44A80.176,80.176,0,0,1,444.5,0h-53.77V-138.415H444.5a79.527,79.527,0,0,1,29.4,5.225,67.091,67.091,0,0,1,22.657,14.44,64.282,64.282,0,0,1,14.583,21.9A72.324,72.324,0,0,1,516.325-69.255Zm-32.87,0a60.3,60.3,0,0,0-2.66-18.525,39.578,39.578,0,0,0-7.647-14.012,33.21,33.21,0,0,0-12.207-8.835,41.446,41.446,0,0,0-16.435-3.088h-21.47V-24.7H444.5a41.446,41.446,0,0,0,16.435-3.087,33.21,33.21,0,0,0,12.207-8.835,39.578,39.578,0,0,0,7.647-14.012A60.641,60.641,0,0,0,483.455-69.255Zm40.47-56.525a66.439,66.439,0,0,1,7.648-5.51,59.871,59.871,0,0,1,8.883-4.513,55.611,55.611,0,0,1,10.212-3.04,60.326,60.326,0,0,1,11.828-1.092,51.065,51.065,0,0,1,16.1,2.375,34.872,34.872,0,0,1,12.207,6.792,29.775,29.775,0,0,1,7.742,10.64,34.287,34.287,0,0,1,2.708,13.823,35.2,35.2,0,0,1-1.995,12.54,34.2,34.2,0,0,1-5.083,9.12,38.517,38.517,0,0,1-6.745,6.7q-3.657,2.8-6.935,5.273a58.058,58.058,0,0,0-5.7,4.845,10.062,10.062,0,0,0-2.992,5.32l-2.66,13.3h-20.14l-2.09-15.3q-.095-.57-.142-1.14t-.048-1.14A13.33,13.33,0,0,1,548.72-74.1a25.958,25.958,0,0,1,5.035-5.747,77.668,77.668,0,0,1,6.555-5.035,59.3,59.3,0,0,0,6.555-5.225,26.413,26.413,0,0,0,5.035-6.27,16.2,16.2,0,0,0,1.995-8.217,11.593,11.593,0,0,0-3.753-9.073q-3.752-3.373-10.307-3.373a28.819,28.819,0,0,0-8.408,1.045,33.878,33.878,0,0,0-5.795,2.327q-2.422,1.283-4.227,2.327a7.151,7.151,0,0,1-3.61,1.045,6.542,6.542,0,0,1-6.08-3.515Zm17.48,110.865a15.767,15.767,0,0,1,1.282-6.365,16.089,16.089,0,0,1,3.515-5.13,16.77,16.77,0,0,1,5.272-3.468,16.936,16.936,0,0,1,6.65-1.283,16.69,16.69,0,0,1,6.555,1.283A17.361,17.361,0,0,1,570-26.41a15.724,15.724,0,0,1,3.563,5.13,15.767,15.767,0,0,1,1.282,6.365A16.105,16.105,0,0,1,573.563-8.5,15.593,15.593,0,0,1,570-3.325,16.676,16.676,0,0,1,564.68.1a17.249,17.249,0,0,1-6.555,1.235A17.505,17.505,0,0,1,551.475.1a16.123,16.123,0,0,1-5.272-3.42A15.951,15.951,0,0,1,542.688-8.5,16.105,16.105,0,0,1,541.405-14.915Z" transform="translate(589.855 139.935)" fill="#151923"/>
</svg>
