<svg xmlns="http://www.w3.org/2000/svg" width="256.038" height="35.88" viewBox="0 0 256.038 35.88">
  <path id="Path_44" data-name="Path 44" d="M19.98-3.58V0H3.54V-28.72H7.8V-3.58ZM28.42,0H24.14V-28.72h4.28ZM38.1-14.36a14.1,14.1,0,0,0,.7,4.61,9.733,9.733,0,0,0,2,3.45,8.613,8.613,0,0,0,3.13,2.17,10.694,10.694,0,0,0,4.09.75,10.694,10.694,0,0,0,4.09-.75A8.52,8.52,0,0,0,55.23-6.3a9.815,9.815,0,0,0,1.99-3.45,14.1,14.1,0,0,0,.7-4.61,14.123,14.123,0,0,0-.7-4.6,9.8,9.8,0,0,0-1.99-3.46,8.624,8.624,0,0,0-3.12-2.18,10.57,10.57,0,0,0-4.09-.76,10.57,10.57,0,0,0-4.09.76,8.719,8.719,0,0,0-3.13,2.18,9.72,9.72,0,0,0-2,3.46A14.123,14.123,0,0,0,38.1-14.36ZM63.66,5.84H60.14a4.169,4.169,0,0,1-1.38-.21,2.8,2.8,0,0,1-1.12-.77L52.8-.42A15.286,15.286,0,0,1,48.02.3,15.156,15.156,0,0,1,42.21-.78a12.98,12.98,0,0,1-4.5-3.03A13.814,13.814,0,0,1,34.8-8.45a16.258,16.258,0,0,1-1.04-5.91,16.281,16.281,0,0,1,1.04-5.9,13.793,13.793,0,0,1,2.91-4.65,13.1,13.1,0,0,1,4.5-3.04,15.033,15.033,0,0,1,5.81-1.09,15.013,15.013,0,0,1,5.82,1.09,13.225,13.225,0,0,1,4.5,3.04,13.588,13.588,0,0,1,2.91,4.65,16.422,16.422,0,0,1,1.03,5.9,17.2,17.2,0,0,1-.41,3.81A15.468,15.468,0,0,1,60.7-7.18a13.009,13.009,0,0,1-1.87,2.84A13.158,13.158,0,0,1,56.32-2.1ZM78.8-3.42A7.783,7.783,0,0,0,81.88-4a6.421,6.421,0,0,0,2.3-1.63,7.233,7.233,0,0,0,1.44-2.5,9.8,9.8,0,0,0,.5-3.21V-28.72h4.24v17.38a13.206,13.206,0,0,1-.8,4.66,10.647,10.647,0,0,1-2.3,3.7A10.535,10.535,0,0,1,83.62-.54,12.571,12.571,0,0,1,78.8.34a12.571,12.571,0,0,1-4.82-.88,10.535,10.535,0,0,1-3.64-2.44,10.647,10.647,0,0,1-2.3-3.7,13.206,13.206,0,0,1-.8-4.66V-28.72H71.5v17.36a10.071,10.071,0,0,0,.49,3.22,7.1,7.1,0,0,0,1.43,2.51A6.421,6.421,0,0,0,75.72-4,7.783,7.783,0,0,0,78.8-3.42ZM101.38,0H97.1V-28.72h4.28Zm32.14-14.36a16,16,0,0,1-1.03,5.86,13.072,13.072,0,0,1-2.91,4.53,13.055,13.055,0,0,1-4.5,2.93A15.648,15.648,0,0,1,119.26,0h-10.8V-28.72h10.8a15.648,15.648,0,0,1,5.82,1.04,13.055,13.055,0,0,1,4.5,2.93,13.053,13.053,0,0,1,2.91,4.54A16.021,16.021,0,0,1,133.52-14.36Zm-4.36,0a14.033,14.033,0,0,0-.7-4.59,9.711,9.711,0,0,0-1.99-3.44,8.472,8.472,0,0,0-3.12-2.15,10.821,10.821,0,0,0-4.09-.74h-6.52V-3.44h6.52a10.821,10.821,0,0,0,4.09-.74,8.472,8.472,0,0,0,3.12-2.15,9.724,9.724,0,0,0,1.99-3.43A14.01,14.01,0,0,0,129.16-14.36Zm13.98-1.94h1.4a3.332,3.332,0,0,0,1.23-.19,2.157,2.157,0,0,0,.85-.65l9.14-10.62a2.593,2.593,0,0,1,.9-.75,2.742,2.742,0,0,1,1.14-.21h3.64L150.8-16.48a5.119,5.119,0,0,1-.79.84,4.757,4.757,0,0,1-.81.54,3.952,3.952,0,0,1,1.92,1.54L162.18,0h-3.7a3.45,3.45,0,0,1-.69-.06,1.911,1.911,0,0,1-.5-.17,1.707,1.707,0,0,1-.38-.27,1.972,1.972,0,0,1-.31-.38l-9.46-11.2a3.283,3.283,0,0,0-.4-.44,1.632,1.632,0,0,0-.46-.29,2.457,2.457,0,0,0-.6-.16,5.575,5.575,0,0,0-.8-.05h-1.74V0h-4.26V-28.72h4.26ZM182.06-3.58V0H165.62V-28.72h4.26V-3.58Zm21.98.12L204.02,0h-17.8V-28.72h17.8v3.46H190.5v9.1h10.88v3.34H190.5v9.36Zm20.52-7.24L220.3-21.84a24.835,24.835,0,0,1-.92-2.88q-.22.86-.45,1.6t-.45,1.32l-4.24,11.1ZM232.98,0H229.7a1.454,1.454,0,0,1-.92-.28,1.574,1.574,0,0,1-.52-.72l-2.54-6.66H213.06L210.52-1a1.622,1.622,0,0,1-.52.69,1.409,1.409,0,0,1-.92.31H205.8l11.44-28.72h4.3ZM244.7-14.88a9.49,9.49,0,0,0,2.89-.4,5.867,5.867,0,0,0,2.09-1.13,4.638,4.638,0,0,0,1.26-1.74,5.753,5.753,0,0,0,.42-2.23,4.435,4.435,0,0,0-1.63-3.74,7.924,7.924,0,0,0-4.89-1.26h-4.02v10.5ZM258.1,0h-3.8a1.775,1.775,0,0,1-1.66-.9l-7.1-9.96a2.116,2.116,0,0,0-.74-.71,2.668,2.668,0,0,0-1.2-.21h-2.78V0h-4.26V-28.72h8.28a17.7,17.7,0,0,1,4.79.57,9.3,9.3,0,0,1,3.32,1.62A6.442,6.442,0,0,1,254.89-24a8.4,8.4,0,0,1,.63,3.32,8.509,8.509,0,0,1-.46,2.82,7.4,7.4,0,0,1-1.35,2.37,8.505,8.505,0,0,1-2.17,1.81,10.641,10.641,0,0,1-2.9,1.16,4.394,4.394,0,0,1,1.38,1.34Z" transform="translate(-3.04 29.54)" fill="none" stroke="#fff" stroke-width="1" opacity="0.086"/>
</svg>
