<svg xmlns="http://www.w3.org/2000/svg" width="429.426" height="439.816" viewBox="0 0 429.426 439.816">
  <g id="safe" transform="translate(-10.372 0)">
    <path id="Path_97" data-name="Path 97" d="M247.4,23.907,233.063,3.259a7.583,7.583,0,0,0-12.458,8.65l3.733,5.377a189.484,189.484,0,0,0-26.269-1.847c-103.5,0-187.7,84.2-187.7,187.7a187.6,187.6,0,0,0,98.876,165.391,7.583,7.583,0,1,0,7.187-13.355,172.459,172.459,0,0,1-90.9-152.036c0-95.133,77.4-172.53,172.53-172.53a174.279,174.279,0,0,1,23.974,1.673l-5.847,4.06a7.584,7.584,0,0,0,8.65,12.459l20.648-14.335a7.585,7.585,0,0,0,1.9-10.555Z" fill="#80bd94"/>
    <g id="Group_94" data-name="Group 94">
      <path id="Path_98" data-name="Path 98" d="M439.8,252.038c0,103.707-84.071,187.777-187.777,187.777a187.061,187.061,0,0,1-79.2-17.469c-4.28-1.994-7.2-14.534-7.2-14.534s-12.364,4.016-15.75,1.817A187.979,187.979,0,0,1,68.443,291.712c-2.751-12.789,8.568-30.22,8.568-43.832,0-15.714-10.837-26.819-7.2-41.408A188.037,188.037,0,0,1,289,67.9c33.142,6.619,147.263,121.15,150.433,172.354q.361,5.846.363,11.783Z" fill="#e4f6ff"/>
    </g>
    <g id="Group_95" data-name="Group 95">
      <path id="Path_99" data-name="Path 99" d="M377.008,142.1a187.622,187.622,0,0,1,8.339,55.484c0,103.707-84.071,187.777-187.777,187.777A186.889,186.889,0,0,1,94.832,354.776a188.836,188.836,0,0,0,55.047,54.847c3.656,2.375,15.746-1.81,15.746-1.81s3.216,12.673,7.2,14.53a187.021,187.021,0,0,0,79.2,17.473c103.707,0,187.777-84.071,187.777-187.777q0-5.937-.364-11.783c-3.769-60.874-62.426-98.153-62.426-98.153Z" fill="#cbe2ff"/>
    </g>
    <g id="Group_96" data-name="Group 96">
      <path id="Path_100" data-name="Path 100" d="M289,67.91l-62.4,33.612a12.579,12.579,0,0,1-5.339,1.488l-32.179,1.6a12.572,12.572,0,0,0-7.885,3.3L142.77,143.23a12.571,12.571,0,0,0,1.432,19.646l16.818,11.452a12.571,12.571,0,0,0,16.256-1.8l5.587-5.972a12.572,12.572,0,0,1,17.571-.774l26.512,23.761a12.549,12.549,0,0,1,2.366,2.855l20.112,33.248a29.523,29.523,0,0,0,35.287,12.487l31.974-11.546a12.577,12.577,0,0,0,5.752-4.234l8.3-10.958a12.571,12.571,0,0,0-1.541-16.871,12.571,12.571,0,0,1,4.762-21.29l8.4-2.6a12.577,12.577,0,0,1,8.273.292l45.5,17.691a12.576,12.576,0,0,1,5.3,3.912l36.677,46.311a13.756,13.756,0,0,0,1.308,1.42C434.109,154.5,371.257,84.34,289,67.91Z" fill="#c8ea73"/>
    </g>
    <g id="Group_97" data-name="Group 97">
      <path id="Path_101" data-name="Path 101" d="M253.271,268.994a16.959,16.959,0,0,1-11.16-12.582l-10.366-49.406a16.961,16.961,0,0,0-19.691-13.194l-39.811,7.379a16.959,16.959,0,0,1-9.743-1.075L122.6,183.1a16.961,16.961,0,0,0-15.344,1.037L69.824,206.476a188.875,188.875,0,0,0-1.365,85.233l36.114,6.227a16.961,16.961,0,0,1,13.266,11.526l32.218,100.273a187.255,187.255,0,0,0,22.775,12.6l34.193-8.866A16.961,16.961,0,0,0,218.96,402.1l20.951-67.176a16.947,16.947,0,0,1,1.37-3.2L262.657,293.3a16.964,16.964,0,0,0-9.386-24.31Z" fill="#c8ea73"/>
    </g>
    <g id="Group_98" data-name="Group 98">
      <path id="Path_102" data-name="Path 102" d="M197.57,385.364a187.571,187.571,0,0,1-58.317-9.247l10.8,33.617a187.255,187.255,0,0,0,22.775,12.6l34.193-8.866A16.961,16.961,0,0,0,218.957,402.1l5.834-18.707a189.135,189.135,0,0,1-27.221,1.972Z" fill="#aad880"/>
    </g>
    <g id="Group_99" data-name="Group 99">
      <path id="Path_103" data-name="Path 103" d="M354.766,94.861a186.677,186.677,0,0,1,30.1,89.372l11.267,4.381a12.576,12.576,0,0,1,5.3,3.912l36.677,46.311a13.756,13.756,0,0,0,1.308,1.42,187.643,187.643,0,0,0-84.654-145.4Z" fill="#aad880"/>
    </g>
    <g id="Group_113" data-name="Group 113">
      <g id="Group_111" data-name="Group 111">
        <circle id="Ellipse_39" data-name="Ellipse 39" cx="89.169" cy="89.169" r="89.169" transform="translate(12.745 14.465)" fill="#ffe07d"/>
      </g>
      <g id="Group_112" data-name="Group 112">
        <path id="Path_110" data-name="Path 110" d="M149.848,28.433A89.183,89.183,0,0,1,26.713,151.568,89.177,89.177,0,1,0,149.848,28.433Z" fill="#ffd064"/>
      </g>
      <path id="Path_111" data-name="Path 111" d="M113.476,95.852c-1.669-.59-3.373-1.2-5.075-1.841V65.078a18.891,18.891,0,0,1,6.156,3.157c.468.334,1.324.888,1.324.888,7.812,4.665,15.732-5.867,9.116-12.114a35.124,35.124,0,0,0-16.6-7.67V43.915a7.686,7.686,0,1,0-15.372,0v5.976c-.723.176-1.452.367-2.193.591A27.9,27.9,0,0,0,71.715,72.358C69.9,82,73.012,91.322,79.843,96.68a63.166,63.166,0,0,0,13.187,7.641v37.518c-4.458-.479-7.586-1.784-12.66-5.1a7.688,7.688,0,0,0-11.11,3.046,7.858,7.858,0,0,0,2.923,9.967c8.11,5.27,13.8,7.008,20.847,7.521v6.079a7.686,7.686,0,1,0,15.372,0v-6.782c14.186-3.3,23.291-15.289,25.278-27.11,2.55-15.174-5.379-28.365-20.2-33.6ZM89.328,84.584c-2.263-1.775-3.247-5.456-2.508-9.379a13.182,13.182,0,0,1,6.208-9.045V87.071A34.13,34.13,0,0,1,89.328,84.584Zm29.191,42.326A18.365,18.365,0,0,1,108.4,140.391V110.364C119.693,114.385,119,124.042,118.519,126.91Z" fill="#ebb044"/>
    </g>
  </g>
</svg>
