<svg xmlns="http://www.w3.org/2000/svg" xmlns:xlink="http://www.w3.org/1999/xlink" width="52.442" height="54" viewBox="0 0 52.442 54">
  <defs>
    <linearGradient id="linear-gradient" x1="0.5" x2="0.5" y2="1" gradientUnits="objectBoundingBox">
      <stop offset="0" stop-color="#316cff"/>
      <stop offset="1" stop-color="#fff"/>
    </linearGradient>
  </defs>
  <g id="self-growth" transform="translate(-0.496 0.001)">
    <path id="Path_339" data-name="Path 339" d="M22.617,35.047A3.682,3.682,0,0,0,26.95,41l.026-.019,8.6-6.638a3.667,3.667,0,0,0,.958-1.036L41.941,25.3l1.889,1.331a.422.422,0,0,1-.041.544l-5.476,5.475a3.682,3.682,0,0,0,5.207,5.207l5.748-5.748a7.787,7.787,0,0,0,.387-10.585l5.952-5.952a5.974,5.974,0,0,0,.773-.952l.108,0a13.785,13.785,0,0,0,4.937-.91,13.852,13.852,0,0,0,5.663-4.063l3.039-3.651a3.307,3.307,0,1,0-5.082-4.231l-2.264,2.72a4.636,4.636,0,0,0-7.914-3.126l-.753.753a4.611,4.611,0,0,0-1.359,3.28c0,.07,0,.139.005.208a5.955,5.955,0,0,0-1.241-.153,1.035,1.035,0,0,0-.108-.005H46.375A25.009,25.009,0,0,0,35.81,7.8a33.383,33.383,0,0,1-14.1,3.147c-.027,0-.055,0-.082,0a1.055,1.055,0,0,0-1.045,1.2l.363,2.655A18.006,18.006,0,0,0,30.83,28.548l-.183.283Zm12.157-2.9-.027.042a1.569,1.569,0,0,1-.421.457l-.026.019L25.7,39.3a1.559,1.559,0,0,1-.908.291,1.573,1.573,0,0,1-.924-2.846l.027-.02,8.184-6.336a1.046,1.046,0,0,0,.239-.261l5.465-8.44a5.083,5.083,0,0,0,1.57,1.785l.862.608Zm13-1.534-5.748,5.748A1.572,1.572,0,0,1,39.8,34.138l5.476-5.476a2.53,2.53,0,0,0,0-3.575,1.069,1.069,0,0,0-.138-.117l-4.573-3.222a2.984,2.984,0,0,1-.391-4.55l1.1-1.1,6.153,6.153a.993.993,0,0,0,.076.068l.27.27a5.68,5.68,0,0,1,0,8.022Zm.4-10.6-4.66-4.66c-.024-.024-.05-.047-.076-.069l-.676-.675,5.94-5.94a3.826,3.826,0,0,1,3.7-.986,3.345,3.345,0,0,0-.574.238A3.306,3.306,0,0,0,52.4,14a13.816,13.816,0,0,0,1.43.358ZM63.627,6.762l3.039-3.651a1.2,1.2,0,0,1,1.84,1.532l-3.04,3.651a11.735,11.735,0,0,1-4.8,3.444,11.745,11.745,0,0,1-7.645.249A1.2,1.2,0,1,1,53.73,9.7a9.38,9.38,0,0,0,1.724.359,1.044,1.044,0,0,0,.284.027,9.275,9.275,0,0,0,2.429-.123q.151-.025.3-.06l.017,0,.062-.015A9.291,9.291,0,0,0,63.627,6.762ZM54.865,5.389A2.513,2.513,0,0,1,55.606,3.6l.753-.753a2.53,2.53,0,1,1,3.577,3.577l-.753.754a2.515,2.515,0,0,1-1.252.681l-.094.019A2.527,2.527,0,0,1,55.631,7.2l-.023-.024-.033-.032A2.513,2.513,0,0,1,54.865,5.389ZM23.031,14.51l-.2-1.476A35.525,35.525,0,0,0,36.707,9.705a22.888,22.888,0,0,1,9.668-2.158h.47l-6.314,6.314,0,0-1.84,1.841a5.085,5.085,0,0,0-1.45,2.947l-5.251,8.11A15.907,15.907,0,0,1,23.031,14.51Zm0,0" transform="translate(-17.955)" fill="url(#linear-gradient)"/>
    <path id="Path_340" data-name="Path 340" d="M35.631,388.886l-8.088,8.088a1.055,1.055,0,1,0,1.491,1.492l8.088-8.088a1.055,1.055,0,0,0-1.491-1.492Zm0,0" transform="translate(-23.918 -347.595)" fill="url(#linear-gradient)"/>
    <path id="Path_341" data-name="Path 341" d="M1.551,492a1.055,1.055,0,1,0,.746.309A1.061,1.061,0,0,0,1.551,492Zm0,0" transform="translate(0 -440.107)" fill="url(#linear-gradient)"/>
    <path id="Path_342" data-name="Path 342" d="M131.738,388.886a1.055,1.055,0,0,0-1.491,0l-5.238,5.238a1.055,1.055,0,1,0,1.491,1.492l5.238-5.238A1.055,1.055,0,0,0,131.738,388.886Zm0,0" transform="translate(-111.104 -347.595)" fill="url(#linear-gradient)"/>
    <path id="Path_343" data-name="Path 343" d="M195.184,216.877l-9.5,2.184a1.055,1.055,0,0,0-.51,1.774l.716.715-24.62,24.62a1.055,1.055,0,1,0,1.491,1.492L188.124,222.3a1.055,1.055,0,0,0,0-1.492l-.114-.114,6.006-1.381-1.38,6.006-.114-.114a1.056,1.056,0,0,0-1.492,0l-18.238,18.238a1.055,1.055,0,0,0,1.491,1.491l17.492-17.492.716.716a1.055,1.055,0,0,0,1.774-.51l2.184-9.5a1.055,1.055,0,0,0-1.264-1.264Zm0,0" transform="translate(-143.537 -193.98)" fill="url(#linear-gradient)"/>
    <path id="Path_344" data-name="Path 344" d="M245.395,491.926a1.053,1.053,0,1,0,.746.308A1.065,1.065,0,0,0,245.395,491.926Zm0,0" transform="translate(-218.126 -440.044)" fill="url(#linear-gradient)"/>
  </g>
</svg>
