<svg id="star_1_" data-name="star (1)" xmlns="http://www.w3.org/2000/svg" xmlns:xlink="http://www.w3.org/1999/xlink" width="57" height="57" viewBox="0 0 57 57">
  <defs>
    <linearGradient id="linear-gradient" x1="0.5" x2="0.5" y2="1" gradientUnits="objectBoundingBox">
      <stop offset="0" stop-color="#316cff"/>
      <stop offset="1" stop-color="#fff"/>
    </linearGradient>
  </defs>
  <path id="Path_329" data-name="Path 329" d="M152.462,14.915l-1.035,6.047a1.874,1.874,0,0,0,2.723,1.977l5.43-2.856,5.432,2.853a1.876,1.876,0,0,0,2.721-1.978l-1.038-6.047,4.392-4.284a1.876,1.876,0,0,0-1.041-3.2l-6.072-.881-2.716-5.5A1.865,1.865,0,0,0,159.575,0h0a1.866,1.866,0,0,0-1.682,1.046l-2.714,5.5-6.072.884a1.876,1.876,0,0,0-1.039,3.2Zm3.219-6.189A1.877,1.877,0,0,0,157.094,7.7l2.481-5.031,2.484,5.03a1.875,1.875,0,0,0,1.413,1.026l5.552.805-4.016,3.916a1.875,1.875,0,0,0-.539,1.661l.949,5.529-4.965-2.609a1.877,1.877,0,0,0-1.747,0l-4.965,2.612.947-5.529a1.876,1.876,0,0,0-.54-1.661L150.13,9.534Zm0,0" transform="translate(-131.079)" fill="url(#linear-gradient)"/>
  <path id="Path_330" data-name="Path 330" d="M407.18,95.105a1.113,1.113,0,0,0,1.113,1.113h3.431a1.113,1.113,0,0,0,0-2.227h-3.431A1.113,1.113,0,0,0,407.18,95.105Zm0,0" transform="translate(-361.849 -83.528)" fill="url(#linear-gradient)"/>
  <path id="Path_331" data-name="Path 331" d="M394.277,136.526a1.113,1.113,0,0,0,1.575-1.575l-2.416-2.416a1.113,1.113,0,0,0-1.574,1.575Zm0,0" transform="translate(-347.946 -117.491)" fill="url(#linear-gradient)"/>
  <path id="Path_332" data-name="Path 332" d="M392.648,38.734a1.11,1.11,0,0,0,.787-.326l2.414-2.414a1.113,1.113,0,0,0-1.574-1.574l-2.414,2.414a1.113,1.113,0,0,0,.787,1.9Zm0,0" transform="translate(-347.946 -30.298)" fill="url(#linear-gradient)"/>
  <path id="Path_333" data-name="Path 333" d="M55.043,96.219h3.431a1.113,1.113,0,0,0,0-2.227H55.043a1.113,1.113,0,0,0,0,2.227Zm0,0" transform="translate(-47.926 -83.528)" fill="url(#linear-gradient)"/>
  <path id="Path_334" data-name="Path 334" d="M81.433,132.536l-2.416,2.416a1.113,1.113,0,1,0,1.574,1.575l2.416-2.416a1.113,1.113,0,0,0-1.574-1.575Zm0,0" transform="translate(-69.931 -117.491)" fill="url(#linear-gradient)"/>
  <path id="Path_335" data-name="Path 335" d="M81.451,38.411a1.113,1.113,0,0,0,1.574-1.575l-2.414-2.414A1.113,1.113,0,1,0,79.037,36Zm0,0" transform="translate(-69.948 -30.301)" fill="url(#linear-gradient)"/>
  <path id="Path_336" data-name="Path 336" d="M345.574,404a1.114,1.114,0,1,0,.787.326A1.121,1.121,0,0,0,345.574,404Zm0,0" transform="translate(-306.113 -359.023)" fill="url(#linear-gradient)"/>
  <path id="Path_337" data-name="Path 337" d="M55.887,247.594H49.652V238.91a1.113,1.113,0,0,0-1.113-1.113H40.746v-8.684A1.113,1.113,0,0,0,39.633,228H17.367a1.113,1.113,0,0,0-1.113,1.113V237.8H8.461a1.113,1.113,0,0,0-1.113,1.113v8.684H1.113A1.113,1.113,0,0,0,0,248.707v9.8a1.113,1.113,0,0,0,1.113,1.113H55.887A1.113,1.113,0,0,0,57,258.5v-9.8A1.113,1.113,0,0,0,55.887,247.594ZM18.48,230.227H38.52v7.57H18.48Zm36.293,27.164H2.227v-7.57H34.846a1.113,1.113,0,0,0,0-2.227H9.574v-2.672h9.463a1.113,1.113,0,0,0,0-2.227H9.574v-2.672H47.426v7.57H43.9a1.113,1.113,0,0,0,0,2.227H54.773Zm0,0" transform="translate(0 -202.617)" fill="url(#linear-gradient)"/>
  <path id="Path_338" data-name="Path 338" d="M207.113,360a1.114,1.114,0,1,0,.787.326A1.122,1.122,0,0,0,207.113,360Zm0,0" transform="translate(-183.066 -319.922)" fill="url(#linear-gradient)"/>
</svg>
