<svg xmlns="http://www.w3.org/2000/svg" xmlns:xlink="http://www.w3.org/1999/xlink" width="64" height="60" viewBox="0 0 64 60">
  <defs>
    <linearGradient id="linear-gradient" x1="0.03" y1="0.939" x2="0.937" y2="-0.028" gradientUnits="objectBoundingBox">
      <stop offset="0" stop-color="#316cff"/>
      <stop offset="1" stop-color="#fff"/>
    </linearGradient>
  </defs>
  <g id="send-money" transform="translate(-22 -30)">
    <path id="Path_323" data-name="Path 323" d="M67.39,47H67V43h2a1,1,0,0,0,0-2H67V40a1,1,0,0,0-2,0v1h-.39A3.614,3.614,0,0,0,61,44.61v.779A3.614,3.614,0,0,0,64.61,49H65v4H62.189a1,1,0,0,0,0,2H65v1a1,1,0,0,0,2,0V55h.39A3.614,3.614,0,0,0,71,51.389V50.61A3.614,3.614,0,0,0,67.39,47Zm-2.78,0A1.612,1.612,0,0,1,63,45.39v-.779A1.612,1.612,0,0,1,64.61,43H65v4h-.39ZM69,51.39A1.612,1.612,0,0,1,67.39,53H67V49h.39A1.612,1.612,0,0,1,69,50.61ZM55,39a1,1,0,0,1-1,1H47.917A6.017,6.017,0,0,1,43,44.917V51a1,1,0,0,1-2,0V44a1,1,0,0,1,1-1,4,4,0,0,0,4-4,1,1,0,0,1,1-1h7A1,1,0,0,1,55,39ZM42,40a1,1,0,1,1,1,1A1,1,0,0,1,42,40ZM75.5,64c-.135,0-.266.014-.4.02A.9.9,0,0,0,75,64H63a1,1,0,1,0,0,2h7.034A8.492,8.492,0,1,0,75.5,64Zm0,15A6.5,6.5,0,1,1,82,72.5,6.508,6.508,0,0,1,75.5,79Zm6.56-49H78a1,1,0,0,0-1,1v4H32a1,1,0,0,0,0,2h6V60a1,1,0,0,0,1,1H82.06A3.945,3.945,0,0,0,86,57.06V33.94A3.945,3.945,0,0,0,82.06,30ZM79,32h3.06A1.942,1.942,0,0,1,84,33.94V52.512A3.92,3.92,0,0,0,82.06,52H79Zm5,25.06A1.942,1.942,0,0,1,82.06,59H40V37H77V53a1,1,0,0,0,1,1h4.06A1.942,1.942,0,0,1,84,55.94ZM30,41a1,1,0,0,1,1-1h4a1,1,0,0,1,0,2H31A1,1,0,0,1,30,41Zm-5,0a1,1,0,0,1,1-1h2a1,1,0,0,1,0,2H26A1,1,0,0,1,25,41Zm11,6H23a1,1,0,0,1,0-2H36a1,1,0,0,1,0,2Zm-3,5H30a1,1,0,0,1,0-2h3a1,1,0,0,1,0,2Zm-2,4a1,1,0,0,1,1-1h4a1,1,0,0,1,0,2H32A1,1,0,0,1,31,56ZM61,76H31a1,1,0,0,0,0,2h5V89a1,1,0,0,0,1,1H61a1,1,0,0,0,1-1V77A1,1,0,0,0,61,76ZM60,88H38V78H60ZM34,83a1,1,0,0,1-1,1H31a1,1,0,0,1,0-2h2A1,1,0,0,1,34,83Zm-9,1a1,1,0,0,1,0-2h2a1,1,0,0,1,0,2Zm9,3a1,1,0,0,1-1,1H26a1,1,0,0,1,0-2h7A1,1,0,0,1,34,87ZM25,36a1,1,0,0,1,1-1h3a1,1,0,0,1,0,2H26A1,1,0,0,1,25,36ZM49,87a4,4,0,1,0-4-4A4,4,0,0,0,49,87Zm9-21a1,1,0,0,1,0-2h2a1,1,0,0,1,0,2Zm7,3a1,1,0,0,1-1,1H55a1,1,0,0,1,0-2h9A1,1,0,0,1,65,69Zm0,3a1,1,0,0,1-1,1H63a1,1,0,0,1,0-2h1A1,1,0,0,1,65,72Z" fill="url(#linear-gradient)"/>
  </g>
</svg>
